<svg width="316" height="124" viewBox="0 0 316 124" fill="none" xmlns="http://www.w3.org/2000/svg">
<rect width="12" height="12" rx="4" fill="#02B421"/>
<rect x="16" width="12" height="12" rx="4" fill="#02B421" fill-opacity="0.5"/>
<rect x="32" width="12" height="12" rx="4" fill="#02B421"/>
<rect x="48" width="12" height="12" rx="4" fill="#454F44"/>
<rect x="64" width="12" height="12" rx="4" fill="#02B421" fill-opacity="0.66"/>
<rect x="80" width="12" height="12" rx="4" fill="#02B421"/>
<rect x="96" width="12" height="12" rx="4" fill="#454F44"/>
<rect x="112" width="12" height="12" rx="4" fill="#02B421" fill-opacity="0.66"/>
<rect x="128" width="12" height="12" rx="4" fill="#02B421"/>
<rect x="144" width="12" height="12" rx="4" fill="#02B421" fill-opacity="0.88"/>
<rect x="160" width="12" height="12" rx="4" fill="#02B421" fill-opacity="0.66"/>
<rect x="176" width="12" height="12" rx="4" fill="#454F44"/>
<rect x="192" width="12" height="12" rx="4" fill="#02B421" fill-opacity="0.66"/>
<rect x="208" width="12" height="12" rx="4" fill="#02B421" fill-opacity="0.78"/>
<rect x="224" width="12" height="12" rx="4" fill="#454F44"/>
<rect x="240" width="12" height="12" rx="4" fill="#02B421" fill-opacity="0.88"/>
<rect x="256" width="12" height="12" rx="4" fill="#02B421" fill-opacity="0.4"/>
<rect x="272" width="12" height="12" rx="4" fill="#454F44"/>
<rect x="288" width="12" height="12" rx="4" fill="#02B421" fill-opacity="0.4"/>
<rect x="304" width="12" height="12" rx="4" fill="#02B421"/>
<rect y="16" width="12" height="12" rx="4" fill="#02B421" fill-opacity="0.5"/>
<rect x="16" y="16" width="12" height="12" rx="4" fill="#02B421" fill-opacity="0.3"/>
<rect x="32" y="16" width="12" height="12" rx="4" fill="#02B421"/>
<rect x="48" y="16" width="12" height="12" rx="4" fill="#454F44"/>
<rect x="64" y="16" width="12" height="12" rx="4" fill="#454F44"/>
<rect x="80" y="16" width="12" height="12" rx="4" fill="#02B421" fill-opacity="0.66"/>
<rect x="96" y="16" width="12" height="12" rx="4" fill="#454F44"/>
<rect x="112" y="16" width="12" height="12" rx="4" fill="#02B421" fill-opacity="0.26"/>
<rect x="128" y="16" width="12" height="12" rx="4" fill="#02B421" fill-opacity="0.56"/>
<rect x="144" y="16" width="12" height="12" rx="4" fill="#02B421" fill-opacity="0.3"/>
<rect x="160" y="16" width="12" height="12" rx="4" fill="#02B421" fill-opacity="0.45"/>
<rect x="176" y="16" width="12" height="12" rx="4" fill="#02B421" fill-opacity="0.26"/>
<rect x="192" y="16" width="12" height="12" rx="4" fill="#02B421" fill-opacity="0.45"/>
<rect x="208" y="16" width="12" height="12" rx="4" fill="#02B421" fill-opacity="0.88"/>
<rect x="224" y="16" width="12" height="12" rx="4" fill="#02B421" fill-opacity="0.88"/>
<rect x="240" y="16" width="12" height="12" rx="4" fill="#454F44"/>
<rect x="256" y="16" width="12" height="12" rx="4" fill="#02B421" fill-opacity="0.78"/>
<rect x="272" y="16" width="12" height="12" rx="4" fill="#454F44"/>
<rect x="288" y="16" width="12" height="12" rx="4" fill="#02B421" fill-opacity="0.78"/>
<rect x="304" y="16" width="12" height="12" rx="4" fill="#02B421" fill-opacity="0.26"/>
<rect y="32" width="12" height="12" rx="4" fill="#02B421" fill-opacity="0.5"/>
<rect x="16" y="32" width="12" height="12" rx="4" fill="#02B421"/>
<rect x="32" y="32" width="12" height="12" rx="4" fill="#02B421" fill-opacity="0.5"/>
<rect x="48" y="32" width="12" height="12" rx="4" fill="#02B421"/>
<rect x="64" y="32" width="12" height="12" rx="4" fill="#02B421" fill-opacity="0.78"/>
<rect x="80" y="32" width="12" height="12" rx="4" fill="#02B421"/>
<rect x="96" y="32" width="12" height="12" rx="4" fill="#02B421" fill-opacity="0.56"/>
<rect x="112" y="32" width="12" height="12" rx="4" fill="#02B421" fill-opacity="0.3"/>
<rect x="128" y="32" width="12" height="12" rx="4" fill="#454F44"/>
<rect x="144" y="32" width="12" height="12" rx="4" fill="#02B421"/>
<rect x="160" y="32" width="12" height="12" rx="4" fill="#02B421"/>
<rect x="176" y="32" width="12" height="12" rx="4" fill="#02B421"/>
<rect x="192" y="32" width="12" height="12" rx="4" fill="#02B421" fill-opacity="0.26"/>
<rect x="208" y="32" width="12" height="12" rx="4" fill="#02B421" fill-opacity="0.45"/>
<rect x="224" y="32" width="12" height="12" rx="4" fill="#02B421" fill-opacity="0.3"/>
<rect x="240" y="32" width="12" height="12" rx="4" fill="#02B421" fill-opacity="0.78"/>
<rect x="256" y="32" width="12" height="12" rx="4" fill="#02B421" fill-opacity="0.78"/>
<rect x="272" y="32" width="12" height="12" rx="4" fill="#02B421"/>
<rect x="288" y="32" width="12" height="12" rx="4" fill="#02B421" fill-opacity="0.78"/>
<rect x="304" y="32" width="12" height="12" rx="4" fill="#02B421" fill-opacity="0.4"/>
<rect y="48" width="12" height="12" rx="4" fill="#02B421"/>
<rect x="16" y="48" width="12" height="12" rx="4" fill="#02B421" fill-opacity="0.3"/>
<rect x="32" y="48" width="12" height="12" rx="4" fill="#02B421"/>
<rect x="48" y="48" width="12" height="12" rx="4" fill="#454F44"/>
<rect x="64" y="48" width="12" height="12" rx="4" fill="#02B421" fill-opacity="0.56"/>
<rect x="80" y="48" width="12" height="12" rx="4" fill="#02B421" fill-opacity="0.56"/>
<rect x="96" y="48" width="12" height="12" rx="4" fill="#02B421" fill-opacity="0.88"/>
<rect x="112" y="48" width="12" height="12" rx="4" fill="#02B421" fill-opacity="0.88"/>
<rect x="128" y="48" width="12" height="12" rx="4" fill="#02B421"/>
<rect x="144" y="48" width="12" height="12" rx="4" fill="#02B421"/>
<rect x="160" y="48" width="12" height="12" rx="4" fill="#02B421" fill-opacity="0.6"/>
<rect x="176" y="48" width="12" height="12" rx="4" fill="#02B421" fill-opacity="0.6"/>
<rect x="192" y="48" width="12" height="12" rx="4" fill="#02B421" fill-opacity="0.45"/>
<rect x="208" y="48" width="12" height="12" rx="4" fill="#02B421"/>
<rect x="224" y="48" width="12" height="12" rx="4" fill="#02B421" fill-opacity="0.45"/>
<rect x="240" y="48" width="12" height="12" rx="4" fill="#02B421"/>
<rect x="256" y="48" width="12" height="12" rx="4" fill="#02B421" fill-opacity="0.45"/>
<rect x="272" y="48" width="12" height="12" rx="4" fill="#454F44"/>
<rect x="288" y="48" width="12" height="12" rx="4" fill="#02B421"/>
<rect x="304" y="48" width="12" height="12" rx="4" fill="#02B421" fill-opacity="0.88"/>
<rect y="64" width="12" height="12" rx="4" fill="#02B421" fill-opacity="0.3"/>
<rect x="16" y="64" width="12" height="12" rx="4" fill="#02B421"/>
<rect x="32" y="64" width="12" height="12" rx="4" fill="#02B421" fill-opacity="0.3"/>
<rect x="48" y="64" width="12" height="12" rx="4" fill="#02B421" fill-opacity="0.78"/>
<rect x="64" y="64" width="12" height="12" rx="4" fill="#02B421" fill-opacity="0.26"/>
<rect x="80" y="64" width="12" height="12" rx="4" fill="#02B421" fill-opacity="0.56"/>
<rect x="96" y="64" width="12" height="12" rx="4" fill="#02B421"/>
<rect x="112" y="64" width="12" height="12" rx="4" fill="#02B421" fill-opacity="0.3"/>
<rect x="128" y="64" width="12" height="12" rx="4" fill="#02B421"/>
<rect x="144" y="64" width="12" height="12" rx="4" fill="#02B421" fill-opacity="0.6"/>
<rect x="160" y="64" width="12" height="12" rx="4" fill="#02B421" fill-opacity="0.6"/>
<rect x="176" y="64" width="12" height="12" rx="4" fill="#02B421" fill-opacity="0.78"/>
<rect x="192" y="64" width="12" height="12" rx="4" fill="#02B421"/>
<rect x="208" y="64" width="12" height="12" rx="4" fill="#454F44"/>
<rect x="224" y="64" width="12" height="12" rx="4" fill="#02B421" fill-opacity="0.45"/>
<rect x="240" y="64" width="12" height="12" rx="4" fill="#02B421" fill-opacity="0.78"/>
<rect x="256" y="64" width="12" height="12" rx="4" fill="#454F44"/>
<rect x="272" y="64" width="12" height="12" rx="4" fill="#02B421"/>
<rect x="288" y="64" width="12" height="12" rx="4" fill="#02B421" fill-opacity="0.26"/>
<rect x="304" y="64" width="12" height="12" rx="4" fill="#02B421" fill-opacity="0.4"/>
<rect y="80" width="12" height="12" rx="4" fill="#02B421" fill-opacity="0.3"/>
<rect x="16" y="80" width="12" height="12" rx="4" fill="#02B421" fill-opacity="0.3"/>
<rect x="32" y="80" width="12" height="12" rx="4" fill="#02B421"/>
<rect x="48" y="80" width="12" height="12" rx="4" fill="#02B421" fill-opacity="0.3"/>
<rect x="64" y="80" width="12" height="12" rx="4" fill="#02B421"/>
<rect x="80" y="80" width="12" height="12" rx="4" fill="#02B421" fill-opacity="0.4"/>
<rect x="96" y="80" width="12" height="12" rx="4" fill="#02B421" fill-opacity="0.3"/>
<rect x="112" y="80" width="12" height="12" rx="4" fill="#454F44"/>
<rect x="128" y="80" width="12" height="12" rx="4" fill="#02B421" fill-opacity="0.78"/>
<rect x="144" y="80" width="12" height="12" rx="4" fill="#02B421" fill-opacity="0.6"/>
<rect x="160" y="80" width="12" height="12" rx="4" fill="#02B421" fill-opacity="0.6"/>
<rect x="176" y="80" width="12" height="12" rx="4" fill="#02B421" fill-opacity="0.6"/>
<rect x="192" y="80" width="12" height="12" rx="4" fill="#454F44"/>
<rect x="208" y="80" width="12" height="12" rx="4" fill="#02B421" fill-opacity="0.78"/>
<rect x="224" y="80" width="12" height="12" rx="4" fill="#02B421" fill-opacity="0.45"/>
<rect x="240" y="80" width="12" height="12" rx="4" fill="#02B421" fill-opacity="0.3"/>
<rect x="256" y="80" width="12" height="12" rx="4" fill="#02B421"/>
<rect x="272" y="80" width="12" height="12" rx="4" fill="#02B421"/>
<rect x="288" y="80" width="12" height="12" rx="4" fill="#454F44"/>
<rect x="304" y="80" width="12" height="12" rx="4" fill="#02B421" fill-opacity="0.26"/>
<rect y="96" width="12" height="12" rx="4" fill="#02B421" fill-opacity="0.6"/>
<rect x="16" y="96" width="12" height="12" rx="4" fill="#02B421" fill-opacity="0.6"/>
<rect x="32" y="96" width="12" height="12" rx="4" fill="#02B421"/>
<rect x="48" y="96" width="12" height="12" rx="4" fill="#02B421"/>
<rect x="64" y="96" width="12" height="12" rx="4" fill="#02B421" fill-opacity="0.4"/>
<rect x="80" y="96" width="12" height="12" rx="4" fill="#454F44"/>
<rect x="96" y="96" width="12" height="12" rx="4" fill="#454F44"/>
<rect x="112" y="96" width="12" height="12" rx="4" fill="#02B421" fill-opacity="0.56"/>
<rect x="128" y="96" width="12" height="12" rx="4" fill="#02B421" fill-opacity="0.78"/>
<rect x="144" y="96" width="12" height="12" rx="4" fill="#454F44"/>
<rect x="160" y="96" width="12" height="12" rx="4" fill="#02B421" fill-opacity="0.56"/>
<rect x="176" y="96" width="12" height="12" rx="4" fill="#454F44"/>
<rect x="192" y="96" width="12" height="12" rx="4" fill="#02B421" fill-opacity="0.78"/>
<rect x="208" y="96" width="12" height="12" rx="4" fill="#454F44"/>
<rect x="224" y="96" width="12" height="12" rx="4" fill="#02B421" fill-opacity="0.26"/>
<rect x="240" y="96" width="12" height="12" rx="4" fill="#02B421"/>
<rect x="256" y="96" width="12" height="12" rx="4" fill="#02B421"/>
<rect x="272" y="96" width="12" height="12" rx="4" fill="#454F44"/>
<rect x="288" y="96" width="12" height="12" rx="4" fill="#02B421"/>
<rect x="304" y="96" width="12" height="12" rx="4" fill="#454F44"/>
<rect y="112" width="12" height="12" rx="4" fill="#02B421" fill-opacity="0.6"/>
<rect x="16" y="112" width="12" height="12" rx="4" fill="#02B421" fill-opacity="0.6"/>
<rect x="32" y="112" width="12" height="12" rx="4" fill="#02B421"/>
<rect x="48" y="112" width="12" height="12" rx="4" fill="#02B421" fill-opacity="0.4"/>
<rect x="64" y="112" width="12" height="12" rx="4" fill="#02B421" fill-opacity="0.88"/>
<rect x="80" y="112" width="12" height="12" rx="4" fill="#02B421" fill-opacity="0.66"/>
<rect x="96" y="112" width="12" height="12" rx="4" fill="#454F44"/>
<rect x="112" y="112" width="12" height="12" rx="4" fill="#02B421" fill-opacity="0.66"/>
<rect x="128" y="112" width="12" height="12" rx="4" fill="#454F44"/>
<rect x="144" y="112" width="12" height="12" rx="4" fill="#02B421" fill-opacity="0.56"/>
<rect x="160" y="112" width="12" height="12" rx="4" fill="#02B421" fill-opacity="0.4"/>
<rect x="176" y="112" width="12" height="12" rx="4" fill="#02B421" fill-opacity="0.78"/>
<rect x="192" y="112" width="12" height="12" rx="4" fill="#02B421" fill-opacity="0.66"/>
<rect x="208" y="112" width="12" height="12" rx="4" fill="#02B421" fill-opacity="0.3"/>
<rect x="224" y="112" width="12" height="12" rx="4" fill="#02B421" fill-opacity="0.78"/>
<rect x="240" y="112" width="12" height="12" rx="4" fill="#02B421" fill-opacity="0.88"/>
<rect x="256" y="112" width="12" height="12" rx="4" fill="#454F44"/>
<rect x="272" y="112" width="12" height="12" rx="4" fill="#02B421" fill-opacity="0.4"/>
<rect x="288" y="112" width="12" height="12" rx="4" fill="#454F44"/>
<rect x="304" y="112" width="12" height="12" rx="4" fill="#02B421" fill-opacity="0.66"/>
</svg>
