<svg width="44" height="47" viewBox="0 0 44 47" fill="none" xmlns="http://www.w3.org/2000/svg">
<g clip-path="url(#clip0_22692_2049)">
<path d="M13.93 22.8053C13.93 22.8053 13.905 22.8353 13.895 22.8453C13.675 23.0953 13.43 23.2803 13.165 23.4053C12.925 23.5153 12.67 23.5753 12.41 23.5753C12.28 23.5753 12.155 23.5603 12.025 23.5353L12.91 21.9803C13.475 21.3353 13.72 19.9703 13.42 19.1053C13.2 18.4753 12.805 18.4003 12.675 18.3803L12.62 18.3703C10.145 17.7003 7.91 16.4453 6.03 14.7653C5.735 14.5003 5.455 14.2253 5.175 13.9453C4.875 13.6353 4.58 13.3103 4.3 12.9753C3.67 12.2203 3.095 11.4103 2.595 10.5503C1.19 8.16027 0.295 5.40527 0.06 2.46527L0 1.75527L0.35 1.53027L7.75 1.75527L7.72 2.44027C7.72 2.44027 7.66 4.31027 8.74 5.45527C8.985 5.71527 9.275 5.92527 9.61 6.07527C10.025 6.26027 10.51 6.36527 11.055 6.37527L11.405 7.80527C10.895 7.79027 10.04 7.60527 9.61 7.47527C8.89 7.25527 8.275 6.88027 7.775 6.34527C6.79 5.29527 6.51 3.89027 6.435 3.06527H1.435C1.625 4.64527 2.02 6.16527 2.595 7.58027C3.055 8.72027 3.63 9.79527 4.3 10.7903C4.575 11.1953 4.865 11.5903 5.175 11.9653C5.445 12.3003 5.73 12.6253 6.03 12.9353C7.92 14.9053 10.28 16.3653 12.94 17.0903C13.05 17.1103 13.16 17.1453 13.26 17.1803C13.91 17.4103 14.4 17.9303 14.66 18.6753C15.11 19.9653 14.78 21.8053 13.93 22.8103V22.8053Z" fill="url(#paint0_linear_22692_2049)"/>
<g style="mix-blend-mode:color-burn" opacity="0.3">
<path d="M6.99984 2.63492L6.43484 3.06992H1.55484L1.33984 2.29492L6.99984 2.63492Z" fill="#808080"/>
</g>
<g style="mix-blend-mode:color-burn" opacity="0.2">
<path d="M13.9304 22.8052C13.9304 22.8052 13.9054 22.8352 13.8954 22.8452C13.6754 23.0952 13.4304 23.2802 13.1654 23.4052C12.9254 23.5152 12.6704 23.5752 12.4104 23.5752C12.2804 23.5752 12.1554 23.5602 12.0254 23.5352L12.3754 23.3102L13.9304 22.8052Z" fill="#808080"/>
</g>
<path d="M14.2446 22.6253C14.0246 22.8753 13.7746 23.0603 13.5146 23.1853C13.2746 23.2953 13.0196 23.3553 12.7596 23.3553C12.6296 23.3553 12.5046 23.3403 12.3746 23.3153L13.2596 21.7603C13.8246 21.1153 14.0696 19.7503 13.7696 18.8853C13.5496 18.2553 13.1546 18.1803 13.0246 18.1553L12.9746 18.1453C10.4996 17.4753 8.26461 16.2203 6.38461 14.5403C6.08961 14.2753 5.80461 14.0003 5.52961 13.7203C5.22961 13.4103 4.93461 13.0853 4.65461 12.7503C4.02461 11.9953 3.44961 11.1853 2.94961 10.3253C1.53961 7.93527 0.644609 5.18027 0.404609 2.24027L0.349609 1.53027H8.09961L8.06961 2.21527C8.06961 2.21527 8.01461 4.08527 9.08961 5.23027C9.33461 5.49027 9.62461 5.69527 9.95961 5.85027C10.3746 6.03527 10.8596 6.14027 11.4046 6.15027L11.3746 7.46527C10.8646 7.45027 10.3946 7.38027 9.95961 7.25027C9.23961 7.03027 8.62461 6.65527 8.12461 6.12027C7.13961 5.07027 6.85961 3.66527 6.78461 2.84027H1.78461C1.97461 4.42027 2.36961 5.94027 2.94461 7.35527C3.40461 8.49527 3.97961 9.57027 4.64961 10.5653C4.92461 10.9703 5.21461 11.3653 5.52461 11.7403C5.79461 12.0753 6.07961 12.4003 6.37961 12.7103C8.26961 14.6803 10.6296 16.1403 13.2896 16.8653C13.3996 16.8853 13.5096 16.9203 13.6096 16.9553C14.2596 17.1853 14.7546 17.7053 15.0146 18.4503C15.4696 19.7603 15.1246 21.6303 14.2496 22.6253H14.2446Z" fill="url(#paint1_linear_22692_2049)"/>
<g style="mix-blend-mode:color-burn" opacity="0.3">
<path d="M14.2456 22.6251C14.0256 22.8751 13.7756 23.0601 13.5156 23.1851C14.8706 20.7601 14.1306 18.2051 13.6106 16.9551C14.2606 17.1851 14.7556 17.7051 15.0156 18.4501C15.4706 19.7601 15.1256 21.6301 14.2506 22.6251H14.2456Z" fill="#808080"/>
</g>
<g style="mix-blend-mode:color-burn" opacity="0.3">
<path d="M9.95508 5.8501C10.3701 6.0351 10.8551 6.1401 11.4001 6.1501L11.3701 7.4651C10.8601 7.4501 10.3901 7.3801 9.95508 7.2501V5.8501Z" fill="#808080"/>
</g>
<path d="M42.8441 1.75502L42.7841 2.46502C42.5741 5.10002 41.8291 7.58502 40.6691 9.79002C40.4341 10.23 40.1891 10.66 39.9241 11.075C39.6641 11.485 39.3841 11.885 39.0941 12.275C38.6191 12.9 38.1091 13.49 37.5641 14.045C35.5441 16.09 33.0341 17.605 30.2241 18.365L30.1691 18.375C30.0391 18.4 29.6391 18.47 29.4241 19.1C29.1791 19.815 29.2991 20.875 29.6691 21.585C29.7491 21.73 29.8391 21.865 29.9341 21.975L31.3341 23.305L30.8191 23.53C30.6891 23.555 30.5591 23.57 30.4341 23.57C30.2391 23.57 30.0491 23.54 29.8641 23.475C29.6791 23.41 29.4991 23.315 29.3341 23.19C29.1991 23.095 29.0741 22.975 28.9541 22.84C28.0791 21.845 27.7341 19.975 28.1891 18.665C28.4641 17.875 28.9991 17.34 29.7091 17.13C29.7741 17.11 29.8441 17.095 29.9141 17.08C32.9391 16.255 35.5791 14.485 37.5741 12.085C38.1341 11.41 38.6491 10.685 39.1041 9.91502C39.4041 9.40502 39.6841 8.88002 39.9341 8.33002C40.2191 7.71502 40.4641 7.07502 40.6791 6.41502C41.0241 5.34002 41.2741 4.21502 41.4141 3.06002H36.4141C36.3391 3.88502 36.0591 5.29002 35.0741 6.34002C34.5691 6.88502 33.9441 7.26502 33.2091 7.48002C32.7841 7.60502 32.3241 7.67502 31.8291 7.68502L31.7991 6.37002C32.3341 6.35502 32.8041 6.26002 33.2141 6.08002C33.5641 5.93002 33.8691 5.71502 34.1241 5.44002C35.1891 4.30502 35.1391 2.44502 35.1391 2.43002L35.1091 1.74502L35.6241 1.52002L42.8541 1.74502L42.8441 1.75502Z" fill="url(#paint2_linear_22692_2049)"/>
<g style="mix-blend-mode:color-burn" opacity="0.2">
<path d="M42.0253 2.76994L41.4103 3.06994H36.4453V2.43994L42.0253 2.76994Z" fill="#808080"/>
</g>
<path d="M43.3647 1.5299L43.3047 2.2399C43.0947 4.8749 42.3497 7.3599 41.1897 9.5649C40.9547 10.0049 40.7097 10.4349 40.4447 10.8499C40.1797 11.2649 39.9047 11.6599 39.6147 12.0499C39.1447 12.6749 38.6297 13.2649 38.0847 13.8199C36.0647 15.8649 33.5547 17.3799 30.7447 18.1399L30.6897 18.1499C30.5597 18.1749 30.1647 18.2449 29.9447 18.8799C29.6997 19.5949 29.8197 20.6549 30.1897 21.3649C30.2697 21.5099 30.3597 21.6449 30.4547 21.7549L31.3397 23.3099C31.2097 23.3349 31.0847 23.3499 30.9547 23.3499C30.7597 23.3499 30.5697 23.3199 30.3797 23.2549C30.1947 23.1899 30.0147 23.0949 29.8497 22.9699C29.7147 22.8749 29.5897 22.7549 29.4697 22.6199C28.5947 21.6249 28.2497 19.7499 28.7047 18.4449C28.9797 17.6549 29.5147 17.1199 30.2247 16.9099C30.2897 16.8899 30.3597 16.8749 30.4247 16.8599C33.4497 16.0349 36.0897 14.2649 38.0847 11.8649C38.6447 11.1899 39.1597 10.4649 39.6147 9.6949C39.9147 9.1849 40.1947 8.6599 40.4447 8.1099C40.7297 7.4949 40.9797 6.8499 41.1897 6.1949C41.5347 5.1199 41.7847 3.9949 41.9247 2.8399H36.9297C36.8547 3.6649 36.5747 5.0699 35.5897 6.1199C35.0847 6.6649 34.4597 7.0449 33.7247 7.2599C33.2997 7.3849 32.8397 7.4549 32.3447 7.4649L32.3147 6.1499C32.8497 6.1399 33.3197 6.0399 33.7297 5.8599C34.0797 5.7099 34.3847 5.4949 34.6397 5.2199C35.7047 4.0849 35.6547 2.2249 35.6547 2.2099L35.6247 1.5249H43.3747L43.3647 1.5299Z" fill="url(#paint3_linear_22692_2049)"/>
<g style="mix-blend-mode:color-burn" opacity="0.3">
<path d="M29.8497 22.9702C29.7147 22.8752 29.5897 22.7552 29.4697 22.6202C28.5947 21.6252 28.2497 19.7502 28.7047 18.4452C28.9797 17.6552 29.5147 17.1202 30.2247 16.9102C29.6497 18.0102 28.6947 20.4552 29.8497 22.9702Z" fill="#808080"/>
</g>
<g style="mix-blend-mode:color-burn" opacity="0.2">
<path d="M33.7205 5.86535V7.26035C33.2955 7.38535 32.8355 7.45535 32.3405 7.46535L32.3105 6.15035C32.8455 6.14035 33.3155 6.04035 33.7255 5.86035L33.7205 5.86535Z" fill="#808080"/>
</g>
<path d="M32.9391 0.655273C32.9391 1.21027 32.9241 1.79527 32.9041 2.40527C32.8941 2.66027 32.8791 2.92527 32.8641 3.19527C32.6391 7.00027 31.9241 11.5453 30.5791 15.4753C28.8241 20.6053 25.9891 24.6853 21.7791 24.6853C14.2341 24.6853 11.1191 11.6003 10.6741 2.81027C10.6641 2.67527 10.6591 2.54027 10.6541 2.41027C10.6291 1.80027 10.6191 1.21527 10.6191 0.660273H32.9391V0.655273Z" fill="url(#paint4_linear_22692_2049)"/>
<path d="M20.3793 15.315V14.24H20.8793V7.68502H20.2793V6.52002H23.3693V14.24H23.8693V15.315H20.3743H20.3793Z" fill="#FF9D09"/>
<g style="mix-blend-mode:color-burn" opacity="0.3">
<path d="M23.3752 14.24V6.52002H20.2852V6.93002H23.0152V14.655H23.5152V15.32H23.8752V14.245H23.3752V14.24Z" fill="#767676"/>
</g>
<g style="mix-blend-mode:color-burn" opacity="0.2">
<path d="M23.0137 6.93004L23.3737 6.54004V14.205L23.0137 14.655V6.93004Z" fill="#767676"/>
</g>
<g style="mix-blend-mode:color-burn" opacity="0.2">
<path d="M23.8737 14.2402V15.3152H23.5137V14.7002L23.8737 14.2402Z" fill="#767676"/>
</g>
<g style="mix-blend-mode:color-burn" opacity="0.2">
<path d="M30.5791 15.4752C29.3091 19.1802 27.4841 22.3352 24.9791 23.8052C24.0141 24.3702 22.9491 24.6852 21.7791 24.6852C14.2341 24.6852 11.1191 11.6002 10.6741 2.81016C10.6641 2.67516 10.6591 2.54016 10.6541 2.41016C10.6291 1.80016 10.6191 1.21516 10.6191 0.660156H17.6741L17.3391 1.93016C17.3391 1.93016 18.3791 26.8752 30.5741 15.4802L30.5791 15.4752Z" fill="#808080"/>
</g>
<g style="mix-blend-mode:color-burn" opacity="0.2">
<path d="M25.2095 23.6603C16.4395 20.4403 13.3845 6.55527 12.4745 0.655273H11.2695C11.2695 1.21027 11.2845 1.80027 11.3045 2.40527C11.3095 2.53527 11.3145 2.67027 11.3245 2.80527C11.7645 11.4703 14.7945 24.3053 22.1045 24.6703L25.2095 23.6553V23.6603Z" fill="#808080"/>
</g>
<g style="mix-blend-mode:color-burn" opacity="0.3">
<path d="M32.94 0.655273C32.94 1.21027 32.925 1.79527 32.905 2.40527C32.895 2.66027 32.88 2.92527 32.865 3.19527C30.85 2.96027 25.39 2.40527 18.025 2.40527C13.38 2.40527 11.445 2.60027 10.68 2.80527C10.67 2.67027 10.665 2.53527 10.66 2.40527C10.635 1.79527 10.625 1.21027 10.625 0.655273H32.945H32.94Z" fill="#808080"/>
</g>
<path d="M34.3407 0L34.1507 0.62L33.8107 1.75H9.7457L9.2207 0H34.3407Z" fill="url(#paint5_linear_22692_2049)"/>
<path d="M25.5345 25.4452C25.5345 25.4452 25.4545 25.5102 25.3295 25.6202C25.1195 25.8052 24.7845 26.1152 24.5345 26.4302C24.3395 26.6802 24.1945 26.9252 24.1945 27.1202C24.1945 27.8902 24.0895 28.6152 23.9045 29.2502C23.8345 29.5002 23.7495 29.7302 23.6545 29.9452C23.6395 29.9752 23.6295 30.0102 23.6145 30.0402C23.5745 30.1302 23.5295 30.2152 23.4845 30.3002C23.0495 31.1152 22.4445 31.6202 21.7795 31.6202C21.4195 31.6202 21.0795 31.4752 20.7695 31.2102C20.4495 30.9352 20.1695 30.5402 19.9445 30.0452C19.5795 29.2602 19.3595 28.2402 19.3595 27.1252C19.3595 26.5302 18.0195 25.4502 18.0195 25.4502L18.0295 25.4202L18.5445 23.7852H25.0095L25.2695 24.6152L25.4595 25.2152L25.5245 25.4202L25.5345 25.4502V25.4452Z" fill="#FFBD26"/>
<path d="M25.5243 25.4153H18.0293L18.5443 23.7803H25.0093L25.2693 24.6103L25.4593 25.2103L25.5243 25.4153Z" fill="url(#paint6_linear_22692_2049)"/>
<g style="mix-blend-mode:color-burn" opacity="0.2">
<path d="M20.7704 31.2053C19.9404 30.4953 19.3654 28.9353 19.3654 27.1203C19.3654 26.5253 18.0254 25.4453 18.0254 25.4453L18.5504 23.7803H25.0154C25.0154 23.7803 18.4554 24.0753 19.9404 25.6303C20.0404 25.8903 21.0904 25.9603 21.0904 25.9603C21.1254 25.9303 20.1054 29.7653 21.4204 30.0453C22.0454 30.1803 21.5104 30.7003 20.7804 31.2103L20.7704 31.2053Z" fill="#808080"/>
</g>
<path d="M24.055 31.6199H19.5L19.94 30.0449H23.61L23.72 30.4499L23.98 31.4099L24.05 31.6199H24.055Z" fill="url(#paint7_linear_22692_2049)"/>
<path d="M25.1042 42.8201H18.4492L19.4992 31.6201H24.0542L24.0742 31.8351L25.1042 42.8201Z" fill="#FFBD26"/>
<path d="M27.0149 43.4299C26.4099 43.3849 25.7699 43.3499 25.1049 43.3199H25.0999C24.2749 43.2849 23.4149 43.2649 22.5249 43.2549C22.2849 43.2549 22.0399 43.2549 21.7949 43.2549C21.3699 43.2549 20.9499 43.2549 20.5399 43.2649C19.6249 43.2799 18.7449 43.3099 17.9099 43.3499C17.4399 43.3749 16.9849 43.3999 16.5449 43.4299L16.7049 42.8149H26.8549L26.8949 42.9799L27.0149 43.4299Z" fill="url(#paint8_linear_22692_2049)"/>
<path d="M33.4206 44.8301H10.1406V46.9301H33.4206V44.8301Z" fill="url(#paint9_linear_22692_2049)"/>
<path d="M33.4206 44.83H10.1406C10.3056 44.22 12.8706 43.69 16.5456 43.43C17.7656 43.345 19.1056 43.285 20.5256 43.26C20.9406 43.255 21.3656 43.25 21.7956 43.25C23.6706 43.25 25.4456 43.31 27.0156 43.425C28.8556 43.555 30.4156 43.75 31.5356 43.99C31.9156 44.07 32.2456 44.155 32.5156 44.245C33.0506 44.425 33.3656 44.62 33.4206 44.82V44.83Z" fill="#FFBD26"/>
<g style="mix-blend-mode:soft-light" opacity="0.7">
<path d="M25.5342 25.4454C25.5342 25.4454 25.4542 25.5104 25.3292 25.6204C23.9442 25.6404 22.0042 25.5354 21.3242 25.5254C21.7192 25.5104 22.0992 25.4704 22.4542 25.4154C23.6792 25.2204 24.6592 24.8304 25.2642 24.6104L25.4542 25.2104L25.5192 25.4154L25.5292 25.4454H25.5342Z" fill="white"/>
</g>
<g style="mix-blend-mode:soft-light" opacity="0.7">
<path d="M24.0757 31.8353C23.2557 31.7803 20.9707 31.6153 20.9707 31.6153L23.9807 31.4053L24.0507 31.6153L24.0707 31.8353H24.0757Z" fill="white"/>
</g>
<g style="mix-blend-mode:soft-light" opacity="0.7">
<path d="M26.8941 42.9803L25.4141 42.8203H26.8541L26.8941 42.9803Z" fill="white"/>
</g>
<g style="mix-blend-mode:soft-light" opacity="0.7">
<path d="M34.3398 0L34.1498 0.62L15.5898 0H34.3398Z" fill="white"/>
</g>
<g style="mix-blend-mode:color-burn" opacity="0.3">
<path d="M21.41 30.0449L21.03 31.6199H19.5L19.945 30.0449H21.41Z" fill="#808080"/>
</g>
<g style="mix-blend-mode:color-burn" opacity="0.2">
<path d="M21.0292 31.6201L20.4692 42.8201H20.3542H18.4492L19.4992 31.6201H21.0292Z" fill="#808080"/>
</g>
<g style="mix-blend-mode:color-burn" opacity="0.2">
<path d="M20.1307 1.75H9.7457L9.2207 0H13.6807C13.2007 0.32 11.8107 1.595 20.1307 1.75Z" fill="#808080"/>
</g>
<g style="mix-blend-mode:color-burn" opacity="0.2">
<path d="M11.2507 1.75H9.7457L9.2207 0H10.4807L11.2507 1.75Z" fill="#808080"/>
</g>
<path style="mix-blend-mode:soft-light" opacity="0.8" d="M18.2408 14.1399C18.2408 14.1399 15.8808 8.68994 16.3408 3.43994H14.1758C14.1758 3.43994 14.7308 10.5949 18.2458 14.1399H18.2408Z" fill="url(#paint10_linear_22692_2049)"/>
<g style="mix-blend-mode:color-burn" opacity="0.3">
<path d="M20.5343 43.2653C19.6193 43.2803 18.7393 43.3103 17.9043 43.3503L18.4493 42.8203H20.4693L20.5343 43.2653Z" fill="#808080"/>
</g>
<g style="mix-blend-mode:color-burn" opacity="0.2">
<path d="M17.9045 43.3501C17.9045 43.3501 14.5195 44.2751 14.5195 44.8301H18.6895C18.6895 44.8301 19.3945 43.4351 20.5395 43.2651L17.9095 43.3501H17.9045Z" fill="#808080"/>
</g>
<g style="mix-blend-mode:color-burn" opacity="0.3">
<path d="M18.6795 44.8301H14.5195V46.9301H18.6795V44.8301Z" fill="#808080"/>
</g>
<path style="mix-blend-mode:soft-light" opacity="0.8" d="M25.7656 16.8301C25.7656 16.8301 25.7806 16.7651 25.7856 16.6601C25.8806 15.1201 25.7656 3.43506 25.7656 3.43506H31.9556C31.9556 3.43506 32.0656 15.8401 25.7656 16.8251V16.8301Z" fill="url(#paint11_linear_22692_2049)"/>
<g style="mix-blend-mode:soft-light" opacity="0.7">
<path d="M25.5454 17.0253C25.6404 15.4853 25.5254 3.80029 25.5254 3.80029H27.9854C27.9754 6.52029 27.7454 13.7803 25.5454 17.0253Z" fill="white"/>
</g>
<g style="mix-blend-mode:soft-light" opacity="0.7">
<path d="M26.4443 0H21.7793V1.75H26.4443V0Z" fill="white"/>
</g>
<g style="mix-blend-mode:soft-light" opacity="0.7">
<path d="M28.8051 0H27.5801V1.75H28.8051V0Z" fill="white"/>
</g>
<g style="mix-blend-mode:soft-light" opacity="0.7">
<path d="M39.614 1.53027H38.084V2.84527H39.614V1.53027Z" fill="white"/>
</g>
<g style="mix-blend-mode:soft-light" opacity="0.7">
<path d="M39.614 9.69531V12.0503C39.144 12.6753 38.629 13.2653 38.084 13.8203V11.8703C38.644 11.1953 39.159 10.4703 39.614 9.70031V9.69531Z" fill="white"/>
</g>
<g style="mix-blend-mode:soft-light" opacity="0.7">
<path d="M41.1903 1.53027H40.4453V2.84527H41.1903V1.53027Z" fill="white"/>
</g>
<g style="mix-blend-mode:soft-light" opacity="0.7">
<path d="M41.1903 6.2002V9.5652C40.9553 10.0052 40.7103 10.4352 40.4453 10.8502V8.1152C40.7303 7.5002 40.9803 6.8552 41.1903 6.2002Z" fill="white"/>
</g>
<g style="mix-blend-mode:soft-light" opacity="0.7">
<path d="M4.65031 1.53027H2.94531V2.84527H4.65031V1.53027Z" fill="white"/>
</g>
<g style="mix-blend-mode:soft-light" opacity="0.7">
<path d="M4.65031 10.5654V12.7454C4.02031 11.9904 3.44531 11.1804 2.94531 10.3204V7.36035C3.40531 8.50035 3.98031 9.57535 4.65031 10.5704V10.5654Z" fill="white"/>
</g>
<g style="mix-blend-mode:soft-light" opacity="0.7">
<path d="M6.38039 1.53027H5.52539V2.84527H6.38039V1.53027Z" fill="white"/>
</g>
<g style="mix-blend-mode:soft-light" opacity="0.7">
<path d="M6.38039 12.7052V14.5352C6.08539 14.2702 5.80039 13.9952 5.52539 13.7152V11.7402C5.79539 12.0752 6.08039 12.4002 6.38039 12.7102V12.7052Z" fill="white"/>
</g>
<g style="mix-blend-mode:soft-light" opacity="0.7">
<path d="M31.3395 23.3104C31.2095 23.3354 31.0845 23.3504 30.9545 23.3504C30.7595 23.3504 30.5695 23.3204 30.3795 23.2554C30.2445 22.6154 30.1995 21.9304 30.1895 21.3604C30.2695 21.5054 30.3595 21.6404 30.4545 21.7504L31.3395 23.3054V23.3104Z" fill="white"/>
</g>
<g style="mix-blend-mode:soft-light" opacity="0.7">
<path d="M24.5304 42.8199H22.5254L23.0104 34.0649L24.5304 42.8199Z" fill="white"/>
</g>
<g style="mix-blend-mode:soft-light" opacity="0.7">
<path d="M21.9604 42.8199H21.6504V34.0649L21.9604 42.8199Z" fill="white"/>
</g>
<g style="mix-blend-mode:soft-light" opacity="0.3">
<path d="M25.1054 43.3253H25.1004C24.2754 43.2903 23.4154 43.2703 22.5254 43.2603V42.8203H24.5304L25.1054 43.3253Z" fill="white"/>
</g>
<g style="mix-blend-mode:soft-light" opacity="0.3">
<path d="M21.9605 42.8203L22.1305 43.2553H21.5605L21.6505 42.8203H21.9605Z" fill="white"/>
</g>
<g style="mix-blend-mode:soft-light" opacity="0.4">
<path d="M25.1054 43.3253C25.1054 43.3253 27.6304 43.8653 28.3454 44.8353H24.2604C24.2604 44.8353 23.6904 43.7053 22.5254 43.2603L25.1054 43.3253Z" fill="white"/>
</g>
<g style="mix-blend-mode:soft-light" opacity="0.3">
<path d="M22.1305 43.2549C22.1305 43.2549 23.1655 43.7899 23.2255 44.8549C23.2255 44.8299 22.3055 44.8299 22.3055 44.8299C22.3055 44.8299 22.3255 43.9849 21.5605 43.2549H22.1305Z" fill="white"/>
</g>
<g style="mix-blend-mode:soft-light" opacity="0.3">
<path d="M23.2247 44.8301H22.3047V46.9301H23.2247V44.8301Z" fill="white"/>
</g>
<g style="mix-blend-mode:soft-light" opacity="0.3">
<path d="M28.3498 44.8301H24.2598V46.9301H28.3498V44.8301Z" fill="white"/>
</g>
<g style="mix-blend-mode:soft-light" opacity="0.3">
<path d="M33.4191 44.8299V46.1199C33.2241 45.3249 30.5991 44.8299 30.3691 44.8299C31.4841 44.7449 32.1441 44.4799 32.5141 44.2549C33.0491 44.4349 33.3641 44.6299 33.4191 44.8299Z" fill="white"/>
</g>
<g style="mix-blend-mode:color-burn" opacity="0.2">
<path d="M33.4206 46.9301H10.1406V44.8301H16.3606C16.3606 44.8301 10.3206 46.9301 33.4206 46.9301Z" fill="#808080"/>
</g>
<g style="mix-blend-mode:color-burn" opacity="0.2">
<path d="M33.4206 44.8303H10.1406C10.3056 44.2203 12.8706 43.6903 16.5456 43.4303C17.7656 43.3453 19.1056 43.2853 20.5256 43.2603C20.4456 43.6603 21.2906 44.8103 33.4206 44.8253V44.8303Z" fill="#808080"/>
</g>
<g style="mix-blend-mode:color-burn" opacity="0.2">
<path d="M22.1194 26.7801C22.7444 27.1001 24.0144 28.4901 22.7744 29.9101C22.5844 29.9651 22.3694 30.0151 22.1194 30.0451C22.2794 30.0451 22.9744 30.0451 23.4844 30.3051C23.5694 30.3451 23.6544 30.3951 23.7244 30.4501L23.6144 30.0451C23.6294 30.0151 23.6394 29.9801 23.6544 29.9501C23.6744 29.9051 23.6894 29.8551 23.7094 29.8101C23.7344 29.7551 23.7544 29.7001 23.7744 29.6401C23.8194 29.5151 23.8644 29.3901 23.8994 29.2551C24.0844 28.6201 24.1894 27.8951 24.1894 27.1251C24.1894 26.9301 24.3344 26.6801 24.5294 26.4351C23.8894 26.6251 23.0344 26.8001 22.1094 26.7851L22.1194 26.7801Z" fill="#808080"/>
</g>
</g>
<defs>
<linearGradient id="paint0_linear_22692_2049" x1="13.66" y1="11.7603" x2="-6.365" y2="13.9553" gradientUnits="userSpaceOnUse">
<stop stop-color="#E07022"/>
<stop offset="1" stop-color="#FFBB26"/>
</linearGradient>
<linearGradient id="paint1_linear_22692_2049" x1="10.4596" y1="13.1503" x2="-1.95039" y2="-5.29473" gradientUnits="userSpaceOnUse">
<stop offset="0.01" stop-color="#FFA11F"/>
<stop offset="1" stop-color="#FFE226"/>
</linearGradient>
<linearGradient id="paint2_linear_22692_2049" x1="27.9841" y1="12.555" x2="42.8441" y2="12.555" gradientUnits="userSpaceOnUse">
<stop stop-color="#E07022"/>
<stop offset="1" stop-color="#FFBB26"/>
</linearGradient>
<linearGradient id="paint3_linear_22692_2049" x1="28.5047" y1="12.4399" x2="43.3647" y2="12.4399" gradientUnits="userSpaceOnUse">
<stop offset="0.01" stop-color="#FFA11F"/>
<stop offset="1" stop-color="#FFE226"/>
</linearGradient>
<linearGradient id="paint4_linear_22692_2049" x1="10.6191" y1="12.6703" x2="32.9391" y2="12.6703" gradientUnits="userSpaceOnUse">
<stop stop-color="#FFAD39"/>
<stop offset="0.44" stop-color="#FFBD26"/>
<stop offset="1" stop-color="#FFE226"/>
</linearGradient>
<linearGradient id="paint5_linear_22692_2049" x1="9.2207" y1="0.875" x2="34.3407" y2="0.875" gradientUnits="userSpaceOnUse">
<stop stop-color="#FFAD39"/>
<stop offset="0.44" stop-color="#FFBD26"/>
<stop offset="1" stop-color="#FFE226"/>
</linearGradient>
<linearGradient id="paint6_linear_22692_2049" x1="18.0293" y1="24.5953" x2="25.5243" y2="24.5953" gradientUnits="userSpaceOnUse">
<stop stop-color="#FF8C28"/>
<stop offset="0.44" stop-color="#FFBD26"/>
<stop offset="1" stop-color="#FFE226"/>
</linearGradient>
<linearGradient id="paint7_linear_22692_2049" x1="19.68" y1="30.8599" x2="26.42" y2="30.7749" gradientUnits="userSpaceOnUse">
<stop stop-color="#FF9130"/>
<stop offset="0.44" stop-color="#FFBD26"/>
<stop offset="1" stop-color="#FFE226"/>
</linearGradient>
<linearGradient id="paint8_linear_22692_2049" x1="16.5449" y1="43.1249" x2="27.0149" y2="43.1249" gradientUnits="userSpaceOnUse">
<stop stop-color="#FFA526"/>
<stop offset="0.44" stop-color="#FFBD26"/>
<stop offset="1" stop-color="#FFE226"/>
</linearGradient>
<linearGradient id="paint9_linear_22692_2049" x1="10.1406" y1="45.8801" x2="33.4206" y2="45.8801" gradientUnits="userSpaceOnUse">
<stop stop-color="#FF9130"/>
<stop offset="0.44" stop-color="#FFBD26"/>
<stop offset="1" stop-color="#FFE226"/>
</linearGradient>
<linearGradient id="paint10_linear_22692_2049" x1="14.1758" y1="8.78994" x2="18.2408" y2="8.78994" gradientUnits="userSpaceOnUse">
<stop stop-color="white"/>
<stop offset="1" stop-color="white"/>
</linearGradient>
<linearGradient id="paint11_linear_22692_2049" x1="25.7656" y1="10.1351" x2="31.9556" y2="10.1351" gradientUnits="userSpaceOnUse">
<stop stop-color="white"/>
<stop offset="1" stop-color="white"/>
</linearGradient>
<clipPath id="clip0_22692_2049">
<rect width="43.365" height="46.93" fill="white"/>
</clipPath>
</defs>
</svg>
