<svg width="728" height="109" viewBox="0 0 728 109" fill="none" xmlns="http://www.w3.org/2000/svg">
<circle cx="20" cy="20" r="19.6571" fill="white" fill-opacity="0.8" stroke="#585858" stroke-width="0.685871"/>
<path d="M23.432 23.6933H16.9467L15.752 27H13.704L19.08 12.216H21.32L26.6747 27H24.6267L23.432 23.6933ZM22.8773 22.1147L20.1893 14.6053L17.5013 22.1147H22.8773Z" fill="black"/>
<path d="M4.97 57.53V64.67H3.934V57.53H4.97ZM0.896 60.624H8.022V61.576H0.896V60.624ZM14.7982 57.18H13.4262V56.2H15.9182V66H14.7982V57.18ZM24.3275 56.2V57.18H19.3715V60.442C19.5862 60.1433 19.8988 59.9007 20.3095 59.714C20.7202 59.5273 21.1822 59.434 21.6955 59.434C22.2928 59.434 22.7968 59.532 23.2075 59.728C23.6182 59.924 23.9495 60.1807 24.2015 60.498C24.4628 60.8153 24.6495 61.1653 24.7615 61.548C24.8828 61.9213 24.9435 62.29 24.9435 62.654C24.9435 63.27 24.8128 63.8393 24.5515 64.362C24.2995 64.8847 23.9168 65.3047 23.4035 65.622C22.8995 65.9393 22.2695 66.098 21.5135 66.098C20.8602 66.098 20.2862 65.9813 19.7915 65.748C19.3062 65.5147 18.9142 65.1927 18.6155 64.782C18.3262 64.362 18.1395 63.8767 18.0555 63.326H19.1475C19.2782 63.9047 19.5488 64.348 19.9595 64.656C20.3795 64.9547 20.8975 65.104 21.5135 65.104C22.0362 65.104 22.4655 65.0013 22.8015 64.796C23.1468 64.5907 23.3988 64.306 23.5575 63.942C23.7255 63.578 23.8095 63.158 23.8095 62.682C23.8095 61.9633 23.6135 61.408 23.2215 61.016C22.8295 60.624 22.2695 60.428 21.5415 60.428C21.0095 60.428 20.5475 60.5447 20.1555 60.778C19.7728 61.0113 19.4882 61.338 19.3015 61.758H18.2515V56.2H24.3275ZM26.5538 58.146C26.5538 57.5113 26.7405 57.012 27.1138 56.648C27.4965 56.284 27.9772 56.102 28.5558 56.102C29.1252 56.102 29.6012 56.284 29.9838 56.648C30.3665 57.012 30.5578 57.5113 30.5578 58.146C30.5578 58.7807 30.3665 59.2847 29.9838 59.658C29.6012 60.022 29.1252 60.204 28.5558 60.204C27.9772 60.204 27.4965 60.022 27.1138 59.658C26.7405 59.2847 26.5538 58.7807 26.5538 58.146ZM28.5558 56.802C28.2198 56.802 27.9492 56.9187 27.7438 57.152C27.5478 57.376 27.4498 57.7073 27.4498 58.146C27.4498 58.5847 27.5478 58.9207 27.7438 59.154C27.9492 59.3873 28.2198 59.504 28.5558 59.504C28.8825 59.504 29.1485 59.3873 29.3538 59.154C29.5592 58.9207 29.6618 58.5847 29.6618 58.146C29.6618 57.7073 29.5592 57.376 29.3538 57.152C29.1485 56.9187 28.8825 56.802 28.5558 56.802ZM33.4418 56.2H34.5478L28.8358 66H27.7298L33.4418 56.2ZM31.7478 64.054C31.7478 63.4193 31.9345 62.92 32.3078 62.556C32.6905 62.1827 33.1665 61.996 33.7358 61.996C34.3052 61.996 34.7812 62.1827 35.1638 62.556C35.5465 62.92 35.7378 63.4193 35.7378 64.054C35.7378 64.6793 35.5465 65.1787 35.1638 65.552C34.7812 65.916 34.3052 66.098 33.7358 66.098C33.1665 66.098 32.6905 65.916 32.3078 65.552C31.9345 65.1787 31.7478 64.6793 31.7478 64.054ZM33.7358 62.71C33.4092 62.71 33.1432 62.8267 32.9378 63.06C32.7325 63.284 32.6298 63.6153 32.6298 64.054C32.6298 64.4833 32.7325 64.8147 32.9378 65.048C33.1432 65.272 33.4092 65.384 33.7358 65.384C34.0625 65.384 34.3285 65.272 34.5338 65.048C34.7392 64.8147 34.8418 64.4833 34.8418 64.054C34.8418 63.6153 34.7392 63.284 34.5338 63.06C34.3285 62.8267 34.0625 62.71 33.7358 62.71ZM47.989 57.18H42.683V60.526H46.673V61.506H42.683V65.02H47.989V66H41.563V56.2H47.989V57.18ZM49.3383 59H50.5423L52.3343 61.674L54.1263 59H55.3443L52.9223 62.486L55.3443 66H54.1263L52.3343 63.298L50.5423 66H49.3383L51.7603 62.486L49.3383 59ZM57.3073 59V57.04H58.3573V59H60.2193V59.98H58.3573V63.746C58.3573 64.1753 58.4459 64.488 58.6233 64.684C58.8099 64.88 59.0433 64.9967 59.3233 65.034C59.6126 65.0713 59.9113 65.0713 60.2193 65.034V65.944C59.8553 66.028 59.4959 66.0513 59.1413 66.014C58.7959 65.9767 58.4833 65.874 58.2033 65.706C57.9326 65.5287 57.7133 65.2813 57.5453 64.964C57.3866 64.6467 57.3073 64.2407 57.3073 63.746V59.98H56.2573V59H57.3073ZM61.7811 59H62.7471L62.8031 60.022C62.9898 59.77 63.2138 59.5553 63.4751 59.378C63.7458 59.2007 64.0398 59.0793 64.3571 59.014C64.6838 58.9393 65.0291 58.9347 65.3931 59V60.05C65.0011 59.9753 64.6465 59.9753 64.3291 60.05C64.0211 60.1247 63.7551 60.2647 63.5311 60.47C63.3071 60.6753 63.1345 60.9367 63.0131 61.254C62.8918 61.562 62.8311 61.9213 62.8311 62.332V66H61.7811V59ZM71.208 66L71.124 64.74C70.928 65.1693 70.6387 65.5053 70.256 65.748C69.8734 65.9813 69.388 66.098 68.8 66.098C68.296 66.098 67.8667 66.0187 67.512 65.86C67.1574 65.7013 66.882 65.4773 66.686 65.188C66.4994 64.8893 66.406 64.5393 66.406 64.138C66.406 63.55 66.6254 63.0693 67.064 62.696C67.5027 62.3133 68.1374 62.08 68.968 61.996L71.124 61.758V61.198C71.124 60.806 70.9794 60.4933 70.69 60.26C70.4007 60.0173 70.0087 59.896 69.514 59.896C69.0287 59.896 68.6227 60.008 68.296 60.232C67.9787 60.456 67.7594 60.778 67.638 61.198L66.686 60.862C66.8727 60.246 67.2134 59.7653 67.708 59.42C68.212 59.0747 68.8234 58.902 69.542 58.902C70.3727 58.902 71.0167 59.1167 71.474 59.546C71.9407 59.966 72.174 60.54 72.174 61.268V66H71.208ZM71.124 62.654L68.954 62.906C68.4874 62.962 68.1327 63.0927 67.89 63.298C67.6474 63.494 67.526 63.7553 67.526 64.082C67.526 64.4087 67.6427 64.67 67.876 64.866C68.1187 65.062 68.464 65.16 68.912 65.16C69.4254 65.16 69.8454 65.0573 70.172 64.852C70.4987 64.6467 70.7367 64.3713 70.886 64.026C71.0447 63.6713 71.124 63.2887 71.124 62.878V62.654ZM84.1804 58.86C84.1804 58.3467 84.0077 57.9407 83.6624 57.642C83.3264 57.334 82.8224 57.18 82.1504 57.18H79.3784V60.526H82.1924C82.827 60.526 83.317 60.3767 83.6624 60.078C84.0077 59.7793 84.1804 59.3733 84.1804 58.86ZM78.2584 66V56.2H82.2484C82.939 56.2 83.5084 56.3167 83.9564 56.55C84.4044 56.7833 84.7357 57.0913 84.9504 57.474C85.1744 57.8473 85.2864 58.2627 85.2864 58.72C85.2864 59.168 85.2024 59.546 85.0344 59.854C84.8757 60.1527 84.6564 60.3907 84.3764 60.568C84.1057 60.7453 83.807 60.8667 83.4804 60.932V61.03C83.8724 61.086 84.2224 61.212 84.5304 61.408C84.8384 61.5947 85.081 61.8513 85.2584 62.178C85.4357 62.5047 85.5244 62.9013 85.5244 63.368C85.5244 63.8533 85.403 64.2967 85.1604 64.698C84.9177 65.0993 84.5584 65.4167 84.0824 65.65C83.6157 65.8833 83.0417 66 82.3604 66H78.2584ZM79.3784 65.02H82.2764C82.9484 65.02 83.471 64.8707 83.8444 64.572C84.227 64.264 84.4184 63.8253 84.4184 63.256C84.4184 62.6867 84.2177 62.2527 83.8164 61.954C83.4244 61.6553 82.897 61.506 82.2344 61.506H79.3784V65.02ZM90.4125 66.098C89.7499 66.098 89.1572 65.9533 88.6345 65.664C88.1119 65.3747 87.7012 64.964 87.4025 64.432C87.1039 63.8907 86.9545 63.2513 86.9545 62.514C86.9545 61.7673 87.1039 61.1233 87.4025 60.582C87.7105 60.0407 88.1259 59.6253 88.6485 59.336C89.1805 59.0467 89.7779 58.902 90.4405 58.902C91.1032 58.902 91.6959 59.0467 92.2185 59.336C92.7505 59.6253 93.1659 60.0407 93.4645 60.582C93.7725 61.114 93.9265 61.7487 93.9265 62.486C93.9265 63.2327 93.7725 63.8767 93.4645 64.418C93.1565 64.9593 92.7365 65.3747 92.2045 65.664C91.6725 65.9533 91.0752 66.098 90.4125 66.098ZM90.3985 65.104C90.8092 65.104 91.1965 65.0153 91.5605 64.838C91.9245 64.6513 92.2185 64.3667 92.4425 63.984C92.6759 63.592 92.7925 63.0973 92.7925 62.5C92.7925 61.8933 92.6805 61.3987 92.4565 61.016C92.2325 60.6333 91.9385 60.3533 91.5745 60.176C91.2199 59.9893 90.8372 59.896 90.4265 59.896C90.0159 59.896 89.6332 59.9893 89.2785 60.176C88.9239 60.3533 88.6345 60.638 88.4105 61.03C88.1959 61.4127 88.0885 61.9027 88.0885 62.5C88.0885 63.1067 88.1959 63.6013 88.4105 63.984C88.6252 64.3667 88.9052 64.6513 89.2505 64.838C89.6052 65.0153 89.9879 65.104 90.3985 65.104ZM95.6464 59H96.6124L96.6684 59.994C96.8924 59.6487 97.1864 59.3827 97.5504 59.196C97.9144 59 98.339 58.902 98.8244 58.902C99.3564 58.902 99.823 59.0187 100.224 59.252C100.626 59.476 100.938 59.8167 101.162 60.274C101.386 60.722 101.498 61.2867 101.498 61.968V66H100.448V62.094C100.448 61.366 100.29 60.8153 99.9724 60.442C99.6644 60.0593 99.2164 59.868 98.6284 59.868C98.0217 59.868 97.5457 60.0687 97.2004 60.47C96.8644 60.8713 96.6964 61.464 96.6964 62.248V66H95.6464V59ZM109.261 66H108.309L108.239 64.992C108.024 65.3467 107.735 65.622 107.371 65.818C107.007 66.0047 106.582 66.098 106.097 66.098C105.556 66.098 105.084 65.986 104.683 65.762C104.282 65.538 103.969 65.202 103.745 64.754C103.53 64.306 103.423 63.7413 103.423 63.06V59H104.459V62.948C104.459 63.6667 104.613 64.2127 104.921 64.586C105.238 64.95 105.691 65.132 106.279 65.132C106.876 65.132 107.348 64.9407 107.693 64.558C108.048 64.166 108.225 63.578 108.225 62.794V59H109.261V66ZM111.97 63.858C112.026 64.138 112.129 64.3713 112.278 64.558C112.428 64.7353 112.619 64.8707 112.852 64.964C113.095 65.0573 113.375 65.104 113.692 65.104C114.187 65.104 114.56 65.0107 114.812 64.824C115.074 64.628 115.204 64.3853 115.204 64.096C115.204 63.8533 115.125 63.6573 114.966 63.508C114.817 63.3587 114.616 63.2373 114.364 63.144C114.112 63.0413 113.832 62.9527 113.524 62.878C113.282 62.822 113.02 62.7567 112.74 62.682C112.46 62.598 112.194 62.486 111.942 62.346C111.69 62.206 111.485 62.024 111.326 61.8C111.168 61.576 111.088 61.282 111.088 60.918C111.088 60.5167 111.196 60.1667 111.41 59.868C111.634 59.56 111.938 59.322 112.32 59.154C112.712 58.986 113.16 58.902 113.664 58.902C114.243 58.902 114.756 59.028 115.204 59.28C115.662 59.532 115.979 59.924 116.156 60.456L115.176 60.792C115.111 60.5493 114.99 60.3627 114.812 60.232C114.644 60.1013 114.453 60.0127 114.238 59.966C114.033 59.9193 113.828 59.896 113.622 59.896C113.202 59.896 112.862 59.98 112.6 60.148C112.348 60.3067 112.222 60.5493 112.222 60.876C112.222 61.0533 112.264 61.2027 112.348 61.324C112.432 61.436 112.549 61.5293 112.698 61.604C112.848 61.6787 113.025 61.744 113.23 61.8C113.436 61.8467 113.66 61.9027 113.902 61.968C114.173 62.0333 114.448 62.1173 114.728 62.22C115.008 62.3133 115.27 62.4393 115.512 62.598C115.755 62.7473 115.951 62.9433 116.1 63.186C116.259 63.4193 116.338 63.7133 116.338 64.068C116.338 64.4787 116.226 64.838 116.002 65.146C115.778 65.4447 115.466 65.678 115.064 65.846C114.672 66.014 114.215 66.098 113.692 66.098C112.974 66.098 112.376 65.9393 111.9 65.622C111.434 65.2953 111.121 64.8193 110.962 64.194L111.97 63.858ZM124.989 66.098C124.326 66.098 123.733 65.9533 123.211 65.664C122.688 65.3747 122.277 64.964 121.979 64.432C121.68 63.8907 121.531 63.2513 121.531 62.514C121.531 61.7673 121.68 61.1233 121.979 60.582C122.287 60.0407 122.702 59.6253 123.225 59.336C123.757 59.0467 124.354 58.902 125.017 58.902C125.679 58.902 126.272 59.0467 126.795 59.336C127.327 59.6253 127.742 60.0407 128.041 60.582C128.349 61.114 128.503 61.7487 128.503 62.486C128.503 63.2327 128.349 63.8767 128.041 64.418C127.733 64.9593 127.313 65.3747 126.781 65.664C126.249 65.9533 125.651 66.098 124.989 66.098ZM124.975 65.104C125.385 65.104 125.773 65.0153 126.137 64.838C126.501 64.6513 126.795 64.3667 127.019 63.984C127.252 63.592 127.369 63.0973 127.369 62.5C127.369 61.8933 127.257 61.3987 127.033 61.016C126.809 60.6333 126.515 60.3533 126.151 60.176C125.796 59.9893 125.413 59.896 125.003 59.896C124.592 59.896 124.209 59.9893 123.855 60.176C123.5 60.3533 123.211 60.638 122.987 61.03C122.772 61.4127 122.665 61.9027 122.665 62.5C122.665 63.1067 122.772 63.6013 122.987 63.984C123.201 64.3667 123.481 64.6513 123.827 64.838C124.181 65.0153 124.564 65.104 124.975 65.104ZM130.223 59H131.189L131.245 59.994C131.469 59.6487 131.763 59.3827 132.127 59.196C132.491 59 132.915 58.902 133.401 58.902C133.933 58.902 134.399 59.0187 134.801 59.252C135.202 59.476 135.515 59.8167 135.739 60.274C135.963 60.722 136.075 61.2867 136.075 61.968V66H135.025V62.094C135.025 61.366 134.866 60.8153 134.549 60.442C134.241 60.0593 133.793 59.868 133.205 59.868C132.598 59.868 132.122 60.0687 131.777 60.47C131.441 60.8713 131.273 61.464 131.273 62.248V66H130.223V59ZM148.069 58.86C148.069 58.3467 147.896 57.9407 147.551 57.642C147.215 57.334 146.711 57.18 146.039 57.18H143.267V60.526H146.081C146.716 60.526 147.206 60.3767 147.551 60.078C147.896 59.7793 148.069 59.3733 148.069 58.86ZM142.147 66V56.2H146.137C146.828 56.2 147.397 56.3167 147.845 56.55C148.293 56.7833 148.624 57.0913 148.839 57.474C149.063 57.8473 149.175 58.2627 149.175 58.72C149.175 59.168 149.091 59.546 148.923 59.854C148.764 60.1527 148.545 60.3907 148.265 60.568C147.994 60.7453 147.696 60.8667 147.369 60.932V61.03C147.761 61.086 148.111 61.212 148.419 61.408C148.727 61.5947 148.97 61.8513 149.147 62.178C149.324 62.5047 149.413 62.9013 149.413 63.368C149.413 63.8533 149.292 64.2967 149.049 64.698C148.806 65.0993 148.447 65.4167 147.971 65.65C147.504 65.8833 146.93 66 146.249 66H142.147ZM143.267 65.02H146.165C146.837 65.02 147.36 64.8707 147.733 64.572C148.116 64.264 148.307 63.8253 148.307 63.256C148.307 62.6867 148.106 62.2527 147.705 61.954C147.313 61.6553 146.786 61.506 146.123 61.506H143.267V65.02ZM4.97 77.53V84.67H3.934V77.53H4.97ZM0.896 80.624H8.022V81.576H0.896V80.624ZM13.6222 85.16L16.6042 82.402C17.1829 81.87 17.6402 81.4127 17.9762 81.03C18.3122 80.6473 18.5502 80.2927 18.6902 79.966C18.8396 79.6393 18.9142 79.2987 18.9142 78.944C18.9142 78.3933 18.7509 77.95 18.4242 77.614C18.0976 77.2687 17.5982 77.096 16.9262 77.096C16.4689 77.096 16.0816 77.194 15.7642 77.39C15.4469 77.586 15.2042 77.8567 15.0362 78.202C14.8682 78.5473 14.7796 78.9533 14.7702 79.42H13.6922C13.7109 78.692 13.8602 78.0853 14.1402 77.6C14.4296 77.1053 14.8169 76.732 15.3022 76.48C15.7876 76.228 16.3289 76.102 16.9262 76.102C17.5796 76.102 18.1396 76.2233 18.6062 76.466C19.0729 76.6993 19.4276 77.0307 19.6702 77.46C19.9222 77.88 20.0482 78.3747 20.0482 78.944C20.0482 79.364 19.9689 79.77 19.8102 80.162C19.6516 80.554 19.3809 80.9787 18.9982 81.436C18.6249 81.884 18.1116 82.4113 17.4582 83.018L15.3022 85.02H20.3282V86H13.6222V85.16ZM21.9464 78.146C21.9464 77.5113 22.1331 77.012 22.5064 76.648C22.8891 76.284 23.3698 76.102 23.9484 76.102C24.5178 76.102 24.9938 76.284 25.3764 76.648C25.7591 77.012 25.9504 77.5113 25.9504 78.146C25.9504 78.7807 25.7591 79.2847 25.3764 79.658C24.9938 80.022 24.5178 80.204 23.9484 80.204C23.3698 80.204 22.8891 80.022 22.5064 79.658C22.1331 79.2847 21.9464 78.7807 21.9464 78.146ZM23.9484 76.802C23.6124 76.802 23.3418 76.9187 23.1364 77.152C22.9404 77.376 22.8424 77.7073 22.8424 78.146C22.8424 78.5847 22.9404 78.9207 23.1364 79.154C23.3418 79.3873 23.6124 79.504 23.9484 79.504C24.2751 79.504 24.5411 79.3873 24.7464 79.154C24.9518 78.9207 25.0544 78.5847 25.0544 78.146C25.0544 77.7073 24.9518 77.376 24.7464 77.152C24.5411 76.9187 24.2751 76.802 23.9484 76.802ZM28.8344 76.2H29.9404L24.2284 86H23.1224L28.8344 76.2ZM27.1404 84.054C27.1404 83.4193 27.3271 82.92 27.7004 82.556C28.0831 82.1827 28.5591 81.996 29.1284 81.996C29.6978 81.996 30.1738 82.1827 30.5564 82.556C30.9391 82.92 31.1304 83.4193 31.1304 84.054C31.1304 84.6793 30.9391 85.1787 30.5564 85.552C30.1738 85.916 29.6978 86.098 29.1284 86.098C28.5591 86.098 28.0831 85.916 27.7004 85.552C27.3271 85.1787 27.1404 84.6793 27.1404 84.054ZM29.1284 82.71C28.8018 82.71 28.5358 82.8267 28.3304 83.06C28.1251 83.284 28.0224 83.6153 28.0224 84.054C28.0224 84.4833 28.1251 84.8147 28.3304 85.048C28.5358 85.272 28.8018 85.384 29.1284 85.384C29.4551 85.384 29.7211 85.272 29.9264 85.048C30.1318 84.8147 30.2344 84.4833 30.2344 84.054C30.2344 83.6153 30.1318 83.284 29.9264 83.06C29.7211 82.8267 29.4551 82.71 29.1284 82.71ZM43.3816 77.18H38.0756V80.526H42.0656V81.506H38.0756V85.02H43.3816V86H36.9556V76.2H43.3816V77.18ZM44.7309 79H45.9349L47.7269 81.674L49.5189 79H50.7369L48.3149 82.486L50.7369 86H49.5189L47.7269 83.298L45.9349 86H44.7309L47.1529 82.486L44.7309 79ZM52.6998 79V77.04H53.7498V79H55.6118V79.98H53.7498V83.746C53.7498 84.1753 53.8385 84.488 54.0158 84.684C54.2025 84.88 54.4358 84.9967 54.7158 85.034C55.0052 85.0713 55.3038 85.0713 55.6118 85.034V85.944C55.2478 86.028 54.8885 86.0513 54.5338 86.014C54.1885 85.9767 53.8758 85.874 53.5958 85.706C53.3252 85.5287 53.1058 85.2813 52.9378 84.964C52.7792 84.6467 52.6998 84.2407 52.6998 83.746V79.98H51.6498V79H52.6998ZM57.1737 79H58.1397L58.1957 80.022C58.3824 79.77 58.6064 79.5553 58.8677 79.378C59.1384 79.2007 59.4324 79.0793 59.7497 79.014C60.0764 78.9393 60.4217 78.9347 60.7857 79V80.05C60.3937 79.9753 60.039 79.9753 59.7217 80.05C59.4137 80.1247 59.1477 80.2647 58.9237 80.47C58.6997 80.6753 58.527 80.9367 58.4057 81.254C58.2844 81.562 58.2237 81.9213 58.2237 82.332V86H57.1737V79ZM66.6006 86L66.5166 84.74C66.3206 85.1693 66.0313 85.5053 65.6486 85.748C65.266 85.9813 64.7806 86.098 64.1926 86.098C63.6886 86.098 63.2593 86.0187 62.9046 85.86C62.55 85.7013 62.2746 85.4773 62.0786 85.188C61.892 84.8893 61.7986 84.5393 61.7986 84.138C61.7986 83.55 62.018 83.0693 62.4566 82.696C62.8953 82.3133 63.53 82.08 64.3606 81.996L66.5166 81.758V81.198C66.5166 80.806 66.372 80.4933 66.0826 80.26C65.7933 80.0173 65.4013 79.896 64.9066 79.896C64.4213 79.896 64.0153 80.008 63.6886 80.232C63.3713 80.456 63.152 80.778 63.0306 81.198L62.0786 80.862C62.2653 80.246 62.606 79.7653 63.1006 79.42C63.6046 79.0747 64.216 78.902 64.9346 78.902C65.7653 78.902 66.4093 79.1167 66.8666 79.546C67.3333 79.966 67.5666 80.54 67.5666 81.268V86H66.6006ZM66.5166 82.654L64.3466 82.906C63.88 82.962 63.5253 83.0927 63.2826 83.298C63.04 83.494 62.9186 83.7553 62.9186 84.082C62.9186 84.4087 63.0353 84.67 63.2686 84.866C63.5113 85.062 63.8566 85.16 64.3046 85.16C64.818 85.16 65.238 85.0573 65.5646 84.852C65.8913 84.6467 66.1293 84.3713 66.2786 84.026C66.4373 83.6713 66.5166 83.2887 66.5166 82.878V82.654ZM79.5729 78.86C79.5729 78.3467 79.4003 77.9407 79.0549 77.642C78.7189 77.334 78.2149 77.18 77.5429 77.18H74.7709V80.526H77.5849C78.2196 80.526 78.7096 80.3767 79.0549 80.078C79.4003 79.7793 79.5729 79.3733 79.5729 78.86ZM73.6509 86V76.2H77.6409C78.3316 76.2 78.9009 76.3167 79.3489 76.55C79.7969 76.7833 80.1283 77.0913 80.3429 77.474C80.5669 77.8473 80.6789 78.2627 80.6789 78.72C80.6789 79.168 80.5949 79.546 80.4269 79.854C80.2683 80.1527 80.0489 80.3907 79.7689 80.568C79.4983 80.7453 79.1996 80.8667 78.8729 80.932V81.03C79.2649 81.086 79.6149 81.212 79.9229 81.408C80.2309 81.5947 80.4736 81.8513 80.6509 82.178C80.8283 82.5047 80.9169 82.9013 80.9169 83.368C80.9169 83.8533 80.7956 84.2967 80.5529 84.698C80.3103 85.0993 79.9509 85.4167 79.4749 85.65C79.0083 85.8833 78.4343 86 77.7529 86H73.6509ZM74.7709 85.02H77.6689C78.3409 85.02 78.8636 84.8707 79.2369 84.572C79.6196 84.264 79.8109 83.8253 79.8109 83.256C79.8109 82.6867 79.6103 82.2527 79.2089 81.954C78.8169 81.6553 78.2896 81.506 77.6269 81.506H74.7709V85.02ZM85.8051 86.098C85.1425 86.098 84.5498 85.9533 84.0271 85.664C83.5045 85.3747 83.0938 84.964 82.7951 84.432C82.4965 83.8907 82.3471 83.2513 82.3471 82.514C82.3471 81.7673 82.4965 81.1233 82.7951 80.582C83.1031 80.0407 83.5185 79.6253 84.0411 79.336C84.5731 79.0467 85.1705 78.902 85.8331 78.902C86.4958 78.902 87.0885 79.0467 87.6111 79.336C88.1431 79.6253 88.5585 80.0407 88.8571 80.582C89.1651 81.114 89.3191 81.7487 89.3191 82.486C89.3191 83.2327 89.1651 83.8767 88.8571 84.418C88.5491 84.9593 88.1291 85.3747 87.5971 85.664C87.0651 85.9533 86.4678 86.098 85.8051 86.098ZM85.7911 85.104C86.2018 85.104 86.5891 85.0153 86.9531 84.838C87.3171 84.6513 87.6111 84.3667 87.8351 83.984C88.0685 83.592 88.1851 83.0973 88.1851 82.5C88.1851 81.8933 88.0731 81.3987 87.8491 81.016C87.6251 80.6333 87.3311 80.3533 86.9671 80.176C86.6125 79.9893 86.2298 79.896 85.8191 79.896C85.4085 79.896 85.0258 79.9893 84.6711 80.176C84.3165 80.3533 84.0271 80.638 83.8031 81.03C83.5885 81.4127 83.4811 81.9027 83.4811 82.5C83.4811 83.1067 83.5885 83.6013 83.8031 83.984C84.0178 84.3667 84.2978 84.6513 84.6431 84.838C84.9978 85.0153 85.3805 85.104 85.7911 85.104ZM91.0389 79H92.0049L92.0609 79.994C92.2849 79.6487 92.5789 79.3827 92.9429 79.196C93.3069 79 93.7316 78.902 94.2169 78.902C94.7489 78.902 95.2156 79.0187 95.6169 79.252C96.0183 79.476 96.3309 79.8167 96.5549 80.274C96.7789 80.722 96.8909 81.2867 96.8909 81.968V86H95.8409V82.094C95.8409 81.366 95.6823 80.8153 95.3649 80.442C95.0569 80.0593 94.6089 79.868 94.0209 79.868C93.4143 79.868 92.9383 80.0687 92.5929 80.47C92.2569 80.8713 92.0889 81.464 92.0889 82.248V86H91.0389V79ZM104.654 86H103.702L103.632 84.992C103.417 85.3467 103.128 85.622 102.764 85.818C102.4 86.0047 101.975 86.098 101.49 86.098C100.948 86.098 100.477 85.986 100.076 85.762C99.6743 85.538 99.3616 85.202 99.1376 84.754C98.9229 84.306 98.8156 83.7413 98.8156 83.06V79H99.8516V82.948C99.8516 83.6667 100.006 84.2127 100.314 84.586C100.631 84.95 101.084 85.132 101.672 85.132C102.269 85.132 102.74 84.9407 103.086 84.558C103.44 84.166 103.618 83.578 103.618 82.794V79H104.654V86ZM107.363 83.858C107.419 84.138 107.522 84.3713 107.671 84.558C107.82 84.7353 108.012 84.8707 108.245 84.964C108.488 85.0573 108.768 85.104 109.085 85.104C109.58 85.104 109.953 85.0107 110.205 84.824C110.466 84.628 110.597 84.3853 110.597 84.096C110.597 83.8533 110.518 83.6573 110.359 83.508C110.21 83.3587 110.009 83.2373 109.757 83.144C109.505 83.0413 109.225 82.9527 108.917 82.878C108.674 82.822 108.413 82.7567 108.133 82.682C107.853 82.598 107.587 82.486 107.335 82.346C107.083 82.206 106.878 82.024 106.719 81.8C106.56 81.576 106.481 81.282 106.481 80.918C106.481 80.5167 106.588 80.1667 106.803 79.868C107.027 79.56 107.33 79.322 107.713 79.154C108.105 78.986 108.553 78.902 109.057 78.902C109.636 78.902 110.149 79.028 110.597 79.28C111.054 79.532 111.372 79.924 111.549 80.456L110.569 80.792C110.504 80.5493 110.382 80.3627 110.205 80.232C110.037 80.1013 109.846 80.0127 109.631 79.966C109.426 79.9193 109.22 79.896 109.015 79.896C108.595 79.896 108.254 79.98 107.993 80.148C107.741 80.3067 107.615 80.5493 107.615 80.876C107.615 81.0533 107.657 81.2027 107.741 81.324C107.825 81.436 107.942 81.5293 108.091 81.604C108.24 81.6787 108.418 81.744 108.623 81.8C108.828 81.8467 109.052 81.9027 109.295 81.968C109.566 82.0333 109.841 82.1173 110.121 82.22C110.401 82.3133 110.662 82.4393 110.905 82.598C111.148 82.7473 111.344 82.9433 111.493 83.186C111.652 83.4193 111.731 83.7133 111.731 84.068C111.731 84.4787 111.619 84.838 111.395 85.146C111.171 85.4447 110.858 85.678 110.457 85.846C110.065 86.014 109.608 86.098 109.085 86.098C108.366 86.098 107.769 85.9393 107.293 85.622C106.826 85.2953 106.514 84.8193 106.355 84.194L107.363 83.858ZM120.381 86.098C119.719 86.098 119.126 85.9533 118.603 85.664C118.081 85.3747 117.67 84.964 117.371 84.432C117.073 83.8907 116.923 83.2513 116.923 82.514C116.923 81.7673 117.073 81.1233 117.371 80.582C117.679 80.0407 118.095 79.6253 118.617 79.336C119.149 79.0467 119.747 78.902 120.409 78.902C121.072 78.902 121.665 79.0467 122.187 79.336C122.719 79.6253 123.135 80.0407 123.433 80.582C123.741 81.114 123.895 81.7487 123.895 82.486C123.895 83.2327 123.741 83.8767 123.433 84.418C123.125 84.9593 122.705 85.3747 122.173 85.664C121.641 85.9533 121.044 86.098 120.381 86.098ZM120.367 85.104C120.778 85.104 121.165 85.0153 121.529 84.838C121.893 84.6513 122.187 84.3667 122.411 83.984C122.645 83.592 122.761 83.0973 122.761 82.5C122.761 81.8933 122.649 81.3987 122.425 81.016C122.201 80.6333 121.907 80.3533 121.543 80.176C121.189 79.9893 120.806 79.896 120.395 79.896C119.985 79.896 119.602 79.9893 119.247 80.176C118.893 80.3533 118.603 80.638 118.379 81.03C118.165 81.4127 118.057 81.9027 118.057 82.5C118.057 83.1067 118.165 83.6013 118.379 83.984C118.594 84.3667 118.874 84.6513 119.219 84.838C119.574 85.0153 119.957 85.104 120.367 85.104ZM125.615 79H126.581L126.637 79.994C126.861 79.6487 127.155 79.3827 127.519 79.196C127.883 79 128.308 78.902 128.793 78.902C129.325 78.902 129.792 79.0187 130.193 79.252C130.594 79.476 130.907 79.8167 131.131 80.274C131.355 80.722 131.467 81.2867 131.467 81.968V86H130.417V82.094C130.417 81.366 130.258 80.8153 129.941 80.442C129.633 80.0593 129.185 79.868 128.597 79.868C127.99 79.868 127.514 80.0687 127.169 80.47C126.833 80.8713 126.665 81.464 126.665 82.248V86H125.615V79ZM136.952 81.1C136.952 80.3627 137.073 79.6907 137.316 79.084C137.558 78.468 137.899 77.9407 138.338 77.502C138.786 77.054 139.299 76.7087 139.878 76.466C140.466 76.2233 141.105 76.102 141.796 76.102C142.804 76.102 143.686 76.3353 144.442 76.802C145.207 77.2687 145.786 77.9313 146.178 78.79L145.268 79.126C145.053 78.6687 144.768 78.2953 144.414 78.006C144.059 77.7073 143.658 77.4833 143.21 77.334C142.762 77.1847 142.29 77.11 141.796 77.11C141.096 77.11 140.466 77.2687 139.906 77.586C139.346 77.9033 138.902 78.3607 138.576 78.958C138.258 79.5553 138.1 80.2693 138.1 81.1C138.1 81.9213 138.258 82.6307 138.576 83.228C138.902 83.8253 139.346 84.2873 139.906 84.614C140.466 84.9313 141.096 85.09 141.796 85.09C142.3 85.09 142.78 85.0107 143.238 84.852C143.695 84.6933 144.106 84.446 144.47 84.11C144.843 83.774 145.142 83.354 145.366 82.85L146.276 83.186C145.874 84.1473 145.286 84.8753 144.512 85.37C143.737 85.8553 142.832 86.098 141.796 86.098C141.105 86.098 140.466 85.9767 139.878 85.734C139.299 85.4913 138.786 85.146 138.338 84.698C137.899 84.25 137.558 83.7227 137.316 83.116C137.073 82.5 136.952 81.828 136.952 81.1ZM4.97 97.53V104.67H3.934V97.53H4.97ZM0.896 100.624H8.022V101.576H0.896V100.624ZM19.9362 98.86C19.9362 98.3467 19.7636 97.9407 19.4182 97.642C19.0822 97.334 18.5782 97.18 17.9062 97.18H15.1342V100.526H17.9482C18.5829 100.526 19.0729 100.377 19.4182 100.078C19.7636 99.7793 19.9362 99.3733 19.9362 98.86ZM14.0142 106V96.2H18.0042C18.6949 96.2 19.2642 96.3167 19.7122 96.55C20.1602 96.7833 20.4916 97.0913 20.7062 97.474C20.9302 97.8473 21.0422 98.2627 21.0422 98.72C21.0422 99.168 20.9582 99.546 20.7902 99.854C20.6316 100.153 20.4122 100.391 20.1322 100.568C19.8616 100.745 19.5629 100.867 19.2362 100.932V101.03C19.6282 101.086 19.9782 101.212 20.2862 101.408C20.5942 101.595 20.8369 101.851 21.0142 102.178C21.1916 102.505 21.2802 102.901 21.2802 103.368C21.2802 103.853 21.1589 104.297 20.9162 104.698C20.6736 105.099 20.3142 105.417 19.8382 105.65C19.3716 105.883 18.7976 106 18.1162 106H14.0142ZM15.1342 105.02H18.0322C18.7042 105.02 19.2269 104.871 19.6002 104.572C19.9829 104.264 20.1742 103.825 20.1742 103.256C20.1742 102.687 19.9736 102.253 19.5722 101.954C19.1802 101.655 18.6529 101.506 17.9902 101.506H15.1342V105.02ZM26.1684 106.098C25.5057 106.098 24.9131 105.953 24.3904 105.664C23.8677 105.375 23.4571 104.964 23.1584 104.432C22.8597 103.891 22.7104 103.251 22.7104 102.514C22.7104 101.767 22.8597 101.123 23.1584 100.582C23.4664 100.041 23.8817 99.6253 24.4044 99.336C24.9364 99.0467 25.5337 98.902 26.1964 98.902C26.8591 98.902 27.4517 99.0467 27.9744 99.336C28.5064 99.6253 28.9217 100.041 29.2204 100.582C29.5284 101.114 29.6824 101.749 29.6824 102.486C29.6824 103.233 29.5284 103.877 29.2204 104.418C28.9124 104.959 28.4924 105.375 27.9604 105.664C27.4284 105.953 26.8311 106.098 26.1684 106.098ZM26.1544 105.104C26.5651 105.104 26.9524 105.015 27.3164 104.838C27.6804 104.651 27.9744 104.367 28.1984 103.984C28.4317 103.592 28.5484 103.097 28.5484 102.5C28.5484 101.893 28.4364 101.399 28.2124 101.016C27.9884 100.633 27.6944 100.353 27.3304 100.176C26.9757 99.9893 26.5931 99.896 26.1824 99.896C25.7717 99.896 25.3891 99.9893 25.0344 100.176C24.6797 100.353 24.3904 100.638 24.1664 101.03C23.9517 101.413 23.8444 101.903 23.8444 102.5C23.8444 103.107 23.9517 103.601 24.1664 103.984C24.3811 104.367 24.6611 104.651 25.0064 104.838C25.3611 105.015 25.7437 105.104 26.1544 105.104ZM31.4022 99H32.3682L32.4242 99.994C32.6482 99.6487 32.9422 99.3827 33.3062 99.196C33.6702 99 34.0949 98.902 34.5802 98.902C35.1122 98.902 35.5789 99.0187 35.9802 99.252C36.3816 99.476 36.6942 99.8167 36.9182 100.274C37.1422 100.722 37.2542 101.287 37.2542 101.968V106H36.2042V102.094C36.2042 101.366 36.0456 100.815 35.7282 100.442C35.4202 100.059 34.9722 99.868 34.3842 99.868C33.7776 99.868 33.3016 100.069 32.9562 100.47C32.6202 100.871 32.4522 101.464 32.4522 102.248V106H31.4022V99ZM45.0169 106H44.0649L43.9949 104.992C43.7802 105.347 43.4909 105.622 43.1269 105.818C42.7629 106.005 42.3382 106.098 41.8529 106.098C41.3116 106.098 40.8402 105.986 40.4389 105.762C40.0376 105.538 39.7249 105.202 39.5009 104.754C39.2862 104.306 39.1789 103.741 39.1789 103.06V99H40.2149V102.948C40.2149 103.667 40.3689 104.213 40.6769 104.586C40.9942 104.95 41.4469 105.132 42.0349 105.132C42.6322 105.132 43.1036 104.941 43.4489 104.558C43.8036 104.166 43.9809 103.578 43.9809 102.794V99H45.0169V106ZM47.7262 103.858C47.7822 104.138 47.8849 104.371 48.0342 104.558C48.1836 104.735 48.3749 104.871 48.6082 104.964C48.8509 105.057 49.1309 105.104 49.4482 105.104C49.9429 105.104 50.3162 105.011 50.5682 104.824C50.8296 104.628 50.9602 104.385 50.9602 104.096C50.9602 103.853 50.8809 103.657 50.7222 103.508C50.5729 103.359 50.3722 103.237 50.1202 103.144C49.8682 103.041 49.5882 102.953 49.2802 102.878C49.0376 102.822 48.7762 102.757 48.4962 102.682C48.2162 102.598 47.9502 102.486 47.6982 102.346C47.4462 102.206 47.2409 102.024 47.0822 101.8C46.9236 101.576 46.8442 101.282 46.8442 100.918C46.8442 100.517 46.9516 100.167 47.1662 99.868C47.3902 99.56 47.6936 99.322 48.0762 99.154C48.4682 98.986 48.9162 98.902 49.4202 98.902C49.9989 98.902 50.5122 99.028 50.9602 99.28C51.4176 99.532 51.7349 99.924 51.9122 100.456L50.9322 100.792C50.8669 100.549 50.7456 100.363 50.5682 100.232C50.4002 100.101 50.2089 100.013 49.9942 99.966C49.7889 99.9193 49.5836 99.896 49.3782 99.896C48.9582 99.896 48.6176 99.98 48.3562 100.148C48.1042 100.307 47.9782 100.549 47.9782 100.876C47.9782 101.053 48.0202 101.203 48.1042 101.324C48.1882 101.436 48.3049 101.529 48.4542 101.604C48.6036 101.679 48.7809 101.744 48.9862 101.8C49.1916 101.847 49.4156 101.903 49.6582 101.968C49.9289 102.033 50.2042 102.117 50.4842 102.22C50.7642 102.313 51.0256 102.439 51.2682 102.598C51.5109 102.747 51.7069 102.943 51.8562 103.186C52.0149 103.419 52.0942 103.713 52.0942 104.068C52.0942 104.479 51.9822 104.838 51.7582 105.146C51.5342 105.445 51.2216 105.678 50.8202 105.846C50.4282 106.014 49.9709 106.098 49.4482 106.098C48.7296 106.098 48.1322 105.939 47.6562 105.622C47.1896 105.295 46.8769 104.819 46.7182 104.194L47.7262 103.858ZM60.7026 106.098C60.0212 106.098 59.4239 105.949 58.9106 105.65C58.3972 105.351 57.9959 104.936 57.7066 104.404C57.4266 103.863 57.2866 103.237 57.2866 102.528C57.2866 101.809 57.4266 101.179 57.7066 100.638C57.9959 100.087 58.3972 99.6627 58.9106 99.364C59.4239 99.056 60.0212 98.902 60.7026 98.902C61.4212 98.902 62.0512 99.07 62.5926 99.406C63.1339 99.7327 63.5259 100.19 63.7686 100.778L62.8026 101.114C62.6626 100.741 62.4059 100.447 62.0326 100.232C61.6686 100.008 61.2439 99.896 60.7586 99.896C60.2826 99.896 59.8672 100.003 59.5126 100.218C59.1672 100.433 58.8966 100.736 58.7006 101.128C58.5139 101.52 58.4206 101.982 58.4206 102.514C58.4206 103.298 58.6306 103.928 59.0506 104.404C59.4706 104.871 60.0306 105.104 60.7306 105.104C61.2066 105.104 61.6312 104.997 62.0046 104.782C62.3779 104.567 62.6532 104.278 62.8306 103.914L63.7826 104.25C63.5306 104.829 63.1339 105.281 62.5926 105.608C62.0512 105.935 61.4212 106.098 60.7026 106.098ZM68.5239 106.098C67.8612 106.098 67.2685 105.953 66.7459 105.664C66.2232 105.375 65.8125 104.964 65.5139 104.432C65.2152 103.891 65.0659 103.251 65.0659 102.514C65.0659 101.767 65.2152 101.123 65.5139 100.582C65.8219 100.041 66.2372 99.6253 66.7599 99.336C67.2919 99.0467 67.8892 98.902 68.5519 98.902C69.2145 98.902 69.8072 99.0467 70.3299 99.336C70.8619 99.6253 71.2772 100.041 71.5759 100.582C71.8839 101.114 72.0379 101.749 72.0379 102.486C72.0379 103.233 71.8839 103.877 71.5759 104.418C71.2679 104.959 70.8479 105.375 70.3159 105.664C69.7839 105.953 69.1865 106.098 68.5239 106.098ZM68.5099 105.104C68.9205 105.104 69.3079 105.015 69.6719 104.838C70.0359 104.651 70.3299 104.367 70.5539 103.984C70.7872 103.592 70.9039 103.097 70.9039 102.5C70.9039 101.893 70.7919 101.399 70.5679 101.016C70.3439 100.633 70.0499 100.353 69.6859 100.176C69.3312 99.9893 68.9485 99.896 68.5379 99.896C68.1272 99.896 67.7445 99.9893 67.3899 100.176C67.0352 100.353 66.7459 100.638 66.5219 101.03C66.3072 101.413 66.1999 101.903 66.1999 102.5C66.1999 103.107 66.3072 103.601 66.5219 103.984C66.7365 104.367 67.0165 104.651 67.3619 104.838C67.7165 105.015 68.0992 105.104 68.5099 105.104ZM73.7577 99H74.7237L74.7797 99.994C75.0037 99.6487 75.2977 99.3827 75.6617 99.196C76.0257 99 76.4504 98.902 76.9357 98.902C77.4677 98.902 77.9344 99.0187 78.3357 99.252C78.737 99.476 79.0497 99.8167 79.2737 100.274C79.4977 100.722 79.6097 101.287 79.6097 101.968V106H78.5597V102.094C78.5597 101.366 78.401 100.815 78.0837 100.442C77.7757 100.059 77.3277 99.868 76.7397 99.868C76.133 99.868 75.657 100.069 75.3117 100.47C74.9757 100.871 74.8077 101.464 74.8077 102.248V106H73.7577V99ZM82.0944 99V97.04H83.1444V99H85.0064V99.98H83.1444V103.746C83.1444 104.175 83.233 104.488 83.4104 104.684C83.597 104.88 83.8304 104.997 84.1104 105.034C84.3997 105.071 84.6984 105.071 85.0064 105.034V105.944C84.6424 106.028 84.283 106.051 83.9284 106.014C83.583 105.977 83.2704 105.874 82.9904 105.706C82.7197 105.529 82.5004 105.281 82.3324 104.964C82.1737 104.647 82.0944 104.241 82.0944 103.746V99.98H81.0444V99H82.0944ZM86.7782 99H87.8142V106H86.7782V99ZM87.3102 97.6C87.0956 97.6 86.9182 97.53 86.7782 97.39C86.6382 97.25 86.5682 97.0773 86.5682 96.872C86.5682 96.6573 86.6382 96.48 86.7782 96.34C86.9182 96.2 87.0956 96.13 87.3102 96.13C87.5062 96.13 87.6742 96.2 87.8142 96.34C87.9636 96.48 88.0382 96.6573 88.0382 96.872C88.0382 97.0773 87.9636 97.25 87.8142 97.39C87.6742 97.53 87.5062 97.6 87.3102 97.6ZM90.1776 99H91.1436L91.1996 99.994C91.4236 99.6487 91.7176 99.3827 92.0816 99.196C92.4456 99 92.8703 98.902 93.3556 98.902C93.8876 98.902 94.3543 99.0187 94.7556 99.252C95.1569 99.476 95.4696 99.8167 95.6936 100.274C95.9176 100.722 96.0296 101.287 96.0296 101.968V106H94.9796V102.094C94.9796 101.366 94.8209 100.815 94.5036 100.442C94.1956 100.059 93.7476 99.868 93.1596 99.868C92.5529 99.868 92.0769 100.069 91.7316 100.47C91.3956 100.871 91.2276 101.464 91.2276 102.248V106H90.1776V99ZM103.792 106H102.84L102.77 104.992C102.556 105.347 102.266 105.622 101.902 105.818C101.538 106.005 101.114 106.098 100.628 106.098C100.087 106.098 99.6156 105.986 99.2143 105.762C98.8129 105.538 98.5003 105.202 98.2763 104.754C98.0616 104.306 97.9543 103.741 97.9543 103.06V99H98.9903V102.948C98.9903 103.667 99.1443 104.213 99.4523 104.586C99.7696 104.95 100.222 105.132 100.81 105.132C101.408 105.132 101.879 104.941 102.224 104.558C102.579 104.166 102.756 103.578 102.756 102.794V99H103.792V106ZM108.868 106.098C108.214 106.098 107.631 105.939 107.118 105.622C106.614 105.305 106.217 104.871 105.928 104.32C105.638 103.769 105.494 103.139 105.494 102.43C105.494 101.749 105.638 101.142 105.928 100.61C106.217 100.078 106.614 99.6627 107.118 99.364C107.622 99.056 108.196 98.902 108.84 98.902C109.474 98.902 110.039 99.042 110.534 99.322C111.038 99.602 111.43 99.9893 111.71 100.484C111.99 100.979 112.12 101.543 112.102 102.178C112.102 102.281 112.097 102.388 112.088 102.5C112.078 102.612 112.069 102.733 112.06 102.864H106.642C106.66 103.303 106.768 103.69 106.964 104.026C107.16 104.362 107.416 104.628 107.734 104.824C108.06 105.011 108.429 105.104 108.84 105.104C109.381 105.104 109.838 105.001 110.212 104.796C110.594 104.591 110.87 104.297 111.038 103.914L111.948 104.278C111.668 104.866 111.262 105.319 110.73 105.636C110.198 105.944 109.577 106.098 108.868 106.098ZM110.954 101.954C110.963 101.553 110.874 101.198 110.688 100.89C110.51 100.582 110.258 100.339 109.932 100.162C109.605 99.9847 109.227 99.896 108.798 99.896C108.424 99.896 108.084 99.9847 107.776 100.162C107.468 100.339 107.211 100.587 107.006 100.904C106.81 101.212 106.693 101.562 106.656 101.954H110.954ZM122.136 106L122.052 104.74C121.856 105.169 121.566 105.505 121.184 105.748C120.801 105.981 120.316 106.098 119.728 106.098C119.224 106.098 118.794 106.019 118.44 105.86C118.085 105.701 117.81 105.477 117.614 105.188C117.427 104.889 117.334 104.539 117.334 104.138C117.334 103.55 117.553 103.069 117.992 102.696C118.43 102.313 119.065 102.08 119.896 101.996L122.052 101.758V101.198C122.052 100.806 121.907 100.493 121.618 100.26C121.328 100.017 120.936 99.896 120.442 99.896C119.956 99.896 119.55 100.008 119.224 100.232C118.906 100.456 118.687 100.778 118.566 101.198L117.614 100.862C117.8 100.246 118.141 99.7653 118.636 99.42C119.14 99.0747 119.751 98.902 120.47 98.902C121.3 98.902 121.944 99.1167 122.402 99.546C122.868 99.966 123.102 100.54 123.102 101.268V106H122.136ZM122.052 102.654L119.882 102.906C119.415 102.962 119.06 103.093 118.818 103.298C118.575 103.494 118.454 103.755 118.454 104.082C118.454 104.409 118.57 104.67 118.804 104.866C119.046 105.062 119.392 105.16 119.84 105.16C120.353 105.16 120.773 105.057 121.1 104.852C121.426 104.647 121.664 104.371 121.814 104.026C121.972 103.671 122.052 103.289 122.052 102.878V102.654ZM125.598 99V97.04H126.648V99H128.51V99.98H126.648V103.746C126.648 104.175 126.737 104.488 126.914 104.684C127.101 104.88 127.334 104.997 127.614 105.034C127.904 105.071 128.202 105.071 128.51 105.034V105.944C128.146 106.028 127.787 106.051 127.432 106.014C127.087 105.977 126.774 105.874 126.494 105.706C126.224 105.529 126.004 105.281 125.836 104.964C125.678 104.647 125.598 104.241 125.598 103.746V99.98H124.548V99H125.598ZM133.996 95.92H135.046V106H133.996V95.92ZM141.564 106L141.48 104.74C141.284 105.169 140.994 105.505 140.612 105.748C140.229 105.981 139.744 106.098 139.156 106.098C138.652 106.098 138.222 106.019 137.868 105.86C137.513 105.701 137.238 105.477 137.042 105.188C136.855 104.889 136.762 104.539 136.762 104.138C136.762 103.55 136.981 103.069 137.42 102.696C137.858 102.313 138.493 102.08 139.324 101.996L141.48 101.758V101.198C141.48 100.806 141.335 100.493 141.046 100.26C140.756 100.017 140.364 99.896 139.87 99.896C139.384 99.896 138.978 100.008 138.652 100.232C138.334 100.456 138.115 100.778 137.994 101.198L137.042 100.862C137.228 100.246 137.569 99.7653 138.064 99.42C138.568 99.0747 139.179 98.902 139.898 98.902C140.728 98.902 141.372 99.1167 141.83 99.546C142.296 99.966 142.53 100.54 142.53 101.268V106H141.564ZM141.48 102.654L139.31 102.906C138.843 102.962 138.488 103.093 138.246 103.298C138.003 103.494 137.882 103.755 137.882 104.082C137.882 104.409 137.998 104.67 138.232 104.866C138.474 105.062 138.82 105.16 139.268 105.16C139.781 105.16 140.201 105.057 140.528 104.852C140.854 104.647 141.092 104.371 141.242 104.026C141.4 103.671 141.48 103.289 141.48 102.878V102.654ZM145.026 99V97.04H146.076V99H147.938V99.98H146.076V103.746C146.076 104.175 146.165 104.488 146.342 104.684C146.529 104.88 146.762 104.997 147.042 105.034C147.331 105.071 147.63 105.071 147.938 105.034V105.944C147.574 106.028 147.215 106.051 146.86 106.014C146.515 105.977 146.202 105.874 145.922 105.706C145.651 105.529 145.432 105.281 145.264 104.964C145.105 104.647 145.026 104.241 145.026 103.746V99.98H143.976V99H145.026ZM152.44 106.098C151.787 106.098 151.203 105.939 150.69 105.622C150.186 105.305 149.789 104.871 149.5 104.32C149.211 103.769 149.066 103.139 149.066 102.43C149.066 101.749 149.211 101.142 149.5 100.61C149.789 100.078 150.186 99.6627 150.69 99.364C151.194 99.056 151.768 98.902 152.412 98.902C153.047 98.902 153.611 99.042 154.106 99.322C154.61 99.602 155.002 99.9893 155.282 100.484C155.562 100.979 155.693 101.543 155.674 102.178C155.674 102.281 155.669 102.388 155.66 102.5C155.651 102.612 155.641 102.733 155.632 102.864H150.214C150.233 103.303 150.34 103.69 150.536 104.026C150.732 104.362 150.989 104.628 151.306 104.824C151.633 105.011 152.001 105.104 152.412 105.104C152.953 105.104 153.411 105.001 153.784 104.796C154.167 104.591 154.442 104.297 154.61 103.914L155.52 104.278C155.24 104.866 154.834 105.319 154.302 105.636C153.77 105.944 153.149 106.098 152.44 106.098ZM154.526 101.954C154.535 101.553 154.447 101.198 154.26 100.89C154.083 100.582 153.831 100.339 153.504 100.162C153.177 99.9847 152.799 99.896 152.37 99.896C151.997 99.896 151.656 99.9847 151.348 100.162C151.04 100.339 150.783 100.587 150.578 100.904C150.382 101.212 150.265 101.562 150.228 101.954H154.526ZM157.402 99H158.368L158.424 100.022C158.611 99.77 158.835 99.5553 159.096 99.378C159.367 99.2007 159.661 99.0793 159.978 99.014C160.305 98.9393 160.65 98.9347 161.014 99V100.05C160.622 99.9753 160.268 99.9753 159.95 100.05C159.642 100.125 159.376 100.265 159.152 100.47C158.928 100.675 158.756 100.937 158.634 101.254C158.513 101.562 158.452 101.921 158.452 102.332V106H157.402V99ZM163.021 103.858C163.077 104.138 163.18 104.371 163.329 104.558C163.478 104.735 163.67 104.871 163.903 104.964C164.146 105.057 164.426 105.104 164.743 105.104C165.238 105.104 165.611 105.011 165.863 104.824C166.124 104.628 166.255 104.385 166.255 104.096C166.255 103.853 166.176 103.657 166.017 103.508C165.868 103.359 165.667 103.237 165.415 103.144C165.163 103.041 164.883 102.953 164.575 102.878C164.332 102.822 164.071 102.757 163.791 102.682C163.511 102.598 163.245 102.486 162.993 102.346C162.741 102.206 162.536 102.024 162.377 101.8C162.218 101.576 162.139 101.282 162.139 100.918C162.139 100.517 162.246 100.167 162.461 99.868C162.685 99.56 162.988 99.322 163.371 99.154C163.763 98.986 164.211 98.902 164.715 98.902C165.294 98.902 165.807 99.028 166.255 99.28C166.712 99.532 167.03 99.924 167.207 100.456L166.227 100.792C166.162 100.549 166.04 100.363 165.863 100.232C165.695 100.101 165.504 100.013 165.289 99.966C165.084 99.9193 164.878 99.896 164.673 99.896C164.253 99.896 163.912 99.98 163.651 100.148C163.399 100.307 163.273 100.549 163.273 100.876C163.273 101.053 163.315 101.203 163.399 101.324C163.483 101.436 163.6 101.529 163.749 101.604C163.898 101.679 164.076 101.744 164.281 101.8C164.486 101.847 164.71 101.903 164.953 101.968C165.224 102.033 165.499 102.117 165.779 102.22C166.059 102.313 166.32 102.439 166.563 102.598C166.806 102.747 167.002 102.943 167.151 103.186C167.31 103.419 167.389 103.713 167.389 104.068C167.389 104.479 167.277 104.838 167.053 105.146C166.829 105.445 166.516 105.678 166.115 105.846C165.723 106.014 165.266 106.098 164.743 106.098C164.024 106.098 163.427 105.939 162.951 105.622C162.484 105.295 162.172 104.819 162.013 104.194L163.021 103.858ZM169.54 99V97.04H170.59V99H172.452V99.98H170.59V103.746C170.59 104.175 170.678 104.488 170.856 104.684C171.042 104.88 171.276 104.997 171.556 105.034C171.845 105.071 172.144 105.071 172.452 105.034V105.944C172.088 106.028 171.728 106.051 171.374 106.014C171.028 105.977 170.716 105.874 170.436 105.706C170.165 105.529 169.946 105.281 169.778 104.964C169.619 104.647 169.54 104.241 169.54 103.746V99.98H168.49V99H169.54ZM178.396 106L178.312 104.74C178.116 105.169 177.826 105.505 177.444 105.748C177.061 105.981 176.576 106.098 175.988 106.098C175.484 106.098 175.054 106.019 174.7 105.86C174.345 105.701 174.07 105.477 173.874 105.188C173.687 104.889 173.594 104.539 173.594 104.138C173.594 103.55 173.813 103.069 174.252 102.696C174.69 102.313 175.325 102.08 176.156 101.996L178.312 101.758V101.198C178.312 100.806 178.167 100.493 177.878 100.26C177.588 100.017 177.196 99.896 176.702 99.896C176.216 99.896 175.81 100.008 175.484 100.232C175.166 100.456 174.947 100.778 174.826 101.198L173.874 100.862C174.06 100.246 174.401 99.7653 174.896 99.42C175.4 99.0747 176.011 98.902 176.73 98.902C177.56 98.902 178.204 99.1167 178.662 99.546C179.128 99.966 179.362 100.54 179.362 101.268V106H178.396ZM178.312 102.654L176.142 102.906C175.675 102.962 175.32 103.093 175.078 103.298C174.835 103.494 174.714 103.755 174.714 104.082C174.714 104.409 174.83 104.67 175.064 104.866C175.306 105.062 175.652 105.16 176.1 105.16C176.613 105.16 177.033 105.057 177.36 104.852C177.686 104.647 177.924 104.371 178.074 104.026C178.232 103.671 178.312 103.289 178.312 102.878V102.654ZM186.786 99H187.752V104.712C187.752 105.571 187.561 106.303 187.178 106.91C186.795 107.526 186.24 107.993 185.512 108.31C184.784 108.637 183.897 108.8 182.852 108.8L182.684 107.834C184 107.815 184.999 107.54 185.68 107.008C186.361 106.485 186.702 105.72 186.702 104.712V104.558L186.814 104.586C186.599 104.997 186.277 105.351 185.848 105.65C185.419 105.939 184.863 106.089 184.182 106.098C183.538 106.098 182.973 105.953 182.488 105.664C182.012 105.365 181.639 104.945 181.368 104.404C181.107 103.863 180.976 103.228 180.976 102.5C180.976 101.772 181.107 101.142 181.368 100.61C181.639 100.069 182.012 99.6487 182.488 99.35C182.973 99.0513 183.538 98.902 184.182 98.902C184.602 98.902 184.975 98.9673 185.302 99.098C185.629 99.2193 185.909 99.3873 186.142 99.602C186.375 99.8073 186.567 100.041 186.716 100.302L186.786 99ZM182.11 102.5C182.11 103.303 182.315 103.942 182.726 104.418C183.146 104.885 183.711 105.118 184.42 105.118C184.849 105.118 185.237 105.015 185.582 104.81C185.927 104.605 186.198 104.306 186.394 103.914C186.599 103.522 186.702 103.051 186.702 102.5C186.702 101.949 186.599 101.483 186.394 101.1C186.198 100.708 185.927 100.409 185.582 100.204C185.237 99.9893 184.849 99.882 184.42 99.882C183.72 99.882 183.16 100.12 182.74 100.596C182.32 101.072 182.11 101.707 182.11 102.5ZM192.84 106.098C192.187 106.098 191.604 105.939 191.09 105.622C190.586 105.305 190.19 104.871 189.9 104.32C189.611 103.769 189.466 103.139 189.466 102.43C189.466 101.749 189.611 101.142 189.9 100.61C190.19 100.078 190.586 99.6627 191.09 99.364C191.594 99.056 192.168 98.902 192.812 98.902C193.447 98.902 194.012 99.042 194.506 99.322C195.01 99.602 195.402 99.9893 195.682 100.484C195.962 100.979 196.093 101.543 196.074 102.178C196.074 102.281 196.07 102.388 196.06 102.5C196.051 102.612 196.042 102.733 196.032 102.864H190.614C190.633 103.303 190.74 103.69 190.936 104.026C191.132 104.362 191.389 104.628 191.706 104.824C192.033 105.011 192.402 105.104 192.812 105.104C193.354 105.104 193.811 105.001 194.184 104.796C194.567 104.591 194.842 104.297 195.01 103.914L195.92 104.278C195.64 104.866 195.234 105.319 194.702 105.636C194.17 105.944 193.55 106.098 192.84 106.098ZM194.926 101.954C194.936 101.553 194.847 101.198 194.66 100.89C194.483 100.582 194.231 100.339 193.904 100.162C193.578 99.9847 193.2 99.896 192.77 99.896C192.397 99.896 192.056 99.9847 191.748 100.162C191.44 100.339 191.184 100.587 190.978 100.904C190.782 101.212 190.666 101.562 190.628 101.954H194.926ZM198.377 103.858C198.433 104.138 198.535 104.371 198.685 104.558C198.834 104.735 199.025 104.871 199.259 104.964C199.501 105.057 199.781 105.104 200.099 105.104C200.593 105.104 200.967 105.011 201.219 104.824C201.48 104.628 201.611 104.385 201.611 104.096C201.611 103.853 201.531 103.657 201.373 103.508C201.223 103.359 201.023 103.237 200.771 103.144C200.519 103.041 200.239 102.953 199.931 102.878C199.688 102.822 199.427 102.757 199.147 102.682C198.867 102.598 198.601 102.486 198.349 102.346C198.097 102.206 197.891 102.024 197.733 101.8C197.574 101.576 197.495 101.282 197.495 100.918C197.495 100.517 197.602 100.167 197.817 99.868C198.041 99.56 198.344 99.322 198.727 99.154C199.119 98.986 199.567 98.902 200.071 98.902C200.649 98.902 201.163 99.028 201.611 99.28C202.068 99.532 202.385 99.924 202.563 100.456L201.583 100.792C201.517 100.549 201.396 100.363 201.219 100.232C201.051 100.101 200.859 100.013 200.645 99.966C200.439 99.9193 200.234 99.896 200.029 99.896C199.609 99.896 199.268 99.98 199.007 100.148C198.755 100.307 198.629 100.549 198.629 100.876C198.629 101.053 198.671 101.203 198.755 101.324C198.839 101.436 198.955 101.529 199.105 101.604C199.254 101.679 199.431 101.744 199.637 101.8C199.842 101.847 200.066 101.903 200.309 101.968C200.579 102.033 200.855 102.117 201.135 102.22C201.415 102.313 201.676 102.439 201.919 102.598C202.161 102.747 202.357 102.943 202.507 103.186C202.665 103.419 202.745 103.713 202.745 104.068C202.745 104.479 202.633 104.838 202.409 105.146C202.185 105.445 201.872 105.678 201.471 105.846C201.079 106.014 200.621 106.098 200.099 106.098C199.38 106.098 198.783 105.939 198.307 105.622C197.84 105.295 197.527 104.819 197.369 104.194L198.377 103.858Z" fill="white" fill-opacity="0.7"/>
<circle cx="324" cy="20" r="19.6571" fill="white" fill-opacity="0.8" stroke="#585858" stroke-width="0.685871"/>
<path d="M326.088 19.3413C326.628 19.4267 327.119 19.6471 327.56 20.0027C328.015 20.3582 328.371 20.7991 328.627 21.3253C328.897 21.8516 329.032 22.4133 329.032 23.0107C329.032 23.7644 328.84 24.4471 328.456 25.0587C328.072 25.656 327.51 26.1324 326.771 26.488C326.045 26.8293 325.185 27 324.189 27H318.643V12.1307H323.976C324.986 12.1307 325.846 12.3013 326.557 12.6427C327.268 12.9698 327.802 13.4178 328.157 13.9867C328.513 14.5556 328.691 15.1956 328.691 15.9067C328.691 16.7884 328.449 17.5209 327.965 18.104C327.496 18.6729 326.87 19.0853 326.088 19.3413ZM320.584 18.552H323.848C324.758 18.552 325.462 18.3387 325.96 17.912C326.458 17.4853 326.707 16.8951 326.707 16.1413C326.707 15.3876 326.458 14.7973 325.96 14.3707C325.462 13.944 324.744 13.7307 323.805 13.7307H320.584V18.552ZM324.019 25.4C324.986 25.4 325.74 25.1724 326.28 24.7173C326.82 24.2622 327.091 23.6293 327.091 22.8187C327.091 21.9938 326.806 21.3467 326.237 20.8773C325.668 20.3938 324.908 20.152 323.955 20.152H320.584V25.4H324.019Z" fill="black"/>
<path d="M304.016 55.8H305.92L309.12 61.336L312.256 55.8H314.176L309.248 64.632H308.976L304.016 55.8ZM308.192 62.28H310.064V67H308.192V62.28ZM318.336 58.44C319.211 58.44 319.979 58.6213 320.64 58.984C321.312 59.3467 321.835 59.8533 322.208 60.504C322.581 61.144 322.768 61.8907 322.768 62.744C322.768 63.5973 322.581 64.3493 322.208 65C321.835 65.6507 321.312 66.1573 320.64 66.52C319.979 66.8827 319.211 67.064 318.336 67.064C317.461 67.064 316.688 66.8827 316.016 66.52C315.344 66.1573 314.821 65.6507 314.448 65C314.075 64.3493 313.888 63.5973 313.888 62.744C313.888 61.8907 314.075 61.144 314.448 60.504C314.821 59.8533 315.344 59.3467 316.016 58.984C316.688 58.6213 317.461 58.44 318.336 58.44ZM318.336 59.928C317.824 59.928 317.371 60.0507 316.976 60.296C316.581 60.5307 316.272 60.8613 316.048 61.288C315.835 61.7147 315.728 62.2053 315.728 62.76C315.728 63.3253 315.835 63.8213 316.048 64.248C316.272 64.6747 316.581 65.0107 316.976 65.256C317.371 65.4907 317.824 65.608 318.336 65.608C318.848 65.608 319.296 65.4907 319.68 65.256C320.075 65.0107 320.379 64.6747 320.592 64.248C320.816 63.8213 320.928 63.3253 320.928 62.76C320.928 62.2053 320.816 61.7147 320.592 61.288C320.379 60.8613 320.075 60.5307 319.68 60.296C319.296 60.0507 318.848 59.928 318.336 59.928ZM326.256 63.304C326.256 63.9653 326.432 64.488 326.784 64.872C327.136 65.2453 327.621 65.432 328.24 65.432C328.976 65.4107 329.547 65.1387 329.952 64.616C330.368 64.0933 330.576 63.448 330.576 62.68H331.072C331.072 63.7253 330.928 64.568 330.64 65.208C330.352 65.848 329.941 66.3173 329.408 66.616C328.885 66.904 328.261 67.0533 327.536 67.064C326.885 67.064 326.325 66.9307 325.856 66.664C325.397 66.3973 325.04 66.0187 324.784 65.528C324.539 65.0373 324.416 64.456 324.416 63.784V58.504H326.256V63.304ZM330.576 58.504H332.416V67H330.576V58.504ZM339.925 60.104C339.317 60.072 338.789 60.1787 338.341 60.424C337.904 60.6587 337.563 60.9893 337.317 61.416C337.083 61.8427 336.965 62.3333 336.965 62.888L336.453 62.824C336.453 61.8747 336.592 61.0747 336.869 60.424C337.147 59.7733 337.547 59.2827 338.069 58.952C338.592 58.6107 339.211 58.44 339.925 58.44V60.104ZM335.141 58.504H336.981V67H335.141V58.504ZM344.535 55.8H353.511V57.416H349.959V67H348.071V57.416H344.535V55.8ZM355.016 58.504H356.84V67H355.016V58.504ZM355.928 55C356.238 55 356.494 55.1013 356.696 55.304C356.899 55.5067 357 55.7627 357 56.072C357 56.3707 356.899 56.6267 356.696 56.84C356.494 57.0427 356.238 57.144 355.928 57.144C355.63 57.144 355.374 57.0427 355.16 56.84C354.958 56.6267 354.856 56.3707 354.856 56.072C354.856 55.7627 354.958 55.5067 355.16 55.304C355.374 55.1013 355.63 55 355.928 55ZM365.451 62.136C365.43 61.656 365.318 61.2507 365.115 60.92C364.923 60.5787 364.651 60.3173 364.299 60.136C363.947 59.944 363.542 59.848 363.083 59.848C362.571 59.848 362.123 59.9653 361.739 60.2C361.366 60.4347 361.072 60.7653 360.859 61.192C360.646 61.608 360.539 62.0987 360.539 62.664C360.539 63.272 360.651 63.8 360.875 64.248C361.11 64.696 361.43 65.0427 361.835 65.288C362.251 65.5333 362.726 65.656 363.259 65.656C364.208 65.656 365.008 65.32 365.659 64.648L366.635 65.624C366.219 66.0827 365.712 66.44 365.115 66.696C364.518 66.9413 363.851 67.064 363.115 67.064C362.24 67.064 361.478 66.8827 360.827 66.52C360.176 66.1573 359.67 65.656 359.307 65.016C358.944 64.3653 358.763 63.6133 358.763 62.76C358.763 61.9067 358.944 61.16 359.307 60.52C359.67 59.8693 360.176 59.3627 360.827 59C361.478 58.6373 362.224 58.4507 363.067 58.44C364.07 58.44 364.875 58.648 365.483 59.064C366.091 59.4693 366.523 60.0453 366.779 60.792C367.035 61.5387 367.126 62.424 367.051 63.448H360.251V62.136H365.451ZM373.753 60.104C373.145 60.072 372.617 60.1787 372.169 60.424C371.732 60.6587 371.391 60.9893 371.145 61.416C370.911 61.8427 370.793 62.3333 370.793 62.888L370.281 62.824C370.281 61.8747 370.42 61.0747 370.697 60.424C370.975 59.7733 371.375 59.2827 371.897 58.952C372.42 58.6107 373.039 58.44 373.753 58.44V60.104ZM368.969 58.504H370.809V67H368.969V58.504ZM374.882 61.528H378.818V62.744H374.882V61.528ZM379.893 55.8H384.197V67H382.309V56.568L383.141 57.4H379.893V55.8ZM396.125 55.8C397.565 55.8 398.675 56.136 399.453 56.808C400.243 57.4693 400.637 58.4027 400.637 59.608C400.637 60.8667 400.243 61.848 399.453 62.552C398.675 63.2453 397.565 63.592 396.125 63.592H393.469V67H391.581V55.8H396.125ZM396.125 61.976C396.989 61.976 397.656 61.7893 398.125 61.416C398.605 61.032 398.845 60.4453 398.845 59.656C398.845 58.8987 398.605 58.3387 398.125 57.976C397.656 57.6027 396.989 57.416 396.125 57.416H393.469V61.976H396.125ZM396.189 62.856H398.045L400.829 67H398.685L396.189 62.856ZM408.92 62.136C408.899 61.656 408.787 61.2507 408.584 60.92C408.392 60.5787 408.12 60.3173 407.768 60.136C407.416 59.944 407.011 59.848 406.552 59.848C406.04 59.848 405.592 59.9653 405.208 60.2C404.835 60.4347 404.541 60.7653 404.328 61.192C404.115 61.608 404.008 62.0987 404.008 62.664C404.008 63.272 404.12 63.8 404.344 64.248C404.579 64.696 404.899 65.0427 405.304 65.288C405.72 65.5333 406.195 65.656 406.728 65.656C407.677 65.656 408.477 65.32 409.128 64.648L410.104 65.624C409.688 66.0827 409.181 66.44 408.584 66.696C407.987 66.9413 407.32 67.064 406.584 67.064C405.709 67.064 404.947 66.8827 404.296 66.52C403.645 66.1573 403.139 65.656 402.776 65.016C402.413 64.3653 402.232 63.6133 402.232 62.76C402.232 61.9067 402.413 61.16 402.776 60.52C403.139 59.8693 403.645 59.3627 404.296 59C404.947 58.6373 405.693 58.4507 406.536 58.44C407.539 58.44 408.344 58.648 408.952 59.064C409.56 59.4693 409.992 60.0453 410.248 60.792C410.504 61.5387 410.595 62.424 410.52 63.448H403.72V62.136H408.92ZM412.712 57.976C412.712 57.304 412.851 56.7547 413.128 56.328C413.416 55.8907 413.784 55.5707 414.232 55.368C414.68 55.1547 415.149 55.048 415.64 55.048C415.896 55.048 416.152 55.0853 416.408 55.16C416.675 55.224 416.92 55.3147 417.144 55.432L416.76 56.84C416.611 56.776 416.44 56.7173 416.248 56.664C416.067 56.6 415.88 56.568 415.688 56.568C415.485 56.568 415.293 56.6107 415.112 56.696C414.941 56.7707 414.803 56.8987 414.696 57.08C414.589 57.2507 414.536 57.4747 414.536 57.752V67H412.712V57.976ZM411.592 58.808H416.76V60.12H411.592V58.808ZM423.779 62.136C423.758 61.656 423.646 61.2507 423.443 60.92C423.251 60.5787 422.979 60.3173 422.627 60.136C422.275 59.944 421.87 59.848 421.411 59.848C420.899 59.848 420.451 59.9653 420.067 60.2C419.694 60.4347 419.401 60.7653 419.187 61.192C418.974 61.608 418.867 62.0987 418.867 62.664C418.867 63.272 418.979 63.8 419.203 64.248C419.438 64.696 419.758 65.0427 420.163 65.288C420.579 65.5333 421.054 65.656 421.587 65.656C422.537 65.656 423.337 65.32 423.987 64.648L424.963 65.624C424.547 66.0827 424.041 66.44 423.443 66.696C422.846 66.9413 422.179 67.064 421.443 67.064C420.569 67.064 419.806 66.8827 419.155 66.52C418.505 66.1573 417.998 65.656 417.635 65.016C417.273 64.3653 417.091 63.6133 417.091 62.76C417.091 61.9067 417.273 61.16 417.635 60.52C417.998 59.8693 418.505 59.3627 419.155 59C419.806 58.6373 420.553 58.4507 421.395 58.44C422.398 58.44 423.203 58.648 423.811 59.064C424.419 59.4693 424.851 60.0453 425.107 60.792C425.363 61.5387 425.454 62.424 425.379 63.448H418.579V62.136H423.779ZM432.082 60.104C431.474 60.072 430.946 60.1787 430.498 60.424C430.06 60.6587 429.719 60.9893 429.474 61.416C429.239 61.8427 429.122 62.3333 429.122 62.888L428.61 62.824C428.61 61.8747 428.748 61.0747 429.026 60.424C429.303 59.7733 429.703 59.2827 430.226 58.952C430.748 58.6107 431.367 58.44 432.082 58.44V60.104ZM427.298 58.504H429.138V67H427.298V58.504ZM438.378 60.104C437.77 60.072 437.242 60.1787 436.794 60.424C436.357 60.6587 436.016 60.9893 435.77 61.416C435.536 61.8427 435.418 62.3333 435.418 62.888L434.906 62.824C434.906 61.8747 435.045 61.0747 435.322 60.424C435.6 59.7733 436 59.2827 436.522 58.952C437.045 58.6107 437.664 58.44 438.378 58.44V60.104ZM433.594 58.504H435.434V67H433.594V58.504ZM442.332 63.208C441.734 63.208 441.292 63.2987 441.004 63.48C440.716 63.6613 440.572 63.96 440.572 64.376C440.572 64.7707 440.716 65.0853 441.004 65.32C441.302 65.5547 441.708 65.672 442.22 65.672C442.678 65.672 443.089 65.592 443.452 65.432C443.814 65.272 444.102 65.0587 444.316 64.792C444.529 64.5147 444.641 64.2053 444.652 63.864L445.004 65.416C444.737 65.9707 444.332 66.3867 443.788 66.664C443.244 66.9413 442.593 67.08 441.836 67.08C441.228 67.08 440.7 66.9627 440.252 66.728C439.804 66.4933 439.457 66.1787 439.212 65.784C438.966 65.3787 438.844 64.9307 438.844 64.44C438.844 63.672 439.121 63.0587 439.676 62.6C440.241 62.1413 441.036 61.9067 442.06 61.896H444.876V63.208H442.332ZM444.636 61.608C444.636 61.0533 444.465 60.6213 444.124 60.312C443.782 60.0027 443.276 59.848 442.604 59.848C442.198 59.848 441.782 59.9227 441.356 60.072C440.94 60.2213 440.518 60.44 440.092 60.728L439.34 59.544C439.734 59.2987 440.108 59.096 440.46 58.936C440.812 58.776 441.185 58.6533 441.58 58.568C441.985 58.4827 442.46 58.44 443.004 58.44C444.102 58.44 444.945 58.7067 445.532 59.24C446.129 59.7627 446.433 60.488 446.444 61.416L446.46 67H444.652L444.636 61.608ZM449.003 55.128H450.843V67H449.003V55.128Z" fill="white"/>
<path d="M308.97 84.53V91.67H307.934V84.53H308.97ZM304.896 87.624H312.022V88.576H304.896V87.624ZM317.622 92.16L320.604 89.402C321.183 88.87 321.64 88.4127 321.976 88.03C322.312 87.6473 322.55 87.2927 322.69 86.966C322.84 86.6393 322.914 86.2987 322.914 85.944C322.914 85.3933 322.751 84.95 322.424 84.614C322.098 84.2687 321.598 84.096 320.926 84.096C320.469 84.096 320.082 84.194 319.764 84.39C319.447 84.586 319.204 84.8567 319.036 85.202C318.868 85.5473 318.78 85.9533 318.77 86.42H317.692C317.711 85.692 317.86 85.0853 318.14 84.6C318.43 84.1053 318.817 83.732 319.302 83.48C319.788 83.228 320.329 83.102 320.926 83.102C321.58 83.102 322.14 83.2233 322.606 83.466C323.073 83.6993 323.428 84.0307 323.67 84.46C323.922 84.88 324.048 85.3747 324.048 85.944C324.048 86.364 323.969 86.77 323.81 87.162C323.652 87.554 323.381 87.9787 322.998 88.436C322.625 88.884 322.112 89.4113 321.458 90.018L319.302 92.02H324.328V93H317.622V92.16ZM326.184 88.1C326.184 87.3813 326.236 86.7187 326.338 86.112C326.441 85.496 326.618 84.964 326.87 84.516C327.122 84.068 327.472 83.7227 327.92 83.48C328.378 83.228 328.952 83.102 329.642 83.102C330.333 83.102 330.902 83.228 331.35 83.48C331.798 83.7227 332.148 84.068 332.4 84.516C332.652 84.964 332.83 85.496 332.932 86.112C333.035 86.7187 333.086 87.3813 333.086 88.1C333.086 88.828 333.035 89.5 332.932 90.116C332.83 90.7227 332.652 91.25 332.4 91.698C332.148 92.146 331.798 92.4913 331.35 92.734C330.902 92.9767 330.333 93.098 329.642 93.098C328.952 93.098 328.378 92.9767 327.92 92.734C327.472 92.4913 327.122 92.146 326.87 91.698C326.618 91.25 326.441 90.7227 326.338 90.116C326.236 89.5 326.184 88.828 326.184 88.1ZM331.952 88.1C331.952 87.5493 331.924 87.036 331.868 86.56C331.822 86.0747 331.724 85.65 331.574 85.286C331.425 84.9127 331.196 84.6233 330.888 84.418C330.58 84.2033 330.165 84.096 329.642 84.096C329.129 84.096 328.714 84.2033 328.396 84.418C328.088 84.6233 327.855 84.9127 327.696 85.286C327.547 85.65 327.444 86.0747 327.388 86.56C327.342 87.036 327.318 87.5493 327.318 88.1C327.318 88.6693 327.342 89.1967 327.388 89.682C327.444 90.1673 327.547 90.592 327.696 90.956C327.855 91.32 328.088 91.6047 328.396 91.81C328.714 92.006 329.129 92.104 329.642 92.104C330.165 92.104 330.58 92.006 330.888 91.81C331.196 91.6047 331.425 91.32 331.574 90.956C331.724 90.592 331.822 90.1673 331.868 89.682C331.924 89.1967 331.952 88.6693 331.952 88.1ZM334.751 85.146C334.751 84.5113 334.938 84.012 335.311 83.648C335.694 83.284 336.174 83.102 336.753 83.102C337.322 83.102 337.798 83.284 338.181 83.648C338.564 84.012 338.755 84.5113 338.755 85.146C338.755 85.7807 338.564 86.2847 338.181 86.658C337.798 87.022 337.322 87.204 336.753 87.204C336.174 87.204 335.694 87.022 335.311 86.658C334.938 86.2847 334.751 85.7807 334.751 85.146ZM336.753 83.802C336.417 83.802 336.146 83.9187 335.941 84.152C335.745 84.376 335.647 84.7073 335.647 85.146C335.647 85.5847 335.745 85.9207 335.941 86.154C336.146 86.3873 336.417 86.504 336.753 86.504C337.08 86.504 337.346 86.3873 337.551 86.154C337.756 85.9207 337.859 85.5847 337.859 85.146C337.859 84.7073 337.756 84.376 337.551 84.152C337.346 83.9187 337.08 83.802 336.753 83.802ZM341.639 83.2H342.745L337.033 93H335.927L341.639 83.2ZM339.945 91.054C339.945 90.4193 340.132 89.92 340.505 89.556C340.888 89.1827 341.364 88.996 341.933 88.996C342.502 88.996 342.978 89.1827 343.361 89.556C343.744 89.92 343.935 90.4193 343.935 91.054C343.935 91.6793 343.744 92.1787 343.361 92.552C342.978 92.916 342.502 93.098 341.933 93.098C341.364 93.098 340.888 92.916 340.505 92.552C340.132 92.1787 339.945 91.6793 339.945 91.054ZM341.933 89.71C341.606 89.71 341.34 89.8267 341.135 90.06C340.93 90.284 340.827 90.6153 340.827 91.054C340.827 91.4833 340.93 91.8147 341.135 92.048C341.34 92.272 341.606 92.384 341.933 92.384C342.26 92.384 342.526 92.272 342.731 92.048C342.936 91.8147 343.039 91.4833 343.039 91.054C343.039 90.6153 342.936 90.284 342.731 90.06C342.526 89.8267 342.26 89.71 341.933 89.71ZM350.88 93H349.76V83.2H350.992L354.632 91.46L358.258 83.2H359.476V93H358.356V85.412L355.024 93H354.226L350.88 85.412V93ZM361.958 86H362.994V93H361.958V86ZM362.49 84.6C362.275 84.6 362.098 84.53 361.958 84.39C361.818 84.25 361.748 84.0773 361.748 83.872C361.748 83.6573 361.818 83.48 361.958 83.34C362.098 83.2 362.275 83.13 362.49 83.13C362.686 83.13 362.854 83.2 362.994 83.34C363.143 83.48 363.218 83.6573 363.218 83.872C363.218 84.0773 363.143 84.25 362.994 84.39C362.854 84.53 362.686 84.6 362.49 84.6ZM365.357 86H366.323L366.379 86.994C366.603 86.6487 366.897 86.3827 367.261 86.196C367.625 86 368.05 85.902 368.535 85.902C369.067 85.902 369.534 86.0187 369.935 86.252C370.337 86.476 370.649 86.8167 370.873 87.274C371.097 87.722 371.209 88.2867 371.209 88.968V93H370.159V89.094C370.159 88.366 370.001 87.8153 369.683 87.442C369.375 87.0593 368.927 86.868 368.339 86.868C367.733 86.868 367.257 87.0687 366.911 87.47C366.575 87.8713 366.407 88.464 366.407 89.248V93H365.357V86ZM373.456 86H374.492V93H373.456V86ZM373.988 84.6C373.773 84.6 373.596 84.53 373.456 84.39C373.316 84.25 373.246 84.0773 373.246 83.872C373.246 83.6573 373.316 83.48 373.456 83.34C373.596 83.2 373.773 83.13 373.988 83.13C374.184 83.13 374.352 83.2 374.492 83.34C374.641 83.48 374.716 83.6573 374.716 83.872C374.716 84.0773 374.641 84.25 374.492 84.39C374.352 84.53 374.184 84.6 373.988 84.6ZM376.855 86H377.821L377.877 86.994C378.101 86.6487 378.395 86.3827 378.759 86.196C379.123 86 379.548 85.902 380.033 85.902C380.565 85.902 381.032 86.0187 381.433 86.252C381.835 86.476 382.147 86.8167 382.371 87.274C382.595 87.722 382.707 88.2867 382.707 88.968V93H381.657V89.094C381.657 88.366 381.499 87.8153 381.181 87.442C380.873 87.0593 380.425 86.868 379.837 86.868C379.231 86.868 378.755 87.0687 378.409 87.47C378.073 87.8713 377.905 88.464 377.905 89.248V93H376.855V86ZM390.12 86H391.086V91.712C391.086 92.5707 390.895 93.3033 390.512 93.91C390.129 94.526 389.574 94.9927 388.846 95.31C388.118 95.6367 387.231 95.8 386.186 95.8L386.018 94.834C387.334 94.8153 388.333 94.54 389.014 94.008C389.695 93.4853 390.036 92.72 390.036 91.712V91.558L390.148 91.586C389.933 91.9967 389.611 92.3513 389.182 92.65C388.753 92.9393 388.197 93.0887 387.516 93.098C386.872 93.098 386.307 92.9533 385.822 92.664C385.346 92.3653 384.973 91.9453 384.702 91.404C384.441 90.8627 384.31 90.228 384.31 89.5C384.31 88.772 384.441 88.142 384.702 87.61C384.973 87.0687 385.346 86.6487 385.822 86.35C386.307 86.0513 386.872 85.902 387.516 85.902C387.936 85.902 388.309 85.9673 388.636 86.098C388.963 86.2193 389.243 86.3873 389.476 86.602C389.709 86.8073 389.901 87.0407 390.05 87.302L390.12 86ZM385.444 89.5C385.444 90.3027 385.649 90.942 386.06 91.418C386.48 91.8847 387.045 92.118 387.754 92.118C388.183 92.118 388.571 92.0153 388.916 91.81C389.261 91.6047 389.532 91.306 389.728 90.914C389.933 90.522 390.036 90.0507 390.036 89.5C390.036 88.9493 389.933 88.4827 389.728 88.1C389.532 87.708 389.261 87.4093 388.916 87.204C388.571 86.9893 388.183 86.882 387.754 86.882C387.054 86.882 386.494 87.12 386.074 87.596C385.654 88.072 385.444 88.7067 385.444 89.5ZM403.192 85.86C403.192 85.3467 403.019 84.9407 402.674 84.642C402.338 84.334 401.834 84.18 401.162 84.18H398.39V87.526H401.204C401.839 87.526 402.329 87.3767 402.674 87.078C403.019 86.7793 403.192 86.3733 403.192 85.86ZM397.27 93V83.2H401.26C401.951 83.2 402.52 83.3167 402.968 83.55C403.416 83.7833 403.747 84.0913 403.962 84.474C404.186 84.8473 404.298 85.2627 404.298 85.72C404.298 86.168 404.214 86.546 404.046 86.854C403.887 87.1527 403.668 87.3907 403.388 87.568C403.117 87.7453 402.819 87.8667 402.492 87.932V88.03C402.884 88.086 403.234 88.212 403.542 88.408C403.85 88.5947 404.093 88.8513 404.27 89.178C404.447 89.5047 404.536 89.9013 404.536 90.368C404.536 90.8533 404.415 91.2967 404.172 91.698C403.929 92.0993 403.57 92.4167 403.094 92.65C402.627 92.8833 402.053 93 401.372 93H397.27ZM398.39 92.02H401.288C401.96 92.02 402.483 91.8707 402.856 91.572C403.239 91.264 403.43 90.8253 403.43 90.256C403.43 89.6867 403.229 89.2527 402.828 88.954C402.436 88.6553 401.909 88.506 401.246 88.506H398.39V92.02ZM409.424 93.098C408.762 93.098 408.169 92.9533 407.646 92.664C407.124 92.3747 406.713 91.964 406.414 91.432C406.116 90.8907 405.966 90.2513 405.966 89.514C405.966 88.7673 406.116 88.1233 406.414 87.582C406.722 87.0407 407.138 86.6253 407.66 86.336C408.192 86.0467 408.79 85.902 409.452 85.902C410.115 85.902 410.708 86.0467 411.23 86.336C411.762 86.6253 412.178 87.0407 412.476 87.582C412.784 88.114 412.938 88.7487 412.938 89.486C412.938 90.2327 412.784 90.8767 412.476 91.418C412.168 91.9593 411.748 92.3747 411.216 92.664C410.684 92.9533 410.087 93.098 409.424 93.098ZM409.41 92.104C409.821 92.104 410.208 92.0153 410.572 91.838C410.936 91.6513 411.23 91.3667 411.454 90.984C411.688 90.592 411.804 90.0973 411.804 89.5C411.804 88.8933 411.692 88.3987 411.468 88.016C411.244 87.6333 410.95 87.3533 410.586 87.176C410.232 86.9893 409.849 86.896 409.438 86.896C409.028 86.896 408.645 86.9893 408.29 87.176C407.936 87.3533 407.646 87.638 407.422 88.03C407.208 88.4127 407.1 88.9027 407.1 89.5C407.1 90.1067 407.208 90.6013 407.422 90.984C407.637 91.3667 407.917 91.6513 408.262 91.838C408.617 92.0153 409 92.104 409.41 92.104ZM417.682 93.098C417.019 93.098 416.427 92.9533 415.904 92.664C415.381 92.3747 414.971 91.964 414.672 91.432C414.373 90.8907 414.224 90.2513 414.224 89.514C414.224 88.7673 414.373 88.1233 414.672 87.582C414.98 87.0407 415.395 86.6253 415.918 86.336C416.45 86.0467 417.047 85.902 417.71 85.902C418.373 85.902 418.965 86.0467 419.488 86.336C420.02 86.6253 420.435 87.0407 420.734 87.582C421.042 88.114 421.196 88.7487 421.196 89.486C421.196 90.2327 421.042 90.8767 420.734 91.418C420.426 91.9593 420.006 92.3747 419.474 92.664C418.942 92.9533 418.345 93.098 417.682 93.098ZM417.668 92.104C418.079 92.104 418.466 92.0153 418.83 91.838C419.194 91.6513 419.488 91.3667 419.712 90.984C419.945 90.592 420.062 90.0973 420.062 89.5C420.062 88.8933 419.95 88.3987 419.726 88.016C419.502 87.6333 419.208 87.3533 418.844 87.176C418.489 86.9893 418.107 86.896 417.696 86.896C417.285 86.896 416.903 86.9893 416.548 87.176C416.193 87.3533 415.904 87.638 415.68 88.03C415.465 88.4127 415.358 88.9027 415.358 89.5C415.358 90.1067 415.465 90.6013 415.68 90.984C415.895 91.3667 416.175 91.6513 416.52 91.838C416.875 92.0153 417.257 92.104 417.668 92.104ZM423.49 90.858C423.546 91.138 423.649 91.3713 423.798 91.558C423.947 91.7353 424.139 91.8707 424.372 91.964C424.615 92.0573 424.895 92.104 425.212 92.104C425.707 92.104 426.08 92.0107 426.332 91.824C426.593 91.628 426.724 91.3853 426.724 91.096C426.724 90.8533 426.645 90.6573 426.486 90.508C426.337 90.3587 426.136 90.2373 425.884 90.144C425.632 90.0413 425.352 89.9527 425.044 89.878C424.801 89.822 424.54 89.7567 424.26 89.682C423.98 89.598 423.714 89.486 423.462 89.346C423.21 89.206 423.005 89.024 422.846 88.8C422.687 88.576 422.608 88.282 422.608 87.918C422.608 87.5167 422.715 87.1667 422.93 86.868C423.154 86.56 423.457 86.322 423.84 86.154C424.232 85.986 424.68 85.902 425.184 85.902C425.763 85.902 426.276 86.028 426.724 86.28C427.181 86.532 427.499 86.924 427.676 87.456L426.696 87.792C426.631 87.5493 426.509 87.3627 426.332 87.232C426.164 87.1013 425.973 87.0127 425.758 86.966C425.553 86.9193 425.347 86.896 425.142 86.896C424.722 86.896 424.381 86.98 424.12 87.148C423.868 87.3067 423.742 87.5493 423.742 87.876C423.742 88.0533 423.784 88.2027 423.868 88.324C423.952 88.436 424.069 88.5293 424.218 88.604C424.367 88.6787 424.545 88.744 424.75 88.8C424.955 88.8467 425.179 88.9027 425.422 88.968C425.693 89.0333 425.968 89.1173 426.248 89.22C426.528 89.3133 426.789 89.4393 427.032 89.598C427.275 89.7473 427.471 89.9433 427.62 90.186C427.779 90.4193 427.858 90.7133 427.858 91.068C427.858 91.4787 427.746 91.838 427.522 92.146C427.298 92.4447 426.985 92.678 426.584 92.846C426.192 93.014 425.735 93.098 425.212 93.098C424.493 93.098 423.896 92.9393 423.42 92.622C422.953 92.2953 422.641 91.8193 422.482 91.194L423.49 90.858ZM430.008 86V84.04H431.058V86H432.92V86.98H431.058V90.746C431.058 91.1753 431.147 91.488 431.324 91.684C431.511 91.88 431.744 91.9967 432.024 92.034C432.314 92.0713 432.612 92.0713 432.92 92.034V92.944C432.556 93.028 432.197 93.0513 431.842 93.014C431.497 92.9767 431.184 92.874 430.904 92.706C430.634 92.5287 430.414 92.2813 430.246 91.964C430.088 91.6467 430.008 91.2407 430.008 90.746V86.98H428.958V86H430.008ZM438.784 85.174C438.784 84.6607 438.868 84.2267 439.036 83.872C439.204 83.5173 439.47 83.2607 439.834 83.102C440.207 82.934 440.702 82.8733 441.318 82.92V83.858C440.758 83.8113 440.371 83.9047 440.156 84.138C439.941 84.362 439.834 84.7073 439.834 85.174V86H441.374V86.98H439.834V93H438.784V86.98H437.804V86H438.784V85.174ZM445.969 93.098C445.307 93.098 444.714 92.9533 444.191 92.664C443.669 92.3747 443.258 91.964 442.959 91.432C442.661 90.8907 442.511 90.2513 442.511 89.514C442.511 88.7673 442.661 88.1233 442.959 87.582C443.267 87.0407 443.683 86.6253 444.205 86.336C444.737 86.0467 445.335 85.902 445.997 85.902C446.66 85.902 447.253 86.0467 447.775 86.336C448.307 86.6253 448.723 87.0407 449.021 87.582C449.329 88.114 449.483 88.7487 449.483 89.486C449.483 90.2327 449.329 90.8767 449.021 91.418C448.713 91.9593 448.293 92.3747 447.761 92.664C447.229 92.9533 446.632 93.098 445.969 93.098ZM445.955 92.104C446.366 92.104 446.753 92.0153 447.117 91.838C447.481 91.6513 447.775 91.3667 447.999 90.984C448.233 90.592 448.349 90.0973 448.349 89.5C448.349 88.8933 448.237 88.3987 448.013 88.016C447.789 87.6333 447.495 87.3533 447.131 87.176C446.777 86.9893 446.394 86.896 445.983 86.896C445.573 86.896 445.19 86.9893 444.835 87.176C444.481 87.3533 444.191 87.638 443.967 88.03C443.753 88.4127 443.645 88.9027 443.645 89.5C443.645 90.1067 443.753 90.6013 443.967 90.984C444.182 91.3667 444.462 91.6513 444.807 91.838C445.162 92.0153 445.545 92.104 445.955 92.104ZM451.203 86H452.169L452.225 87.022C452.412 86.77 452.636 86.5553 452.897 86.378C453.168 86.2007 453.462 86.0793 453.779 86.014C454.106 85.9393 454.451 85.9347 454.815 86V87.05C454.423 86.9753 454.068 86.9753 453.751 87.05C453.443 87.1247 453.177 87.2647 452.953 87.47C452.729 87.6753 452.556 87.9367 452.435 88.254C452.314 88.562 452.253 88.9213 452.253 89.332V93H451.203V86ZM461.068 84.18H459.696V83.2H462.188V93H461.068V84.18ZM469.211 90.676H463.975V89.836L468.987 83.2H470.331V89.696H471.759V90.676H470.331V93H469.211V90.676ZM469.239 89.696V84.39L465.263 89.696H469.239ZM482.953 87.414L482.841 87.428V82.92H483.891V93H482.925L482.855 91.698C482.64 92.09 482.318 92.4213 481.889 92.692C481.469 92.9627 480.946 93.098 480.321 93.098C479.677 93.098 479.112 92.9533 478.627 92.664C478.151 92.3653 477.777 91.9453 477.507 91.404C477.245 90.8627 477.115 90.228 477.115 89.5C477.115 88.772 477.245 88.142 477.507 87.61C477.777 87.0687 478.151 86.6487 478.627 86.35C479.112 86.0513 479.677 85.902 480.321 85.902C480.983 85.902 481.534 86.0467 481.973 86.336C482.411 86.6253 482.738 86.9847 482.953 87.414ZM478.249 89.5C478.249 90.3027 478.454 90.942 478.865 91.418C479.275 91.8847 479.835 92.118 480.545 92.118C480.983 92.118 481.375 92.0153 481.721 91.81C482.066 91.6047 482.337 91.306 482.533 90.914C482.738 90.522 482.841 90.0507 482.841 89.5C482.841 88.9493 482.738 88.4827 482.533 88.1C482.337 87.708 482.066 87.4093 481.721 87.204C481.375 86.9893 480.983 86.882 480.545 86.882C479.845 86.882 479.285 87.12 478.865 87.596C478.454 88.0627 478.249 88.6973 478.249 89.5ZM490.421 93L490.337 91.74C490.141 92.1693 489.852 92.5053 489.469 92.748C489.086 92.9813 488.601 93.098 488.013 93.098C487.509 93.098 487.08 93.0187 486.725 92.86C486.37 92.7013 486.095 92.4773 485.899 92.188C485.712 91.8893 485.619 91.5393 485.619 91.138C485.619 90.55 485.838 90.0693 486.277 89.696C486.716 89.3133 487.35 89.08 488.181 88.996L490.337 88.758V88.198C490.337 87.806 490.192 87.4933 489.903 87.26C489.614 87.0173 489.222 86.896 488.727 86.896C488.242 86.896 487.836 87.008 487.509 87.232C487.192 87.456 486.972 87.778 486.851 88.198L485.899 87.862C486.086 87.246 486.426 86.7653 486.921 86.42C487.425 86.0747 488.036 85.902 488.755 85.902C489.586 85.902 490.23 86.1167 490.687 86.546C491.154 86.966 491.387 87.54 491.387 88.268V93H490.421ZM490.337 89.654L488.167 89.906C487.7 89.962 487.346 90.0927 487.103 90.298C486.86 90.494 486.739 90.7553 486.739 91.082C486.739 91.4087 486.856 91.67 487.089 91.866C487.332 92.062 487.677 92.16 488.125 92.16C488.638 92.16 489.058 92.0573 489.385 91.852C489.712 91.6467 489.95 91.3713 490.099 91.026C490.258 90.6713 490.337 90.2887 490.337 89.878V89.654ZM498.181 86H499.273L495.269 95.8H494.261L495.451 92.902L492.623 86H493.771L496.011 91.656L498.181 86ZM501.187 90.858C501.243 91.138 501.346 91.3713 501.495 91.558C501.644 91.7353 501.836 91.8707 502.069 91.964C502.312 92.0573 502.592 92.104 502.909 92.104C503.404 92.104 503.777 92.0107 504.029 91.824C504.29 91.628 504.421 91.3853 504.421 91.096C504.421 90.8533 504.342 90.6573 504.183 90.508C504.034 90.3587 503.833 90.2373 503.581 90.144C503.329 90.0413 503.049 89.9527 502.741 89.878C502.498 89.822 502.237 89.7567 501.957 89.682C501.677 89.598 501.411 89.486 501.159 89.346C500.907 89.206 500.702 89.024 500.543 88.8C500.384 88.576 500.305 88.282 500.305 87.918C500.305 87.5167 500.412 87.1667 500.627 86.868C500.851 86.56 501.154 86.322 501.537 86.154C501.929 85.986 502.377 85.902 502.881 85.902C503.46 85.902 503.973 86.028 504.421 86.28C504.878 86.532 505.196 86.924 505.373 87.456L504.393 87.792C504.328 87.5493 504.206 87.3627 504.029 87.232C503.861 87.1013 503.67 87.0127 503.455 86.966C503.25 86.9193 503.044 86.896 502.839 86.896C502.419 86.896 502.078 86.98 501.817 87.148C501.565 87.3067 501.439 87.5493 501.439 87.876C501.439 88.0533 501.481 88.2027 501.565 88.324C501.649 88.436 501.766 88.5293 501.915 88.604C502.064 88.6787 502.242 88.744 502.447 88.8C502.652 88.8467 502.876 88.9027 503.119 88.968C503.39 89.0333 503.665 89.1173 503.945 89.22C504.225 89.3133 504.486 89.4393 504.729 89.598C504.972 89.7473 505.168 89.9433 505.317 90.186C505.476 90.4193 505.555 90.7133 505.555 91.068C505.555 91.4787 505.443 91.838 505.219 92.146C504.995 92.4447 504.682 92.678 504.281 92.846C503.889 93.014 503.432 93.098 502.909 93.098C502.19 93.098 501.593 92.9393 501.117 92.622C500.65 92.2953 500.338 91.8193 500.179 91.194L501.187 90.858Z" fill="white" fill-opacity="0.7"/>
<circle cx="596" cy="20" r="19.6571" fill="white" fill-opacity="0.8" stroke="#585858" stroke-width="0.685871"/>
<path d="M588.917 19.5547C588.917 18.104 589.244 16.8027 589.899 15.6507C590.553 14.4844 591.442 13.5742 592.565 12.92C593.703 12.2658 594.962 11.9387 596.341 11.9387C597.963 11.9387 599.378 12.3298 600.587 13.112C601.796 13.8942 602.677 15.0036 603.232 16.44H600.907C600.494 15.544 599.897 14.8542 599.115 14.3707C598.347 13.8871 597.422 13.6453 596.341 13.6453C595.303 13.6453 594.372 13.8871 593.547 14.3707C592.722 14.8542 592.075 15.544 591.605 16.44C591.136 17.3218 590.901 18.36 590.901 19.5547C590.901 20.7351 591.136 21.7733 591.605 22.6693C592.075 23.5511 592.722 24.2338 593.547 24.7173C594.372 25.2009 595.303 25.4427 596.341 25.4427C597.422 25.4427 598.347 25.208 599.115 24.7387C599.897 24.2551 600.494 23.5653 600.907 22.6693H603.232C602.677 24.0916 601.796 25.1938 600.587 25.976C599.378 26.744 597.963 27.128 596.341 27.128C594.962 27.128 593.703 26.808 592.565 26.168C591.442 25.5138 590.553 24.6107 589.899 23.4587C589.244 22.3067 588.917 21.0053 588.917 19.5547Z" fill="black"/>
<path d="M576.016 55.8H577.92L581.12 61.336L584.256 55.8H586.176L581.248 64.632H580.976L576.016 55.8ZM580.192 62.28H582.064V67H580.192V62.28ZM590.336 58.44C591.211 58.44 591.979 58.6213 592.64 58.984C593.312 59.3467 593.835 59.8533 594.208 60.504C594.581 61.144 594.768 61.8907 594.768 62.744C594.768 63.5973 594.581 64.3493 594.208 65C593.835 65.6507 593.312 66.1573 592.64 66.52C591.979 66.8827 591.211 67.064 590.336 67.064C589.461 67.064 588.688 66.8827 588.016 66.52C587.344 66.1573 586.821 65.6507 586.448 65C586.075 64.3493 585.888 63.5973 585.888 62.744C585.888 61.8907 586.075 61.144 586.448 60.504C586.821 59.8533 587.344 59.3467 588.016 58.984C588.688 58.6213 589.461 58.44 590.336 58.44ZM590.336 59.928C589.824 59.928 589.371 60.0507 588.976 60.296C588.581 60.5307 588.272 60.8613 588.048 61.288C587.835 61.7147 587.728 62.2053 587.728 62.76C587.728 63.3253 587.835 63.8213 588.048 64.248C588.272 64.6747 588.581 65.0107 588.976 65.256C589.371 65.4907 589.824 65.608 590.336 65.608C590.848 65.608 591.296 65.4907 591.68 65.256C592.075 65.0107 592.379 64.6747 592.592 64.248C592.816 63.8213 592.928 63.3253 592.928 62.76C592.928 62.2053 592.816 61.7147 592.592 61.288C592.379 60.8613 592.075 60.5307 591.68 60.296C591.296 60.0507 590.848 59.928 590.336 59.928ZM598.256 63.304C598.256 63.9653 598.432 64.488 598.784 64.872C599.136 65.2453 599.621 65.432 600.24 65.432C600.976 65.4107 601.547 65.1387 601.952 64.616C602.368 64.0933 602.576 63.448 602.576 62.68H603.072C603.072 63.7253 602.928 64.568 602.64 65.208C602.352 65.848 601.941 66.3173 601.408 66.616C600.885 66.904 600.261 67.0533 599.536 67.064C598.885 67.064 598.325 66.9307 597.856 66.664C597.397 66.3973 597.04 66.0187 596.784 65.528C596.539 65.0373 596.416 64.456 596.416 63.784V58.504H598.256V63.304ZM602.576 58.504H604.416V67H602.576V58.504ZM611.925 60.104C611.317 60.072 610.789 60.1787 610.341 60.424C609.904 60.6587 609.563 60.9893 609.317 61.416C609.083 61.8427 608.965 62.3333 608.965 62.888L608.453 62.824C608.453 61.8747 608.592 61.0747 608.869 60.424C609.147 59.7733 609.547 59.2827 610.069 58.952C610.592 58.6107 611.211 58.44 611.925 58.44V60.104ZM607.141 58.504H608.981V67H607.141V58.504ZM616.535 55.8H625.511V57.416H621.959V67H620.071V57.416H616.535V55.8ZM627.016 58.504H628.84V67H627.016V58.504ZM627.928 55C628.238 55 628.494 55.1013 628.696 55.304C628.899 55.5067 629 55.7627 629 56.072C629 56.3707 628.899 56.6267 628.696 56.84C628.494 57.0427 628.238 57.144 627.928 57.144C627.63 57.144 627.374 57.0427 627.16 56.84C626.958 56.6267 626.856 56.3707 626.856 56.072C626.856 55.7627 626.958 55.5067 627.16 55.304C627.374 55.1013 627.63 55 627.928 55ZM637.451 62.136C637.43 61.656 637.318 61.2507 637.115 60.92C636.923 60.5787 636.651 60.3173 636.299 60.136C635.947 59.944 635.542 59.848 635.083 59.848C634.571 59.848 634.123 59.9653 633.739 60.2C633.366 60.4347 633.072 60.7653 632.859 61.192C632.646 61.608 632.539 62.0987 632.539 62.664C632.539 63.272 632.651 63.8 632.875 64.248C633.11 64.696 633.43 65.0427 633.835 65.288C634.251 65.5333 634.726 65.656 635.259 65.656C636.208 65.656 637.008 65.32 637.659 64.648L638.635 65.624C638.219 66.0827 637.712 66.44 637.115 66.696C636.518 66.9413 635.851 67.064 635.115 67.064C634.24 67.064 633.478 66.8827 632.827 66.52C632.176 66.1573 631.67 65.656 631.307 65.016C630.944 64.3653 630.763 63.6133 630.763 62.76C630.763 61.9067 630.944 61.16 631.307 60.52C631.67 59.8693 632.176 59.3627 632.827 59C633.478 58.6373 634.224 58.4507 635.067 58.44C636.07 58.44 636.875 58.648 637.483 59.064C638.091 59.4693 638.523 60.0453 638.779 60.792C639.035 61.5387 639.126 62.424 639.051 63.448H632.251V62.136H637.451ZM645.753 60.104C645.145 60.072 644.617 60.1787 644.169 60.424C643.732 60.6587 643.391 60.9893 643.145 61.416C642.911 61.8427 642.793 62.3333 642.793 62.888L642.281 62.824C642.281 61.8747 642.42 61.0747 642.697 60.424C642.975 59.7733 643.375 59.2827 643.897 58.952C644.42 58.6107 645.039 58.44 645.753 58.44V60.104ZM640.969 58.504H642.809V67H640.969V58.504ZM646.882 61.528H650.818V62.744H646.882V61.528ZM656.677 61.24C657.104 60.8027 657.445 60.3653 657.701 59.928C657.968 59.4907 658.101 59.1067 658.101 58.776C658.101 58.3067 657.925 57.944 657.573 57.688C657.232 57.4213 656.752 57.288 656.133 57.288C655.632 57.288 655.098 57.4107 654.533 57.656C653.978 57.9013 653.461 58.2373 652.981 58.664L652.213 57.304C652.842 56.8133 653.509 56.4293 654.213 56.152C654.928 55.864 655.653 55.72 656.389 55.72C657.125 55.72 657.765 55.8373 658.309 56.072C658.864 56.296 659.296 56.6213 659.605 57.048C659.914 57.464 660.069 57.9547 660.069 58.52C660.069 59.0747 659.872 59.6667 659.477 60.296C659.082 60.9147 658.576 61.544 657.957 62.184L654.309 65.976L654.053 65.4H660.613V67H652.405V65.672L656.677 61.24ZM671.485 55.8C672.925 55.8 674.034 56.136 674.813 56.808C675.602 57.4693 675.997 58.4027 675.997 59.608C675.997 60.8667 675.602 61.848 674.813 62.552C674.034 63.2453 672.925 63.592 671.485 63.592H668.829V67H666.941V55.8H671.485ZM671.485 61.976C672.349 61.976 673.015 61.7893 673.485 61.416C673.965 61.032 674.205 60.4453 674.205 59.656C674.205 58.8987 673.965 58.3387 673.485 57.976C673.015 57.6027 672.349 57.416 671.485 57.416H668.829V61.976H671.485ZM671.549 62.856H673.405L676.189 67H674.045L671.549 62.856ZM684.279 62.136C684.258 61.656 684.146 61.2507 683.943 60.92C683.751 60.5787 683.479 60.3173 683.127 60.136C682.775 59.944 682.37 59.848 681.911 59.848C681.399 59.848 680.951 59.9653 680.567 60.2C680.194 60.4347 679.901 60.7653 679.687 61.192C679.474 61.608 679.367 62.0987 679.367 62.664C679.367 63.272 679.479 63.8 679.703 64.248C679.938 64.696 680.258 65.0427 680.663 65.288C681.079 65.5333 681.554 65.656 682.087 65.656C683.037 65.656 683.837 65.32 684.487 64.648L685.463 65.624C685.047 66.0827 684.541 66.44 683.943 66.696C683.346 66.9413 682.679 67.064 681.943 67.064C681.069 67.064 680.306 66.8827 679.655 66.52C679.005 66.1573 678.498 65.656 678.135 65.016C677.773 64.3653 677.591 63.6133 677.591 62.76C677.591 61.9067 677.773 61.16 678.135 60.52C678.498 59.8693 679.005 59.3627 679.655 59C680.306 58.6373 681.053 58.4507 681.895 58.44C682.898 58.44 683.703 58.648 684.311 59.064C684.919 59.4693 685.351 60.0453 685.607 60.792C685.863 61.5387 685.954 62.424 685.879 63.448H679.079V62.136H684.279ZM688.071 57.976C688.071 57.304 688.21 56.7547 688.487 56.328C688.775 55.8907 689.143 55.5707 689.591 55.368C690.039 55.1547 690.509 55.048 690.999 55.048C691.255 55.048 691.511 55.0853 691.767 55.16C692.034 55.224 692.279 55.3147 692.503 55.432L692.119 56.84C691.97 56.776 691.799 56.7173 691.607 56.664C691.426 56.6 691.239 56.568 691.047 56.568C690.845 56.568 690.653 56.6107 690.471 56.696C690.301 56.7707 690.162 56.8987 690.055 57.08C689.949 57.2507 689.895 57.4747 689.895 57.752V67H688.071V57.976ZM686.951 58.808H692.119V60.12H686.951V58.808ZM699.139 62.136C699.117 61.656 699.005 61.2507 698.803 60.92C698.611 60.5787 698.339 60.3173 697.987 60.136C697.635 59.944 697.229 59.848 696.771 59.848C696.259 59.848 695.811 59.9653 695.427 60.2C695.053 60.4347 694.76 60.7653 694.547 61.192C694.333 61.608 694.227 62.0987 694.227 62.664C694.227 63.272 694.339 63.8 694.563 64.248C694.797 64.696 695.117 65.0427 695.523 65.288C695.939 65.5333 696.413 65.656 696.947 65.656C697.896 65.656 698.696 65.32 699.347 64.648L700.323 65.624C699.907 66.0827 699.4 66.44 698.803 66.696C698.205 66.9413 697.539 67.064 696.803 67.064C695.928 67.064 695.165 66.8827 694.515 66.52C693.864 66.1573 693.357 65.656 692.995 65.016C692.632 64.3653 692.451 63.6133 692.451 62.76C692.451 61.9067 692.632 61.16 692.995 60.52C693.357 59.8693 693.864 59.3627 694.515 59C695.165 58.6373 695.912 58.4507 696.755 58.44C697.757 58.44 698.563 58.648 699.171 59.064C699.779 59.4693 700.211 60.0453 700.467 60.792C700.723 61.5387 700.813 62.424 700.739 63.448H693.939V62.136H699.139ZM707.441 60.104C706.833 60.072 706.305 60.1787 705.857 60.424C705.42 60.6587 705.078 60.9893 704.833 61.416C704.598 61.8427 704.481 62.3333 704.481 62.888L703.969 62.824C703.969 61.8747 704.108 61.0747 704.385 60.424C704.662 59.7733 705.062 59.2827 705.585 58.952C706.108 58.6107 706.726 58.44 707.441 58.44V60.104ZM702.657 58.504H704.497V67H702.657V58.504ZM713.738 60.104C713.13 60.072 712.602 60.1787 712.154 60.424C711.716 60.6587 711.375 60.9893 711.13 61.416C710.895 61.8427 710.778 62.3333 710.778 62.888L710.266 62.824C710.266 61.8747 710.404 61.0747 710.682 60.424C710.959 59.7733 711.359 59.2827 711.882 58.952C712.404 58.6107 713.023 58.44 713.738 58.44V60.104ZM708.954 58.504H710.794V67H708.954V58.504ZM717.691 63.208C717.094 63.208 716.651 63.2987 716.363 63.48C716.075 63.6613 715.931 63.96 715.931 64.376C715.931 64.7707 716.075 65.0853 716.363 65.32C716.662 65.5547 717.067 65.672 717.579 65.672C718.038 65.672 718.448 65.592 718.811 65.432C719.174 65.272 719.462 65.0587 719.675 64.792C719.888 64.5147 720 64.2053 720.011 63.864L720.363 65.416C720.096 65.9707 719.691 66.3867 719.147 66.664C718.603 66.9413 717.952 67.08 717.195 67.08C716.587 67.08 716.059 66.9627 715.611 66.728C715.163 66.4933 714.816 66.1787 714.571 65.784C714.326 65.3787 714.203 64.9307 714.203 64.44C714.203 63.672 714.48 63.0587 715.035 62.6C715.6 62.1413 716.395 61.9067 717.419 61.896H720.235V63.208H717.691ZM719.995 61.608C719.995 61.0533 719.824 60.6213 719.483 60.312C719.142 60.0027 718.635 59.848 717.963 59.848C717.558 59.848 717.142 59.9227 716.715 60.072C716.299 60.2213 715.878 60.44 715.451 60.728L714.699 59.544C715.094 59.2987 715.467 59.096 715.819 58.936C716.171 58.776 716.544 58.6533 716.939 58.568C717.344 58.4827 717.819 58.44 718.363 58.44C719.462 58.44 720.304 58.7067 720.891 59.24C721.488 59.7627 721.792 60.488 721.803 61.416L721.819 67H720.011L719.995 61.608ZM724.362 55.128H726.202V67H724.362V55.128Z" fill="white"/>
<path d="M130.049 11.574C130.273 11.1353 130.591 10.7947 131.001 10.552C131.421 10.3093 131.93 10.188 132.527 10.188V11.504H132.191C130.763 11.504 130.049 12.2787 130.049 13.828V18H128.775V10.328H130.049V11.574ZM140.998 13.87C140.998 14.1127 140.984 14.3693 140.956 14.64H134.824C134.871 15.396 135.127 15.9887 135.594 16.418C136.07 16.838 136.644 17.048 137.316 17.048C137.867 17.048 138.324 16.922 138.688 16.67C139.061 16.4087 139.323 16.0633 139.472 15.634H140.844C140.639 16.3713 140.228 16.9733 139.612 17.44C138.996 17.8973 138.231 18.126 137.316 18.126C136.588 18.126 135.935 17.9627 135.356 17.636C134.787 17.3093 134.339 16.8473 134.012 16.25C133.685 15.6433 133.522 14.9433 133.522 14.15C133.522 13.3567 133.681 12.6613 133.998 12.064C134.315 11.4667 134.759 11.0093 135.328 10.692C135.907 10.3653 136.569 10.202 137.316 10.202C138.044 10.202 138.688 10.3607 139.248 10.678C139.808 10.9953 140.237 11.434 140.536 11.994C140.844 12.5447 140.998 13.17 140.998 13.87ZM139.682 13.604C139.682 13.1187 139.575 12.7033 139.36 12.358C139.145 12.0033 138.851 11.7373 138.478 11.56C138.114 11.3733 137.708 11.28 137.26 11.28C136.616 11.28 136.065 11.4853 135.608 11.896C135.16 12.3067 134.903 12.876 134.838 13.604H139.682ZM145.802 11.378H144.192V18H142.918V11.378H141.924V10.328H142.918V9.782C142.918 8.92333 143.137 8.298 143.576 7.906C144.024 7.50467 144.738 7.304 145.718 7.304V8.368C145.158 8.368 144.761 8.48 144.528 8.704C144.304 8.91867 144.192 9.278 144.192 9.782V10.328H145.802V11.378ZM154.287 13.87C154.287 14.1127 154.273 14.3693 154.245 14.64H148.113C148.16 15.396 148.416 15.9887 148.883 16.418C149.359 16.838 149.933 17.048 150.605 17.048C151.156 17.048 151.613 16.922 151.977 16.67C152.35 16.4087 152.612 16.0633 152.761 15.634H154.133C153.928 16.3713 153.517 16.9733 152.901 17.44C152.285 17.8973 151.52 18.126 150.605 18.126C149.877 18.126 149.224 17.9627 148.645 17.636C148.076 17.3093 147.628 16.8473 147.301 16.25C146.974 15.6433 146.811 14.9433 146.811 14.15C146.811 13.3567 146.97 12.6613 147.287 12.064C147.604 11.4667 148.048 11.0093 148.617 10.692C149.196 10.3653 149.858 10.202 150.605 10.202C151.333 10.202 151.977 10.3607 152.537 10.678C153.097 10.9953 153.526 11.434 153.825 11.994C154.133 12.5447 154.287 13.17 154.287 13.87ZM152.971 13.604C152.971 13.1187 152.864 12.7033 152.649 12.358C152.434 12.0033 152.14 11.7373 151.767 11.56C151.403 11.3733 150.997 11.28 150.549 11.28C149.905 11.28 149.354 11.4853 148.897 11.896C148.449 12.3067 148.192 12.876 148.127 13.604H152.971ZM157.243 11.574C157.467 11.1353 157.784 10.7947 158.195 10.552C158.615 10.3093 159.123 10.188 159.721 10.188V11.504H159.385C157.957 11.504 157.243 12.2787 157.243 13.828V18H155.969V10.328H157.243V11.574ZM164.467 20.604C163.571 19.7267 162.871 18.6113 162.367 17.258C161.873 15.9047 161.625 14.444 161.625 12.876C161.625 11.2707 161.887 9.77267 162.409 8.382C162.941 6.982 163.697 5.82933 164.677 4.924H166.007V5.05C164.962 6.03 164.173 7.21067 163.641 8.592C163.119 9.964 162.857 11.392 162.857 12.876C162.857 14.3227 163.105 15.704 163.599 17.02C164.103 18.336 164.836 19.4887 165.797 20.478V20.604H164.467ZM168.207 9.082C167.964 9.082 167.759 8.998 167.591 8.83C167.423 8.662 167.339 8.45667 167.339 8.214C167.339 7.97133 167.423 7.766 167.591 7.598C167.759 7.43 167.964 7.346 168.207 7.346C168.44 7.346 168.636 7.43 168.795 7.598C168.963 7.766 169.047 7.97133 169.047 8.214C169.047 8.45667 168.963 8.662 168.795 8.83C168.636 8.998 168.44 9.082 168.207 9.082ZM168.823 10.328V18H167.549V10.328H168.823ZM174.732 10.188C175.665 10.188 176.421 10.4727 177 11.042C177.579 11.602 177.868 12.414 177.868 13.478V18H176.608V13.66C176.608 12.8947 176.417 12.3113 176.034 11.91C175.651 11.4993 175.129 11.294 174.466 11.294C173.794 11.294 173.257 11.504 172.856 11.924C172.464 12.344 172.268 12.9553 172.268 13.758V18H170.994V10.328H172.268V11.42C172.52 11.028 172.861 10.7247 173.29 10.51C173.729 10.2953 174.209 10.188 174.732 10.188ZM182.805 16.824L185.185 10.328H186.543L183.533 18H182.049L179.039 10.328H180.411L182.805 16.824ZM188.455 9.082C188.212 9.082 188.007 8.998 187.839 8.83C187.671 8.662 187.587 8.45667 187.587 8.214C187.587 7.97133 187.671 7.766 187.839 7.598C188.007 7.43 188.212 7.346 188.455 7.346C188.688 7.346 188.884 7.43 189.043 7.598C189.211 7.766 189.295 7.97133 189.295 8.214C189.295 8.45667 189.211 8.662 189.043 8.83C188.884 8.998 188.688 9.082 188.455 9.082ZM189.071 10.328V18H187.797V10.328H189.071ZM192.796 11.378V15.9C192.796 16.2733 192.875 16.5393 193.034 16.698C193.193 16.8473 193.468 16.922 193.86 16.922H194.798V18H193.65C192.941 18 192.409 17.8367 192.054 17.51C191.699 17.1833 191.522 16.6467 191.522 15.9V11.378H190.528V10.328H191.522V8.396H192.796V10.328H194.798V11.378H192.796ZM203.342 13.87C203.342 14.1127 203.328 14.3693 203.3 14.64H197.168C197.214 15.396 197.471 15.9887 197.938 16.418C198.414 16.838 198.988 17.048 199.66 17.048C200.21 17.048 200.668 16.922 201.032 16.67C201.405 16.4087 201.666 16.0633 201.816 15.634H203.188C202.982 16.3713 202.572 16.9733 201.956 17.44C201.34 17.8973 200.574 18.126 199.66 18.126C198.932 18.126 198.278 17.9627 197.7 17.636C197.13 17.3093 196.682 16.8473 196.356 16.25C196.029 15.6433 195.866 14.9433 195.866 14.15C195.866 13.3567 196.024 12.6613 196.342 12.064C196.659 11.4667 197.102 11.0093 197.672 10.692C198.25 10.3653 198.913 10.202 199.66 10.202C200.388 10.202 201.032 10.3607 201.592 10.678C202.152 10.9953 202.581 11.434 202.88 11.994C203.188 12.5447 203.342 13.17 203.342 13.87ZM202.026 13.604C202.026 13.1187 201.918 12.7033 201.704 12.358C201.489 12.0033 201.195 11.7373 200.822 11.56C200.458 11.3733 200.052 11.28 199.604 11.28C198.96 11.28 198.409 11.4853 197.952 11.896C197.504 12.3067 197.247 12.876 197.182 13.604H202.026ZM204.617 20.604V20.478C205.579 19.4887 206.307 18.336 206.801 17.02C207.305 15.704 207.557 14.3227 207.557 12.876C207.557 11.392 207.291 9.964 206.759 8.592C206.237 7.21067 205.453 6.03 204.407 5.05V4.924H205.737C206.717 5.82933 207.469 6.982 207.991 8.382C208.523 9.77267 208.789 11.2707 208.789 12.876C208.789 14.444 208.537 15.9047 208.033 17.258C207.539 18.6113 206.843 19.7267 205.947 20.604H204.617Z" fill="white"/>
<path d="M284 26L279 23.1132V28.8868L284 26ZM54 26V26.5H279.5V26V25.5H54V26Z" fill="white"/>
<path d="M422.049 11.574C422.273 11.1353 422.591 10.7947 423.001 10.552C423.421 10.3093 423.93 10.188 424.527 10.188V11.504H424.191C422.763 11.504 422.049 12.2787 422.049 13.828V18H420.775V10.328H422.049V11.574ZM432.998 13.87C432.998 14.1127 432.984 14.3693 432.956 14.64H426.824C426.871 15.396 427.127 15.9887 427.594 16.418C428.07 16.838 428.644 17.048 429.316 17.048C429.867 17.048 430.324 16.922 430.688 16.67C431.061 16.4087 431.323 16.0633 431.472 15.634H432.844C432.639 16.3713 432.228 16.9733 431.612 17.44C430.996 17.8973 430.231 18.126 429.316 18.126C428.588 18.126 427.935 17.9627 427.356 17.636C426.787 17.3093 426.339 16.8473 426.012 16.25C425.685 15.6433 425.522 14.9433 425.522 14.15C425.522 13.3567 425.681 12.6613 425.998 12.064C426.315 11.4667 426.759 11.0093 427.328 10.692C427.907 10.3653 428.569 10.202 429.316 10.202C430.044 10.202 430.688 10.3607 431.248 10.678C431.808 10.9953 432.237 11.434 432.536 11.994C432.844 12.5447 432.998 13.17 432.998 13.87ZM431.682 13.604C431.682 13.1187 431.575 12.7033 431.36 12.358C431.145 12.0033 430.851 11.7373 430.478 11.56C430.114 11.3733 429.708 11.28 429.26 11.28C428.616 11.28 428.065 11.4853 427.608 11.896C427.16 12.3067 426.903 12.876 426.838 13.604H431.682ZM437.802 11.378H436.192V18H434.918V11.378H433.924V10.328H434.918V9.782C434.918 8.92333 435.137 8.298 435.576 7.906C436.024 7.50467 436.738 7.304 437.718 7.304V8.368C437.158 8.368 436.761 8.48 436.528 8.704C436.304 8.91867 436.192 9.278 436.192 9.782V10.328H437.802V11.378ZM446.287 13.87C446.287 14.1127 446.273 14.3693 446.245 14.64H440.113C440.16 15.396 440.416 15.9887 440.883 16.418C441.359 16.838 441.933 17.048 442.605 17.048C443.156 17.048 443.613 16.922 443.977 16.67C444.35 16.4087 444.612 16.0633 444.761 15.634H446.133C445.928 16.3713 445.517 16.9733 444.901 17.44C444.285 17.8973 443.52 18.126 442.605 18.126C441.877 18.126 441.224 17.9627 440.645 17.636C440.076 17.3093 439.628 16.8473 439.301 16.25C438.974 15.6433 438.811 14.9433 438.811 14.15C438.811 13.3567 438.97 12.6613 439.287 12.064C439.604 11.4667 440.048 11.0093 440.617 10.692C441.196 10.3653 441.858 10.202 442.605 10.202C443.333 10.202 443.977 10.3607 444.537 10.678C445.097 10.9953 445.526 11.434 445.825 11.994C446.133 12.5447 446.287 13.17 446.287 13.87ZM444.971 13.604C444.971 13.1187 444.864 12.7033 444.649 12.358C444.434 12.0033 444.14 11.7373 443.767 11.56C443.403 11.3733 442.997 11.28 442.549 11.28C441.905 11.28 441.354 11.4853 440.897 11.896C440.449 12.3067 440.192 12.876 440.127 13.604H444.971ZM449.243 11.574C449.467 11.1353 449.784 10.7947 450.195 10.552C450.615 10.3093 451.123 10.188 451.721 10.188V11.504H451.385C449.957 11.504 449.243 12.2787 449.243 13.828V18H447.969V10.328H449.243V11.574ZM456.467 20.604C455.571 19.7267 454.871 18.6113 454.367 17.258C453.873 15.9047 453.625 14.444 453.625 12.876C453.625 11.2707 453.887 9.77267 454.409 8.382C454.941 6.982 455.697 5.82933 456.677 4.924H458.007V5.05C456.962 6.03 456.173 7.21067 455.641 8.592C455.119 9.964 454.857 11.392 454.857 12.876C454.857 14.3227 455.105 15.704 455.599 17.02C456.103 18.336 456.836 19.4887 457.797 20.478V20.604H456.467ZM460.207 9.082C459.964 9.082 459.759 8.998 459.591 8.83C459.423 8.662 459.339 8.45667 459.339 8.214C459.339 7.97133 459.423 7.766 459.591 7.598C459.759 7.43 459.964 7.346 460.207 7.346C460.44 7.346 460.636 7.43 460.795 7.598C460.963 7.766 461.047 7.97133 461.047 8.214C461.047 8.45667 460.963 8.662 460.795 8.83C460.636 8.998 460.44 9.082 460.207 9.082ZM460.823 10.328V18H459.549V10.328H460.823ZM466.732 10.188C467.665 10.188 468.421 10.4727 469 11.042C469.579 11.602 469.868 12.414 469.868 13.478V18H468.608V13.66C468.608 12.8947 468.417 12.3113 468.034 11.91C467.651 11.4993 467.129 11.294 466.466 11.294C465.794 11.294 465.257 11.504 464.856 11.924C464.464 12.344 464.268 12.9553 464.268 13.758V18H462.994V10.328H464.268V11.42C464.52 11.028 464.861 10.7247 465.29 10.51C465.729 10.2953 466.209 10.188 466.732 10.188ZM474.805 16.824L477.185 10.328H478.543L475.533 18H474.049L471.039 10.328H472.411L474.805 16.824ZM480.455 9.082C480.212 9.082 480.007 8.998 479.839 8.83C479.671 8.662 479.587 8.45667 479.587 8.214C479.587 7.97133 479.671 7.766 479.839 7.598C480.007 7.43 480.212 7.346 480.455 7.346C480.688 7.346 480.884 7.43 481.043 7.598C481.211 7.766 481.295 7.97133 481.295 8.214C481.295 8.45667 481.211 8.662 481.043 8.83C480.884 8.998 480.688 9.082 480.455 9.082ZM481.071 10.328V18H479.797V10.328H481.071ZM484.796 11.378V15.9C484.796 16.2733 484.875 16.5393 485.034 16.698C485.193 16.8473 485.468 16.922 485.86 16.922H486.798V18H485.65C484.941 18 484.409 17.8367 484.054 17.51C483.699 17.1833 483.522 16.6467 483.522 15.9V11.378H482.528V10.328H483.522V8.396H484.796V10.328H486.798V11.378H484.796ZM495.342 13.87C495.342 14.1127 495.328 14.3693 495.3 14.64H489.168C489.214 15.396 489.471 15.9887 489.938 16.418C490.414 16.838 490.988 17.048 491.66 17.048C492.21 17.048 492.668 16.922 493.032 16.67C493.405 16.4087 493.666 16.0633 493.816 15.634H495.188C494.982 16.3713 494.572 16.9733 493.956 17.44C493.34 17.8973 492.574 18.126 491.66 18.126C490.932 18.126 490.278 17.9627 489.7 17.636C489.13 17.3093 488.682 16.8473 488.356 16.25C488.029 15.6433 487.866 14.9433 487.866 14.15C487.866 13.3567 488.024 12.6613 488.342 12.064C488.659 11.4667 489.102 11.0093 489.672 10.692C490.25 10.3653 490.913 10.202 491.66 10.202C492.388 10.202 493.032 10.3607 493.592 10.678C494.152 10.9953 494.581 11.434 494.88 11.994C495.188 12.5447 495.342 13.17 495.342 13.87ZM494.026 13.604C494.026 13.1187 493.918 12.7033 493.704 12.358C493.489 12.0033 493.195 11.7373 492.822 11.56C492.458 11.3733 492.052 11.28 491.604 11.28C490.96 11.28 490.409 11.4853 489.952 11.896C489.504 12.3067 489.247 12.876 489.182 13.604H494.026ZM496.617 20.604V20.478C497.579 19.4887 498.307 18.336 498.801 17.02C499.305 15.704 499.557 14.3227 499.557 12.876C499.557 11.392 499.291 9.964 498.759 8.592C498.237 7.21067 497.453 6.03 496.407 5.05V4.924H497.737C498.717 5.82933 499.469 6.982 499.991 8.382C500.523 9.77267 500.789 11.2707 500.789 12.876C500.789 14.444 500.537 15.9047 500.033 17.258C499.539 18.6113 498.843 19.7267 497.947 20.604H496.617Z" fill="white"/>
<path d="M561 26L556 23.1132V28.8868L561 26ZM361 26V26.5H556.5V26V25.5H361V26Z" fill="white"/>
</svg>
