<svg width="27" height="30" viewBox="0 0 27 30" fill="none" xmlns="http://www.w3.org/2000/svg">
<g clip-path="url(#clip0_22692_2130)">
<path d="M8.358 14.6131C8.358 14.6131 8.343 14.6311 8.337 14.6371C8.205 14.7871 8.058 14.8981 7.899 14.9731C7.755 15.0391 7.602 15.0751 7.446 15.0751C7.368 15.0751 7.293 15.0661 7.215 15.0511L7.746 14.1181C8.085 13.7311 8.232 12.9121 8.052 12.3931C7.92 12.0151 7.683 11.9701 7.605 11.9581L7.572 11.9521C6.087 11.5501 4.746 10.7971 3.618 9.78914C3.441 9.63015 3.273 9.46514 3.105 9.29714C2.925 9.11115 2.748 8.91615 2.58 8.71515C2.202 8.26215 1.86 7.77614 1.557 7.26015C0.714 5.82614 0.177 4.17314 0.036 2.40914L0 1.98314L0.21 1.84814L4.65 1.98314L4.632 2.39414C4.632 2.39414 4.596 3.51614 5.244 4.20314C5.391 4.35914 5.565 4.48514 5.766 4.57514C6.015 4.68614 6.306 4.74914 6.633 4.75514L6.843 5.61314C6.537 5.60414 6.024 5.49314 5.766 5.41514C5.334 5.28314 4.965 5.05814 4.665 4.73714C4.074 4.10714 3.906 3.26414 3.861 2.76914H0.861C0.975 3.71714 1.212 4.62914 1.557 5.47814C1.833 6.16214 2.178 6.80714 2.58 7.40414C2.745 7.64714 2.919 7.88415 3.105 8.10915C3.267 8.31014 3.438 8.50515 3.618 8.69115C4.752 9.87315 6.168 10.7491 7.764 11.1841C7.83 11.1961 7.896 11.2171 7.956 11.2381C8.346 11.3761 8.64 11.6881 8.796 12.1351C9.066 12.9091 8.868 14.0131 8.358 14.6161V14.6131Z" fill="url(#paint0_linear_22692_2130)"/>
<g style="mix-blend-mode:color-burn" opacity="0.3">
<path d="M4.20069 2.51113L3.86169 2.77213H0.933687L0.804688 2.30713L4.20069 2.51113Z" fill="#777777"/>
</g>
<g style="mix-blend-mode:color-burn" opacity="0.2">
<path d="M8.35784 14.6133C8.35784 14.6133 8.34284 14.6313 8.33684 14.6373C8.20484 14.7873 8.05784 14.8983 7.89884 14.9733C7.75484 15.0393 7.60184 15.0753 7.44584 15.0753C7.36784 15.0753 7.29284 15.0663 7.21484 15.0513L7.42484 14.9163L8.35784 14.6133Z" fill="#777777"/>
</g>
<path d="M8.54403 14.5051C8.41203 14.6551 8.26503 14.7661 8.10603 14.8411C7.96203 14.9071 7.80903 14.9431 7.65303 14.9431C7.57503 14.9431 7.50003 14.9341 7.42203 14.9191L7.95303 13.9861C8.29203 13.5991 8.43903 12.7801 8.25903 12.2611C8.12703 11.8831 7.89003 11.8381 7.81203 11.8231L7.78203 11.8171C6.29703 11.4151 4.95603 10.6621 3.82803 9.65414C3.65103 9.49514 3.48003 9.33015 3.31503 9.16215C3.13503 8.97615 2.95803 8.78115 2.79003 8.58014C2.41203 8.12714 2.06703 7.64114 1.76403 7.12514C0.924031 5.69114 0.387031 4.03814 0.243031 2.27414L0.207031 1.84814H4.85703L4.83903 2.25914C4.83903 2.25914 4.80603 3.38114 5.45103 4.06814C5.59803 4.22414 5.77203 4.34714 5.97303 4.44014C6.22203 4.55114 6.51303 4.61414 6.84003 4.62014L6.82203 5.40914C6.51603 5.40014 6.23403 5.35814 5.97303 5.28014C5.54103 5.14814 5.17203 4.92314 4.87203 4.60214C4.28103 3.97214 4.11303 3.12914 4.06803 2.63414H1.07103C1.18503 3.58214 1.42203 4.49414 1.76703 5.34314C2.04303 6.02714 2.38803 6.67214 2.79303 7.26914C2.95803 7.51214 3.13203 7.74914 3.31803 7.97414C3.48003 8.17514 3.65103 8.37014 3.83103 8.55615C4.96503 9.73814 6.38103 10.6141 7.97703 11.0491C8.04303 11.0611 8.10903 11.0821 8.16903 11.1031C8.55903 11.2411 8.85603 11.5531 9.01203 12.0001C9.28503 12.7861 9.07803 13.9081 8.55303 14.5051H8.54403Z" fill="url(#paint1_linear_22692_2130)"/>
<g style="mix-blend-mode:color-burn" opacity="0.3">
<path d="M8.54347 14.505C8.41147 14.655 8.26447 14.766 8.10547 14.841C8.91847 13.386 8.47447 11.853 8.16247 11.103C8.55247 11.241 8.84947 11.553 9.00547 12C9.27847 12.786 9.07147 13.908 8.54647 14.505H8.54347Z" fill="#777777"/>
</g>
<g style="mix-blend-mode:color-burn" opacity="0.3">
<path d="M5.97266 4.43994C6.22166 4.55094 6.51266 4.61394 6.83966 4.61994L6.82166 5.40894C6.51566 5.39994 6.23366 5.35794 5.97266 5.27994V4.43994Z" fill="#777777"/>
</g>
<path d="M25.7064 1.98329L25.6704 2.40929C25.5444 3.99029 25.0974 5.48129 24.4014 6.80429C24.2604 7.06829 24.1134 7.32629 23.9544 7.57529C23.7984 7.82129 23.6304 8.06129 23.4564 8.29528C23.1714 8.67028 22.8654 9.02429 22.5384 9.35729C21.3264 10.5843 19.8204 11.4933 18.1344 11.9493L18.1014 11.9553C18.0234 11.9703 17.7834 12.0123 17.6544 12.3903C17.5074 12.8193 17.5794 13.4553 17.8014 13.8813C17.8494 13.9683 17.9034 14.0493 17.9604 14.1153L18.8004 14.9133L18.4914 15.0483C18.4134 15.0633 18.3384 15.0723 18.2604 15.0723C18.1434 15.0723 18.0294 15.0543 17.9184 15.0153C17.8074 14.9763 17.6994 14.9193 17.6004 14.8443C17.5194 14.7873 17.4444 14.7153 17.3724 14.6343C16.8474 14.0373 16.6404 12.9153 16.9134 12.1293C17.0784 11.6553 17.3994 11.3343 17.8254 11.2083C17.8644 11.1963 17.9064 11.1873 17.9484 11.1783C19.7634 10.6833 21.3474 9.62129 22.5444 8.18129C22.8804 7.77629 23.1894 7.34129 23.4624 6.87929C23.6424 6.57329 23.8104 6.25829 23.9604 5.92829C24.1314 5.55929 24.2814 5.17529 24.4074 4.77929C24.6144 4.13429 24.7644 3.45929 24.8484 2.76629H21.8484C21.8034 3.26129 21.6354 4.10429 21.0444 4.73429C20.7414 5.06129 20.3664 5.28929 19.9254 5.41829C19.6704 5.49329 19.3944 5.53529 19.0974 5.54129L19.0794 4.75229C19.3974 4.74329 19.6794 4.68629 19.9284 4.57829C20.1384 4.48829 20.3214 4.35929 20.4744 4.19429C21.1134 3.51329 21.0834 2.39729 21.0834 2.38829L21.0654 1.97729L21.3744 1.84229L25.7124 1.97729L25.7064 1.98329Z" fill="url(#paint2_linear_22692_2130)"/>
<g style="mix-blend-mode:color-burn" opacity="0.2">
<path d="M25.2152 2.59204L24.8462 2.77204H21.8672V2.39404L25.2152 2.59204Z" fill="#777777"/>
</g>
<path d="M26.0189 1.84821L25.9829 2.27421C25.8569 3.85521 25.4099 5.34621 24.7139 6.66921C24.5729 6.93321 24.4259 7.19122 24.2669 7.44022C24.1079 7.68922 23.9429 7.92621 23.7689 8.16021C23.4839 8.53521 23.1779 8.88921 22.8509 9.22221C21.6389 10.4492 20.1329 11.3582 18.4469 11.8142L18.4139 11.8202C18.3359 11.8352 18.0989 11.8772 17.9669 12.2582C17.8169 12.6872 17.8919 13.3232 18.1139 13.7492C18.1619 13.8362 18.2159 13.9172 18.2729 13.9832L18.8039 14.9162C18.7259 14.9312 18.6509 14.9402 18.5729 14.9402C18.4559 14.9402 18.3419 14.9222 18.2309 14.8832C18.1199 14.8442 18.0149 14.7872 17.9129 14.7122C17.8319 14.6552 17.7569 14.5832 17.6849 14.5022C17.1599 13.9052 16.9529 12.7802 17.2259 11.9972C17.3909 11.5232 17.7119 11.2022 18.1379 11.0762C18.1769 11.0642 18.2189 11.0552 18.2579 11.0462C20.0729 10.5512 21.6569 9.48921 22.8539 8.04921C23.1899 7.64421 23.4989 7.20921 23.7719 6.74721C23.9519 6.44121 24.1199 6.12621 24.2699 5.79621C24.4409 5.42721 24.5909 5.04021 24.7169 4.64721C24.9239 4.00221 25.0739 3.32721 25.1579 2.63421H22.1609C22.1159 3.12921 21.9479 3.97221 21.3569 4.60221C21.0539 4.92921 20.6789 5.15721 20.2379 5.28621C19.9829 5.36121 19.7069 5.40321 19.4099 5.40921L19.3919 4.62021C19.7129 4.61421 19.9949 4.55421 20.2409 4.44621C20.4509 4.35621 20.6339 4.22721 20.7869 4.06221C21.4259 3.38121 21.3959 2.26521 21.3959 2.25621L21.3779 1.84521H26.0279L26.0189 1.84821Z" fill="url(#paint3_linear_22692_2130)"/>
<g style="mix-blend-mode:color-burn" opacity="0.3">
<path d="M17.909 14.7122C17.828 14.6552 17.753 14.5832 17.681 14.5022C17.156 13.9052 16.949 12.7802 17.222 11.9972C17.387 11.5232 17.708 11.2022 18.134 11.0762C17.792 11.7362 17.216 13.2032 17.909 14.7122Z" fill="#777777"/>
</g>
<g style="mix-blend-mode:color-burn" opacity="0.2">
<path d="M20.2327 4.44929V5.28629C19.9777 5.36129 19.7017 5.40329 19.4047 5.40929L19.3867 4.62029C19.7077 4.61429 19.9897 4.55429 20.2357 4.44629L20.2327 4.44929Z" fill="#777777"/>
</g>
<path d="M19.7631 1.32324C19.7631 1.65624 19.7541 2.00724 19.7421 2.37324C19.7361 2.52624 19.7271 2.68524 19.7181 2.84724C19.5831 5.13024 19.1541 7.85724 18.3471 10.2152C17.2941 13.2932 15.5931 15.7412 13.0671 15.7412C8.54009 15.7412 6.67109 7.89024 6.40409 2.61624C6.39809 2.53524 6.39509 2.45424 6.39209 2.37624C6.37709 2.01024 6.37109 1.65924 6.37109 1.32624H19.7631V1.32324Z" fill="url(#paint4_linear_22692_2130)"/>
<path d="M15.1188 8.44174C15.1188 8.71474 15.0978 9.01474 15.0708 9.27274C15.0498 9.27274 14.9508 9.45274 14.9148 9.47074C14.9148 9.47074 14.9118 9.47074 14.9088 9.47074C14.5818 9.47074 13.1478 9.46474 12.6318 9.46474H11.7438C11.6748 9.27574 11.6058 9.05374 11.5548 8.85574C11.5488 8.83474 11.7228 8.67874 11.7168 8.65774C12.1908 8.30674 12.4578 8.09974 12.7578 7.81774C12.9738 7.62274 13.1778 7.43074 13.3488 7.23574C13.5498 6.96274 13.6788 6.67774 13.6788 6.36874C13.6788 6.13174 13.6218 5.97574 13.5168 5.83174C13.4268 5.71174 13.2648 5.63674 13.0908 5.63674C12.9468 5.63674 12.8238 5.66374 12.7308 5.69974L12.5868 6.32374C12.5658 6.32374 12.4458 6.52474 12.4248 6.52474C12.4248 6.52474 12.4188 6.52474 12.4158 6.52474C12.1728 6.52474 11.9238 6.46174 11.7048 6.44974C11.7258 6.02974 11.7528 5.60974 11.7798 5.19874C11.7798 5.17174 11.9388 5.02774 11.9418 4.99774C12.2718 4.85674 12.8358 4.76074 13.3038 4.76074C13.9458 4.76074 14.3328 4.88674 14.6178 5.13874C14.8968 5.37574 15.0528 5.73874 15.0528 6.10174C15.0528 6.57274 14.8128 6.98674 14.5098 7.32874C14.2098 7.73374 13.7988 8.05774 13.5138 8.27974C13.4118 8.36374 13.3248 8.42974 13.2378 8.48974C13.7478 8.48074 14.6838 8.43574 15.0948 8.42974H15.1008L15.1158 8.44474L15.1188 8.44174Z" fill="#8B8B8B"/>
<path d="M15.1029 8.42981H15.0969C14.6889 8.42981 13.7499 8.47781 13.2399 8.48681C13.2099 8.48681 13.1799 8.48681 13.1529 8.48681V8.45981C13.3329 8.33381 13.4799 8.23781 13.6779 8.07581C13.9149 7.89281 14.2389 7.63781 14.5119 7.32581C14.8119 6.98381 15.0549 6.56981 15.0549 6.09881C15.0549 5.73581 14.9019 5.37281 14.6199 5.13581C14.3319 4.88381 13.9479 4.75781 13.3059 4.75781C12.8379 4.75781 12.2709 4.85681 11.9439 4.99481C11.9439 5.02181 11.7849 5.16881 11.7819 5.19581C11.7549 5.58281 11.8869 5.85581 11.8659 6.24581C12.0039 6.25481 12.1089 6.37481 12.2319 6.45581C12.2889 6.49181 12.3459 6.51881 12.4149 6.52181C12.4149 6.52181 12.4209 6.52181 12.4239 6.52181C12.4449 6.52181 12.5649 6.32081 12.5859 6.32081L12.7299 5.69681L12.7479 5.62181C12.7479 5.62181 12.7509 5.60081 12.7539 5.59481C12.7599 5.57981 12.7659 5.56781 12.7809 5.55281C12.8799 5.48981 13.0389 5.43281 13.2489 5.43281C13.4229 5.43281 13.5849 5.51081 13.6749 5.62781C13.7799 5.77481 13.8369 5.92781 13.8369 6.16481C13.8369 6.55181 13.6389 6.89681 13.3449 7.23281C13.1739 7.43081 12.9699 7.62281 12.7539 7.81481C12.4539 8.09381 12.1869 8.30381 11.7129 8.65481C11.7189 8.67581 11.5449 8.83181 11.5509 8.85281C11.5989 9.03281 11.8389 9.09281 11.9019 9.26081H12.7899C13.2729 9.26081 14.4699 9.46781 14.9079 9.46781C14.9079 9.46781 14.9109 9.46781 14.9139 9.46781C14.9499 9.44981 15.0489 9.26981 15.0699 9.26981C15.0969 9.01181 15.1179 8.71181 15.1179 8.43881L15.1029 8.42981Z" fill="#424242"/>
<g style="mix-blend-mode:color-burn" opacity="0.2">
<path d="M12.7564 5.59478C12.7564 5.59478 12.7504 5.61278 12.7504 5.62178L12.7324 5.69678L12.5884 6.32078C12.5674 6.32078 12.4474 6.52178 12.4264 6.52178C12.4264 6.52178 12.4204 6.52178 12.4174 6.52178C12.3484 6.51878 12.2884 6.48878 12.2344 6.45578C12.2374 6.38078 12.2464 6.31778 12.2494 6.29078C12.2854 6.10478 12.3784 5.93078 12.4954 5.78378C12.5284 5.74178 12.6664 5.55578 12.7414 5.58578C12.7474 5.58578 12.7534 5.59178 12.7564 5.59478Z" fill="#7E7E7E"/>
</g>
<g style="mix-blend-mode:color-burn" opacity="0.2">
<path d="M15.1172 8.44211C15.1172 8.71511 15.0962 9.01511 15.0692 9.27311C15.0482 9.27311 14.9492 9.45311 14.9132 9.47111H14.9072L14.8652 9.45311L14.9102 8.67311L14.9402 8.63411L15.0992 8.43311L15.1142 8.44211H15.1172Z" fill="#7E7E7E"/>
</g>
<path d="M14.9445 8.63113L14.9355 8.62513C14.5035 8.63112 13.4745 8.68213 12.9915 8.68813V8.66113C13.0785 8.60113 13.1595 8.54713 13.2405 8.48713C13.3275 8.42413 13.4145 8.35813 13.5165 8.27713C13.8015 8.05512 14.2155 7.73413 14.5125 7.32613C14.7345 7.02612 14.8935 6.68112 14.8935 6.29712C14.8935 5.91312 14.7405 5.57113 14.4585 5.33113C14.1735 5.07913 13.7865 4.95312 13.1445 4.95312C12.6765 4.95312 12.1095 5.05212 11.7825 5.19013C11.7555 5.60113 11.7255 6.02113 11.7075 6.44113C11.9295 6.45613 12.1785 6.51613 12.4185 6.51613H12.4275L12.5895 5.81713C12.5955 5.78113 12.6045 5.76912 12.6255 5.74812C12.6555 5.73012 12.6915 5.70913 12.7365 5.69113C12.8295 5.65513 12.9495 5.62813 13.0965 5.62813C13.2705 5.62813 13.4325 5.70612 13.5225 5.82312C13.6275 5.97012 13.6845 6.12313 13.6845 6.36013C13.6845 6.66913 13.5555 6.95413 13.3545 7.22713C13.1565 7.49413 12.8895 7.75213 12.6015 8.01013C12.3015 8.28913 12.0345 8.49913 11.5605 8.84713C11.6085 9.04213 11.6805 9.26713 11.7495 9.45613H12.6375C13.1535 9.45613 14.5875 9.46213 14.9145 9.46213C14.9145 9.46213 14.9145 9.46213 14.9145 9.45913C14.9415 9.20113 14.9625 8.90113 14.9625 8.63113L14.9505 8.62212L14.9445 8.63113Z" fill="#63686E"/>
<g style="mix-blend-mode:color-burn" opacity="0.2">
<path d="M18.3471 10.2152C17.5851 12.4382 16.4901 14.3312 14.9871 15.2132C14.4081 15.5522 13.7721 15.7412 13.0671 15.7412C8.54009 15.7412 6.67109 7.89017 6.40409 2.61617C6.39809 2.53517 6.39509 2.45417 6.39209 2.37617C6.37709 2.01017 6.37109 1.65917 6.37109 1.32617H10.6041L10.4031 2.08817C10.4031 2.08817 11.0271 17.0552 18.3471 10.2182V10.2152Z" fill="#777777"/>
</g>
<g style="mix-blend-mode:color-burn" opacity="0.2">
<path d="M15.1257 15.1262C9.86072 13.1942 8.03072 4.86324 7.48472 1.32324H6.76172C6.76172 1.65624 6.77072 2.01024 6.78272 2.37324C6.78572 2.45124 6.78872 2.53224 6.79472 2.61324C7.05872 7.81224 8.87672 15.5132 13.2627 15.7322L15.1257 15.1232V15.1262Z" fill="#777777"/>
</g>
<g style="mix-blend-mode:color-burn" opacity="0.3">
<path d="M19.764 1.32324C19.764 1.65624 19.755 2.00724 19.743 2.37324C19.737 2.52624 19.728 2.68524 19.719 2.84724C18.51 2.70624 15.234 2.37324 10.815 2.37324C8.028 2.37324 6.87 2.49024 6.408 2.61324C6.402 2.53224 6.399 2.45124 6.396 2.37324C6.381 2.00724 6.375 1.65624 6.375 1.32324H19.767H19.764Z" fill="#777777"/>
</g>
<path d="M20.6032 0.930176L20.4893 1.30218L20.2882 1.98018H5.84625L5.53125 0.930176H20.6032Z" fill="url(#paint5_linear_22692_2130)"/>
<path d="M15.3205 16.1972C15.3205 16.1972 15.2725 16.2362 15.1975 16.3022C15.0715 16.4132 14.8705 16.5992 14.7205 16.7882C14.6035 16.9382 14.5165 17.0852 14.5165 17.2022C14.5165 17.6642 14.4535 18.0992 14.3425 18.4802C14.3005 18.6302 14.2495 18.7682 14.1925 18.8972C14.1835 18.9152 14.1775 18.9362 14.1685 18.9542C14.1445 19.0082 14.1175 19.0592 14.0905 19.1102C13.8295 19.5992 13.4665 19.9022 13.0675 19.9022C12.8515 19.9022 12.6475 19.8152 12.4615 19.6562C12.2695 19.4912 12.1015 19.2542 11.9665 18.9572C11.7475 18.4862 11.6185 17.8742 11.6185 17.2052C11.6185 16.8482 10.8145 16.2002 10.8145 16.2002L10.8205 16.1822L11.1295 15.2012H15.0085L15.1645 15.6992L15.2785 16.0592L15.3175 16.1822L15.3235 16.2002L15.3205 16.1972Z" fill="#878C98"/>
<path d="M15.3154 16.1792H10.8184L11.1274 15.1982H15.0064L15.1624 15.6962L15.2764 16.0562L15.3154 16.1792Z" fill="url(#paint6_linear_22692_2130)"/>
<g style="mix-blend-mode:color-burn" opacity="0.2">
<path d="M12.4615 19.6532C11.9635 19.2272 11.6185 18.2912 11.6185 17.2022C11.6185 16.8452 10.8145 16.1972 10.8145 16.1972L11.1295 15.1982H15.0085C15.0085 15.1982 11.0725 15.3752 11.9635 16.3082C12.0235 16.4642 12.6535 16.5062 12.6535 16.5062C12.6745 16.4882 12.0625 18.7892 12.8515 18.9572C13.2295 19.0382 12.9055 19.3502 12.4675 19.6562L12.4615 19.6532Z" fill="#777777"/>
</g>
<path d="M14.4322 19.902H11.6992L11.9632 18.957H14.1652L14.2312 19.2L14.3872 19.776L14.4292 19.902H14.4322Z" fill="url(#paint7_linear_22692_2130)"/>
<path d="M15.0633 26.6223H11.0703L11.7003 19.9023H14.4333L14.4453 20.0313L15.0633 26.6223Z" fill="#878C98"/>
<path d="M16.2097 26.9881C15.8467 26.9611 15.4627 26.9401 15.0637 26.9221H15.0607C14.5657 26.9011 14.0497 26.8891 13.5157 26.8831C13.3717 26.8831 13.2247 26.8831 13.0777 26.8831C12.8227 26.8831 12.5707 26.8831 12.3247 26.8891C11.7757 26.8981 11.2477 26.9161 10.7467 26.9401C10.4647 26.9551 10.1917 26.9701 9.92773 26.9881L10.0237 26.6191H16.1137L16.1377 26.7181L16.2097 26.9881Z" fill="url(#paint8_linear_22692_2130)"/>
<path d="M20.052 27.8281H6.08398V29.0881H20.052V27.8281Z" fill="url(#paint9_linear_22692_2130)"/>
<path d="M20.052 27.8279H6.08398C6.18298 27.4619 7.72198 27.1439 9.92698 26.9879C10.659 26.9369 11.463 26.9009 12.315 26.8859C12.564 26.8829 12.819 26.8799 13.077 26.8799C14.202 26.8799 15.267 26.9159 16.209 26.9849C17.313 27.0629 18.249 27.1799 18.921 27.3239C19.149 27.3719 19.347 27.4229 19.509 27.4769C19.83 27.5849 20.019 27.7019 20.052 27.8219V27.8279Z" fill="#878C98"/>
<g style="mix-blend-mode:soft-light" opacity="0.7">
<path d="M15.3209 16.1973C15.3209 16.1973 15.2729 16.2363 15.1979 16.3023C14.3669 16.3143 13.2029 16.2513 12.7949 16.2453C13.0319 16.2363 13.2599 16.2123 13.4729 16.1793C14.2079 16.0623 14.7959 15.8283 15.1589 15.6963L15.2729 16.0563L15.3119 16.1793L15.3179 16.1973H15.3209Z" fill="#E8E8E8"/>
</g>
<g style="mix-blend-mode:soft-light" opacity="0.7">
<path d="M14.445 20.0309C13.953 19.9979 12.582 19.8989 12.582 19.8989L14.388 19.7729L14.43 19.8989L14.442 20.0309H14.445Z" fill="#E8E8E8"/>
</g>
<g style="mix-blend-mode:soft-light" opacity="0.7">
<path d="M16.138 26.7181L15.25 26.6221H16.114L16.138 26.7181Z" fill="#E8E8E8"/>
</g>
<g style="mix-blend-mode:soft-light" opacity="0.7">
<path d="M20.6035 0.930176L20.4895 1.30218L9.35352 0.930176H20.6035Z" fill="#E8E8E8"/>
</g>
<g style="mix-blend-mode:color-burn" opacity="0.3">
<path d="M12.8452 18.957L12.6172 19.902H11.6992L11.9662 18.957H12.8452Z" fill="#777777"/>
</g>
<g style="mix-blend-mode:color-burn" opacity="0.2">
<path d="M12.6183 19.9023L12.2823 26.6223H12.2133H11.0703L11.7003 19.9023H12.6183Z" fill="#777777"/>
</g>
<g style="mix-blend-mode:color-burn" opacity="0.2">
<path d="M12.0772 1.98018H5.84625L5.53125 0.930176H8.20725C7.91925 1.12218 7.08525 1.88718 12.0772 1.98018Z" fill="#777777"/>
</g>
<g style="mix-blend-mode:color-burn" opacity="0.2">
<path d="M6.74925 1.98018H5.84625L5.53125 0.930176H6.28725L6.74925 1.98018Z" fill="#777777"/>
</g>
<path style="mix-blend-mode:soft-light" opacity="0.8" d="M10.9449 9.41414C10.9449 9.41414 9.52886 6.14414 9.80486 2.99414H8.50586C8.50586 2.99414 8.83886 7.28714 10.9449 9.41414Z" fill="url(#paint10_linear_22692_2130)"/>
<g style="mix-blend-mode:color-burn" opacity="0.3">
<path d="M12.3202 26.8891C11.7712 26.8981 11.2432 26.9161 10.7422 26.9401L11.0692 26.6221H12.2812L12.3202 26.8891Z" fill="#777777"/>
</g>
<g style="mix-blend-mode:color-burn" opacity="0.2">
<path d="M10.7439 26.9402C10.7439 26.9402 8.71289 27.4952 8.71289 27.8282H11.2149C11.2149 27.8282 11.6379 26.9912 12.3249 26.8892L10.7469 26.9402H10.7439Z" fill="#777777"/>
</g>
<g style="mix-blend-mode:color-burn" opacity="0.3">
<path d="M11.2089 27.8281H8.71289V29.0881H11.2089V27.8281Z" fill="#777777"/>
</g>
<path style="mix-blend-mode:soft-light" opacity="0.8" d="M15.4551 11.0282C15.4551 11.0282 15.4641 10.9892 15.4671 10.9262C15.5241 10.0022 15.4551 2.99121 15.4551 2.99121H19.1691C19.1691 2.99121 19.2351 10.4342 15.4551 11.0252V11.0282Z" fill="url(#paint11_linear_22692_2130)"/>
<g style="mix-blend-mode:soft-light" opacity="0.7">
<path d="M15.3265 11.145C15.3835 10.221 15.3145 3.20996 15.3145 3.20996H16.7905C16.7845 4.84196 16.6465 9.19796 15.3265 11.145Z" fill="#E8E8E8"/>
</g>
<g style="mix-blend-mode:soft-light" opacity="0.7">
<path d="M15.8674 0.930176H13.0684V1.98018H15.8674V0.930176Z" fill="#E8E8E8"/>
</g>
<g style="mix-blend-mode:soft-light" opacity="0.7">
<path d="M17.2838 0.930176H16.5488V1.98018H17.2838V0.930176Z" fill="#E8E8E8"/>
</g>
<g style="mix-blend-mode:soft-light" opacity="0.7">
<path d="M23.7696 1.84814H22.8516V2.63714H23.7696V1.84814Z" fill="#E8E8E8"/>
</g>
<g style="mix-blend-mode:soft-light" opacity="0.7">
<path d="M23.7696 6.74707V8.16007C23.4846 8.53507 23.1786 8.88907 22.8516 9.22207V8.05207C23.1876 7.64707 23.4966 7.21207 23.7696 6.75007V6.74707Z" fill="#E8E8E8"/>
</g>
<g style="mix-blend-mode:soft-light" opacity="0.7">
<path d="M24.7146 1.84814H24.2676V2.63714H24.7146V1.84814Z" fill="#E8E8E8"/>
</g>
<g style="mix-blend-mode:soft-light" opacity="0.7">
<path d="M24.7146 4.6499V6.6689C24.5736 6.9329 24.4266 7.1909 24.2676 7.4399V5.7989C24.4386 5.4299 24.5886 5.0429 24.7146 4.6499Z" fill="#E8E8E8"/>
</g>
<g style="mix-blend-mode:soft-light" opacity="0.7">
<path d="M2.79358 1.84814H1.76758V2.63714H2.79358V1.84814Z" fill="#E8E8E8"/>
</g>
<g style="mix-blend-mode:soft-light" opacity="0.7">
<path d="M2.78967 7.26919V8.57719C2.41167 8.12419 2.06667 7.63819 1.76367 7.12219V5.34619C2.03967 6.03019 2.38467 6.67519 2.78967 7.27219V7.26919Z" fill="#E8E8E8"/>
</g>
<g style="mix-blend-mode:soft-light" opacity="0.7">
<path d="M3.82745 1.84814H3.31445V2.63714H3.82745V1.84814Z" fill="#E8E8E8"/>
</g>
<g style="mix-blend-mode:soft-light" opacity="0.7">
<path d="M3.82745 8.55312V9.65112C3.65045 9.49212 3.47945 9.32712 3.31445 9.15912V7.97412C3.47645 8.17512 3.64745 8.37012 3.82745 8.55612V8.55312Z" fill="#E8E8E8"/>
</g>
<g style="mix-blend-mode:soft-light" opacity="0.7">
<path d="M18.8042 14.9161C18.7262 14.9311 18.6512 14.9401 18.5732 14.9401C18.4562 14.9401 18.3422 14.9221 18.2312 14.8831C18.1502 14.4991 18.1232 14.0881 18.1172 13.7461C18.1652 13.8331 18.2192 13.9141 18.2762 13.9801L18.8072 14.9131L18.8042 14.9161Z" fill="#E8E8E8"/>
</g>
<g style="mix-blend-mode:soft-light" opacity="0.7">
<path d="M14.7186 26.6221H13.5156L13.8066 21.3691L14.7186 26.6221Z" fill="#E8E8E8"/>
</g>
<g style="mix-blend-mode:soft-light" opacity="0.7">
<path d="M13.1762 26.6221H12.9902V21.3691L13.1762 26.6221Z" fill="#E8E8E8"/>
</g>
<g style="mix-blend-mode:soft-light" opacity="0.3">
<path d="M15.0636 26.9251H15.0606C14.5656 26.9041 14.0496 26.8921 13.5156 26.8861V26.6221H14.7186L15.0636 26.9251Z" fill="#E8E8E8"/>
</g>
<g style="mix-blend-mode:soft-light" opacity="0.3">
<path d="M13.1755 26.6221L13.2775 26.8831H12.9355L12.9895 26.6221H13.1755Z" fill="#E8E8E8"/>
</g>
<g style="mix-blend-mode:soft-light" opacity="0.4">
<path d="M15.0636 26.9252C15.0636 26.9252 16.5786 27.2492 17.0076 27.8312H14.5566C14.5566 27.8312 14.2146 27.1532 13.5156 26.8862L15.0636 26.9252Z" fill="#E8E8E8"/>
</g>
<g style="mix-blend-mode:soft-light" opacity="0.3">
<path d="M13.2775 26.8828C13.2775 26.8828 13.8985 27.2038 13.9345 27.8428C13.9345 27.8278 13.3825 27.8278 13.3825 27.8278C13.3825 27.8278 13.3945 27.3208 12.9355 26.8828H13.2775Z" fill="#E8E8E8"/>
</g>
<g style="mix-blend-mode:soft-light" opacity="0.3">
<path d="M13.9348 27.8281H13.3828V29.0881H13.9348V27.8281Z" fill="#E8E8E8"/>
</g>
<g style="mix-blend-mode:soft-light" opacity="0.3">
<path d="M17.0106 27.8281H14.5566V29.0881H17.0106V27.8281Z" fill="#E8E8E8"/>
</g>
<g style="mix-blend-mode:soft-light" opacity="0.3">
<path d="M20.0527 27.8279V28.6019C19.9357 28.1249 18.3607 27.8279 18.2227 27.8279C18.8917 27.7769 19.2877 27.6179 19.5097 27.4829C19.8307 27.5909 20.0197 27.7079 20.0527 27.8279Z" fill="#E8E8E8"/>
</g>
<g style="mix-blend-mode:color-burn" opacity="0.2">
<path d="M20.052 29.0881H6.08398V27.8281H9.81598C9.81598 27.8281 6.19198 29.0881 20.055 29.0881H20.052Z" fill="#777777"/>
</g>
<g style="mix-blend-mode:color-burn" opacity="0.2">
<path d="M20.052 27.8282H6.08398C6.18298 27.4622 7.72198 27.1442 9.92698 26.9882C10.659 26.9372 11.463 26.9012 12.315 26.8862C12.267 27.1262 12.774 27.8162 20.052 27.8252V27.8282Z" fill="#777777"/>
</g>
<g style="mix-blend-mode:color-burn" opacity="0.2">
<path d="M13.2686 16.998C13.6436 17.19 14.4056 18.024 13.6616 18.876C13.5476 18.909 13.4186 18.939 13.2686 18.957C13.3646 18.957 13.7816 18.957 14.0906 19.113C14.1416 19.137 14.1926 19.167 14.2346 19.2L14.1686 18.957C14.1776 18.939 14.1836 18.918 14.1926 18.9C14.2046 18.873 14.2136 18.843 14.2256 18.816C14.2376 18.783 14.2526 18.75 14.2646 18.714C14.2916 18.639 14.3186 18.564 14.3396 18.483C14.4506 18.102 14.5136 17.667 14.5136 17.205C14.5136 17.088 14.6006 16.938 14.7176 16.791C14.3336 16.905 13.8206 17.01 13.2656 17.001L13.2686 16.998Z" fill="#777777"/>
</g>
</g>
<defs>
<linearGradient id="paint0_linear_22692_2130" x1="8.196" y1="7.98614" x2="-3.819" y2="9.30314" gradientUnits="userSpaceOnUse">
<stop stop-color="#717A80"/>
<stop offset="1" stop-color="#878C98"/>
</linearGradient>
<linearGradient id="paint1_linear_22692_2130" x1="6.27603" y1="8.82014" x2="-1.16997" y2="-2.24686" gradientUnits="userSpaceOnUse">
<stop offset="0.01" stop-color="#828A93"/>
<stop offset="1" stop-color="#878998"/>
</linearGradient>
<linearGradient id="paint2_linear_22692_2130" x1="16.7904" y1="8.46328" x2="25.7064" y2="8.46328" gradientUnits="userSpaceOnUse">
<stop stop-color="#717A80"/>
<stop offset="1" stop-color="#878C98"/>
</linearGradient>
<linearGradient id="paint3_linear_22692_2130" x1="17.1029" y1="8.39422" x2="26.0189" y2="8.39422" gradientUnits="userSpaceOnUse">
<stop offset="0.01" stop-color="#828A93"/>
<stop offset="1" stop-color="#878998"/>
</linearGradient>
<linearGradient id="paint4_linear_22692_2130" x1="6.37109" y1="8.53224" x2="19.7631" y2="8.53224" gradientUnits="userSpaceOnUse">
<stop stop-color="#949BA4"/>
<stop offset="0.44" stop-color="#878C98"/>
<stop offset="1" stop-color="#878998"/>
</linearGradient>
<linearGradient id="paint5_linear_22692_2130" x1="5.53125" y1="1.45518" x2="20.6032" y2="1.45518" gradientUnits="userSpaceOnUse">
<stop stop-color="#949BA4"/>
<stop offset="0.44" stop-color="#878C98"/>
<stop offset="1" stop-color="#878998"/>
</linearGradient>
<linearGradient id="paint6_linear_22692_2130" x1="10.8184" y1="15.6872" x2="15.3154" y2="15.6872" gradientUnits="userSpaceOnUse">
<stop stop-color="#899199"/>
<stop offset="0.44" stop-color="#878C98"/>
<stop offset="1" stop-color="#878998"/>
</linearGradient>
<linearGradient id="paint7_linear_22692_2130" x1="11.8072" y1="19.446" x2="15.8512" y2="19.395" gradientUnits="userSpaceOnUse">
<stop stop-color="#8E969E"/>
<stop offset="0.44" stop-color="#878C98"/>
<stop offset="1" stop-color="#878998"/>
</linearGradient>
<linearGradient id="paint8_linear_22692_2130" x1="9.92773" y1="26.8051" x2="16.2097" y2="26.8051" gradientUnits="userSpaceOnUse">
<stop stop-color="#878E98"/>
<stop offset="0.44" stop-color="#878C98"/>
<stop offset="1" stop-color="#878998"/>
</linearGradient>
<linearGradient id="paint9_linear_22692_2130" x1="6.08398" y1="28.4581" x2="20.052" y2="28.4581" gradientUnits="userSpaceOnUse">
<stop stop-color="#8E969E"/>
<stop offset="0.44" stop-color="#878C98"/>
<stop offset="1" stop-color="#878998"/>
</linearGradient>
<linearGradient id="paint10_linear_22692_2130" x1="8.50586" y1="6.20414" x2="10.9449" y2="6.20414" gradientUnits="userSpaceOnUse">
<stop stop-color="#E8E8E8"/>
<stop offset="1" stop-color="#E8E8E8"/>
</linearGradient>
<linearGradient id="paint11_linear_22692_2130" x1="15.4551" y1="7.01121" x2="19.1721" y2="7.01121" gradientUnits="userSpaceOnUse">
<stop stop-color="#E8E8E8"/>
<stop offset="1" stop-color="#E8E8E8"/>
</linearGradient>
<clipPath id="clip0_22692_2130">
<rect width="26.019" height="28.158" fill="white" transform="translate(0 0.930176)"/>
</clipPath>
</defs>
</svg>
