<svg width="27" height="29" viewBox="0 0 27 29" fill="none" xmlns="http://www.w3.org/2000/svg">
<g clip-path="url(#clip0_22692_2211)">
<path d="M8.358 13.7709C8.358 13.7709 8.343 13.7889 8.337 13.7949C8.205 13.9449 8.058 14.0559 7.899 14.1309C7.755 14.1969 7.602 14.2329 7.446 14.2329C7.368 14.2329 7.293 14.2239 7.215 14.2089L7.746 13.2759C8.085 12.8889 8.232 12.0699 8.052 11.5509C7.92 11.1729 7.683 11.1279 7.605 11.1159L7.572 11.1099C6.087 10.7079 4.746 9.95486 3.618 8.94686C3.441 8.78786 3.27 8.62286 3.105 8.45486C2.925 8.26886 2.748 8.07386 2.58 7.87286C2.202 7.41986 1.86 6.93386 1.557 6.41786C0.714 4.98386 0.177 3.33086 0.036 1.56686L0 1.14086L0.21 1.00586L4.65 1.14086L4.632 1.55186C4.632 1.55186 4.596 2.67386 5.244 3.36086C5.391 3.51686 5.565 3.64286 5.766 3.73286C6.015 3.84386 6.306 3.90686 6.633 3.91286L6.843 4.77086C6.537 4.76186 6.027 4.65086 5.766 4.57286C5.334 4.44086 4.965 4.21586 4.668 3.89486C4.077 3.26486 3.909 2.42186 3.864 1.92686H0.861C0.975 2.87486 1.212 3.78686 1.557 4.63586C1.833 5.31986 2.178 5.96486 2.58 6.56186C2.745 6.80486 2.922 7.04186 3.105 7.26686C3.267 7.46786 3.438 7.66286 3.618 7.84886C4.752 9.03086 6.168 9.90686 7.764 10.3419C7.83 10.3539 7.896 10.3749 7.956 10.3959C8.346 10.5339 8.64 10.8459 8.796 11.2929C9.066 12.0669 8.868 13.1709 8.358 13.7739V13.7709Z" fill="url(#paint0_linear_22692_2211)"/>
<g style="mix-blend-mode:color-burn" opacity="0.3">
<path d="M4.20069 1.66884L3.86169 1.92984H0.933687L0.804688 1.46484L4.20069 1.66884Z" fill="#6D6D6D"/>
</g>
<g style="mix-blend-mode:color-burn" opacity="0.2">
<path d="M8.35784 13.771C8.35784 13.771 8.34284 13.789 8.33684 13.795C8.20484 13.945 8.05784 14.056 7.89884 14.131C7.75484 14.197 7.60184 14.233 7.44584 14.233C7.36784 14.233 7.29284 14.224 7.21484 14.209L7.42484 14.074L8.36084 13.771H8.35784Z" fill="#6D6D6D"/>
</g>
<path d="M8.54403 13.6629C8.41203 13.8129 8.26503 13.9239 8.10603 13.9989C7.96203 14.0649 7.80903 14.1009 7.65303 14.1009C7.57503 14.1009 7.50003 14.0919 7.42203 14.0769L7.95303 13.1439C8.29203 12.7569 8.43903 11.9379 8.25903 11.4189C8.12703 11.0409 7.89003 10.9959 7.81203 10.9809L7.78203 10.9749C6.29703 10.5729 4.95603 9.81986 3.82803 8.81186C3.65103 8.65286 3.48003 8.48786 3.31503 8.31986C3.13503 8.13386 2.95803 7.93886 2.79003 7.73786C2.41203 7.28486 2.06703 6.79886 1.76703 6.28286C0.924031 4.84886 0.387031 3.19586 0.243031 1.43186L0.207031 1.00586H4.85703L4.83903 1.41686C4.83903 1.41686 4.80303 2.53886 5.45103 3.22586C5.59803 3.38186 5.77203 3.50486 5.97303 3.59786C6.22203 3.70886 6.51303 3.77186 6.84003 3.77786L6.82203 4.56686C6.51603 4.55786 6.23403 4.51586 5.97303 4.43786C5.54103 4.30586 5.17203 4.08086 4.87203 3.75986C4.28103 3.12986 4.11303 2.28686 4.06803 1.79186H1.07103C1.18503 2.73986 1.42203 3.65186 1.76703 4.50086C2.04303 5.18486 2.38803 5.82986 2.79003 6.42686C2.95503 6.66986 3.12903 6.90686 3.31503 7.13186C3.47703 7.33286 3.64803 7.52786 3.82803 7.71386C4.96203 8.89586 6.37803 9.77186 7.97403 10.2069C8.04003 10.2189 8.10603 10.2399 8.16603 10.2609C8.55603 10.3989 8.85303 10.7109 9.00903 11.1579C9.28203 11.9439 9.07503 13.0659 8.55003 13.6629H8.54403Z" fill="url(#paint1_linear_22692_2211)"/>
<g style="mix-blend-mode:color-burn" opacity="0.3">
<path d="M8.54347 13.6627C8.41147 13.8127 8.26447 13.9237 8.10547 13.9987C8.91847 12.5437 8.47447 11.0107 8.16247 10.2607C8.55247 10.3987 8.84947 10.7107 9.00547 11.1577C9.27847 11.9437 9.07147 13.0657 8.54647 13.6627H8.54347Z" fill="#6D6D6D"/>
</g>
<g style="mix-blend-mode:color-burn" opacity="0.3">
<path d="M5.97266 3.59766C6.22166 3.70866 6.51266 3.77166 6.83966 3.77766L6.82166 4.56666C6.51566 4.55766 6.23366 4.51566 5.97266 4.43766V3.59766Z" fill="#6D6D6D"/>
</g>
<path d="M25.7064 1.141L25.6704 1.567C25.5444 3.148 25.0974 4.639 24.4014 5.962C24.2604 6.226 24.1134 6.484 23.9544 6.733C23.7984 6.979 23.6304 7.219 23.4564 7.453C23.1714 7.828 22.8654 8.182 22.5384 8.515C21.3264 9.742 19.8204 10.651 18.1344 11.107L18.1014 11.113C18.0234 11.128 17.7834 11.17 17.6544 11.548C17.5074 11.977 17.5794 12.613 17.8014 13.039C17.8494 13.126 17.9034 13.207 17.9604 13.273L18.8004 14.071L18.4914 14.206C18.4134 14.221 18.3354 14.23 18.2604 14.23C18.1434 14.23 18.0294 14.212 17.9184 14.173C17.8074 14.134 17.7024 14.077 17.6004 14.002C17.5194 13.945 17.4444 13.873 17.3724 13.792C16.8474 13.195 16.6404 12.073 16.9134 11.287C17.0784 10.813 17.3994 10.492 17.8254 10.366C17.8644 10.354 17.9064 10.345 17.9454 10.336C19.7604 9.841 21.3444 8.779 22.5414 7.339C22.8774 6.934 23.1864 6.499 23.4594 6.037C23.6394 5.731 23.8074 5.416 23.9574 5.086C24.1284 4.717 24.2784 4.333 24.4044 3.937C24.6114 3.292 24.7614 2.617 24.8454 1.924H21.8454C21.8004 2.419 21.6324 3.262 21.0414 3.892C20.7384 4.219 20.3634 4.447 19.9224 4.576C19.6674 4.651 19.3914 4.693 19.0944 4.699L19.0764 3.91C19.3944 3.901 19.6764 3.844 19.9224 3.736C20.1324 3.646 20.3154 3.517 20.4684 3.352C21.1074 2.671 21.0774 1.555 21.0774 1.546L21.0594 1.135L21.3684 1L25.7064 1.135V1.141Z" fill="url(#paint2_linear_22692_2211)"/>
<g style="mix-blend-mode:color-burn" opacity="0.2">
<path d="M25.2152 1.74976L24.8462 1.92976H21.8672V1.55176L25.2152 1.74976Z" fill="#6D6D6D"/>
</g>
<path d="M26.0191 1.00593L25.9831 1.43193C25.8571 3.01293 25.4101 4.50393 24.7141 5.82693C24.5731 6.09093 24.4261 6.34893 24.2671 6.59793C24.1081 6.84693 23.9431 7.08393 23.7691 7.31793C23.4871 7.69293 23.1781 8.04693 22.8511 8.37993C21.6391 9.60693 20.1331 10.5159 18.4471 10.9719L18.4141 10.9779C18.3361 10.9929 18.0991 11.0349 17.9671 11.4159C17.8201 11.8449 17.8921 12.4809 18.1141 12.9069C18.1621 12.9939 18.2161 13.0749 18.2731 13.1409L18.8041 14.0739C18.7261 14.0889 18.6511 14.0979 18.5731 14.0979C18.4561 14.0979 18.3421 14.0799 18.2281 14.0409C18.1171 14.0019 18.0091 13.9449 17.9101 13.8699C17.8291 13.8129 17.7541 13.7409 17.6821 13.6599C17.1571 13.0629 16.9501 11.9379 17.2201 11.1549C17.3851 10.6809 17.7061 10.3599 18.1321 10.2339C18.1711 10.2219 18.2131 10.2129 18.2521 10.2039C20.0671 9.70893 21.6511 8.64693 22.8481 7.20693C23.1841 6.80193 23.4931 6.36693 23.7661 5.90493C23.9461 5.59893 24.1141 5.28393 24.2641 4.95393C24.4351 4.58493 24.5851 4.19793 24.7111 3.80493C24.9181 3.15993 25.0681 2.48493 25.1521 1.79193H22.1551C22.1101 2.28693 21.9421 3.12993 21.3511 3.75993C21.0481 4.08693 20.6731 4.31493 20.2321 4.44393C19.9771 4.51893 19.7011 4.56093 19.4041 4.56693L19.3861 3.77793C19.7071 3.77193 19.9891 3.71193 20.2351 3.60393C20.4451 3.51393 20.6281 3.38493 20.7811 3.21993C21.4201 2.53893 21.3901 1.42293 21.3901 1.41393L21.3721 1.00293H26.0221L26.0191 1.00593Z" fill="url(#paint3_linear_22692_2211)"/>
<g style="mix-blend-mode:color-burn" opacity="0.3">
<path d="M17.9101 13.8699C17.8291 13.8129 17.7541 13.7409 17.6821 13.6599C17.1571 13.0629 16.9501 11.9379 17.2201 11.1549C17.3851 10.6809 17.7061 10.3599 18.1321 10.2339C17.7901 10.8939 17.2141 12.3609 17.9071 13.8699H17.9101Z" fill="#6D6D6D"/>
</g>
<g style="mix-blend-mode:color-burn" opacity="0.2">
<path d="M20.2327 3.607V4.444C19.9777 4.519 19.7017 4.561 19.4047 4.567L19.3867 3.778C19.7077 3.772 19.9897 3.712 20.2357 3.604L20.2327 3.607Z" fill="#6D6D6D"/>
</g>
<path d="M19.7631 0.480957C19.7631 0.813957 19.7541 1.16496 19.7421 1.53096C19.7361 1.68396 19.7271 1.84296 19.7181 2.00496C19.5831 4.28796 19.1541 7.01496 18.3471 9.37296C17.2911 12.451 15.5931 14.899 13.0671 14.899C8.54009 14.899 6.67109 7.04796 6.40409 1.77396C6.39809 1.69296 6.39509 1.61196 6.39209 1.53396C6.37709 1.16796 6.37109 0.816957 6.37109 0.483957H19.7631V0.480957Z" fill="url(#paint4_linear_22692_2211)"/>
<path d="M14.9273 6.52866C14.7773 6.38166 14.5733 6.26166 14.3123 6.18966C14.2583 6.17466 14.2013 6.16266 14.1443 6.15366V6.10866C14.2703 6.07266 14.3873 6.02766 14.4953 5.97666C14.6213 5.91066 14.7323 5.83566 14.8283 5.74566C15.0203 5.55966 15.1343 5.31966 15.1343 5.03466C15.1343 4.67766 14.9093 4.38666 14.6603 4.22166C14.3543 4.01766 13.9553 3.95166 13.4063 3.95166C12.8573 3.95166 12.3173 4.04766 11.9663 4.18566C11.9633 4.22166 11.7983 4.35666 11.7983 4.39266C11.7983 4.41666 11.7953 4.43466 11.7953 4.45866C11.7953 4.47366 11.7953 4.48866 11.7953 4.50666C11.8043 4.79766 11.9183 5.04066 11.9063 5.34966C12.0143 5.36466 12.0983 5.43666 12.1883 5.50266C12.2723 5.56866 12.3593 5.62866 12.4643 5.63766C12.4913 5.63766 12.6083 5.43066 12.6323 5.43066L12.6503 5.36166L12.7643 4.86666L12.7853 4.77666C12.7943 4.74666 12.8003 4.73466 12.8213 4.71966C12.8273 4.71366 12.8303 4.71066 12.8363 4.70766C12.9323 4.64166 13.0793 4.61166 13.2293 4.61166C13.4393 4.61166 13.6163 4.63566 13.7543 4.78566C13.8563 4.88766 13.8923 5.04066 13.8923 5.17266C13.8923 5.38266 13.8323 5.56266 13.6613 5.69766C13.5503 5.78466 13.3973 5.85366 13.1813 5.89866C13.0013 5.93766 12.7763 5.95866 12.5033 5.96166C12.5033 5.96766 12.4973 5.97366 12.4913 5.98566C12.4553 6.03666 12.3323 6.14466 12.3323 6.17166C12.3323 6.35466 12.4973 6.44466 12.5183 6.61866C12.5183 6.62466 12.5183 6.63366 12.5183 6.63966H12.9263C13.0073 6.63966 13.0823 6.64566 13.1543 6.65466C13.6163 6.71166 13.9283 6.95766 13.9283 7.38366C13.9283 7.39866 13.9283 7.41366 13.9283 7.42866C13.9223 7.53966 13.8953 7.64766 13.8413 7.74066C13.8173 7.78266 13.7903 7.82166 13.7543 7.85766C13.7423 7.86966 13.7303 7.88166 13.7183 7.89066C13.7093 7.89966 13.7003 7.90566 13.6883 7.91466C13.5503 8.02266 13.3403 8.07966 13.0703 8.07966C12.9683 8.07966 12.8303 8.04966 12.7583 8.01366C12.7343 7.99866 12.7133 7.98366 12.7073 7.94766L12.5393 7.26366C12.5393 7.26366 12.5243 7.26666 12.5153 7.26666C12.3293 7.29366 12.1403 7.32366 11.9633 7.35366C11.9003 7.36566 11.8403 7.37466 11.7833 7.38666C11.7863 7.42266 11.6123 7.55766 11.6153 7.59666C11.6543 7.97466 11.8823 8.26266 11.9363 8.64666C12.0173 8.66466 12.1073 8.67666 12.2003 8.68866C12.2003 8.68866 12.2013 8.68866 12.2033 8.68866C12.4523 8.71866 12.7283 8.72766 12.9263 8.72766C13.0643 8.72766 13.1963 8.72166 13.3223 8.71566C13.7543 8.68866 14.1203 8.61066 14.3873 8.48766C14.4773 8.44566 14.5553 8.40066 14.6213 8.34966C14.6663 8.31666 14.7083 8.28366 14.7503 8.24766C14.7593 8.24166 14.7653 8.23566 14.7713 8.22966C14.8073 8.19666 14.8433 8.16366 14.8793 8.13066C14.9693 8.04066 15.0443 7.94166 15.1013 7.82766C15.1853 7.66866 15.2333 7.48566 15.2333 7.26666C15.2333 7.01166 15.1313 6.75066 14.9183 6.54366L14.9273 6.52866Z" fill="#5D2A14"/>
<path d="M14.8038 6.7809C14.6208 6.5829 14.3478 6.4269 13.9758 6.3579V6.3129C14.0958 6.2799 14.2068 6.2379 14.3118 6.1869C14.5368 6.0789 14.7138 5.9259 14.8278 5.7399C14.9178 5.5929 14.9658 5.4249 14.9658 5.2359C14.9658 4.8789 14.7408 4.5879 14.4918 4.4199C14.1858 4.2159 13.7868 4.1499 13.2408 4.1499C12.6948 4.1499 12.1488 4.2429 11.8008 4.3809C11.8008 4.4049 11.7978 4.4229 11.7978 4.4469C11.7978 4.4589 11.7948 4.4739 11.7948 4.4859C11.7768 4.7289 11.7648 4.9749 11.7558 5.2209C11.7498 5.3289 11.7468 5.4369 11.7438 5.5449C11.8668 5.5659 11.9958 5.5809 12.1278 5.5929C12.2418 5.6049 12.3588 5.6169 12.4728 5.6259L12.5598 5.2539L12.6258 4.9719C12.6318 4.9419 12.6408 4.9269 12.6618 4.9149C12.6918 4.8909 12.7308 4.8699 12.7728 4.8549C12.8598 4.8219 12.9618 4.8069 13.0698 4.8069C13.2798 4.8069 13.4568 4.8279 13.5948 4.9809C13.6968 5.0829 13.7328 5.2359 13.7328 5.3679C13.7328 5.4819 13.7148 5.5899 13.6698 5.6859C13.6068 5.8179 13.4958 5.9259 13.3098 6.0069C13.1538 6.0759 12.9438 6.1209 12.6708 6.1419C12.5718 6.1509 12.4608 6.1539 12.3408 6.1539C12.3408 6.2379 12.3408 6.3279 12.3438 6.4179C12.3468 6.5559 12.3528 6.6999 12.3618 6.8289H12.7698C13.3518 6.8289 13.7748 7.0779 13.7748 7.5729C13.7748 7.6569 13.7628 7.7349 13.7388 7.8099C13.7298 7.8399 13.7178 7.8699 13.7028 7.8969C13.6698 7.9659 13.6218 8.0289 13.5648 8.0829C13.4268 8.2059 13.2078 8.2719 12.9168 8.2719H12.9078C12.8058 8.2719 12.6768 8.2419 12.6048 8.2059C12.5808 8.1909 12.5598 8.1759 12.5538 8.1399L12.4818 7.8399L12.3888 7.4559C12.3888 7.4559 12.3828 7.4559 12.3798 7.4559C12.2988 7.4679 12.2178 7.4799 12.1368 7.4919C11.9628 7.5189 11.7918 7.5489 11.6328 7.5789C11.6718 7.9599 11.7198 8.3439 11.7708 8.7309C11.7738 8.7639 11.7798 8.7999 11.7828 8.8359C12.0828 8.9019 12.4968 8.9169 12.7728 8.9169C13.0488 8.9169 13.2888 8.9019 13.5138 8.8689C13.9278 8.8089 14.2578 8.6979 14.4708 8.5389C14.4708 8.5389 14.4718 8.5389 14.4738 8.5389C14.5878 8.4519 14.6958 8.3589 14.7888 8.2539C14.8248 8.2089 14.8608 8.1639 14.8938 8.1129C14.9658 8.0049 15.0198 7.8819 15.0498 7.7409C15.0678 7.6539 15.0798 7.5579 15.0798 7.4559C15.0798 7.2189 14.9928 6.9789 14.8098 6.7809H14.8038Z" fill="#843C1D"/>
<g style="mix-blend-mode:color-burn" opacity="0.2">
<path d="M18.3471 9.37289C17.5851 11.5959 16.4901 13.4889 14.9871 14.3709C14.4081 14.7099 13.7721 14.8989 13.0671 14.8989C8.54009 14.8989 6.67109 7.04789 6.40409 1.77389C6.39809 1.69289 6.39509 1.61189 6.39209 1.53389C6.37709 1.16789 6.37109 0.816887 6.37109 0.483887H10.6041L10.4031 1.24589C10.4031 1.24589 11.0271 16.2129 18.3471 9.37589V9.37289Z" fill="#6D6D6D"/>
</g>
<g style="mix-blend-mode:color-burn" opacity="0.2">
<path d="M15.1257 14.284C9.86072 12.352 8.03072 4.02096 7.48472 0.480957H6.76172C6.76172 0.813957 6.77072 1.16796 6.78272 1.53096C6.78572 1.60896 6.78872 1.68996 6.79472 1.77096C7.05872 6.96996 8.87672 14.671 13.2627 14.89L15.1257 14.281V14.284Z" fill="#6D6D6D"/>
</g>
<g style="mix-blend-mode:color-burn" opacity="0.3">
<path d="M19.764 0.480957C19.764 0.813957 19.755 1.16496 19.743 1.53096C19.737 1.68396 19.728 1.84296 19.719 2.00496C18.51 1.86396 15.234 1.53096 10.815 1.53096C8.028 1.53096 6.867 1.64796 6.408 1.77096C6.402 1.68996 6.399 1.60896 6.396 1.53096C6.381 1.16496 6.375 0.813957 6.375 0.480957H19.767H19.764Z" fill="#6D6D6D"/>
</g>
<path d="M20.6002 0.0878906L20.4892 0.459891L20.2852 1.13789H5.84625L5.53125 0.0878906H20.6002Z" fill="url(#paint5_linear_22692_2211)"/>
<path d="M15.3205 15.3549C15.3205 15.3549 15.2725 15.3939 15.1975 15.4599C15.0715 15.5709 14.8705 15.7569 14.7205 15.9459C14.6035 16.0959 14.5165 16.2429 14.5165 16.3599C14.5165 16.8219 14.4535 17.2569 14.3425 17.6379C14.3005 17.7879 14.2495 17.9259 14.1925 18.0549C14.1835 18.0729 14.1775 18.0939 14.1685 18.1119C14.1445 18.1659 14.1175 18.2169 14.0905 18.2679C13.8295 18.7569 13.4665 19.0599 13.0675 19.0599C12.8515 19.0599 12.6475 18.9729 12.4615 18.8139C12.2695 18.6489 12.1015 18.4119 11.9665 18.1149C11.7475 17.6439 11.6185 17.0319 11.6185 16.3629C11.6185 16.0059 10.8145 15.3579 10.8145 15.3579L10.8205 15.3399L11.1295 14.3589H15.0085L15.1645 14.8569L15.2785 15.2169L15.3175 15.3399L15.3235 15.3579L15.3205 15.3549Z" fill="#C27337"/>
<path d="M15.3154 15.337H10.8184L11.1274 14.356H15.0064L15.1624 14.854L15.2764 15.214L15.3154 15.337Z" fill="url(#paint6_linear_22692_2211)"/>
<g style="mix-blend-mode:color-burn" opacity="0.2">
<path d="M12.4615 18.811C11.9635 18.385 11.6185 17.449 11.6185 16.36C11.6185 16.003 10.8145 15.355 10.8145 15.355L11.1295 14.356H15.0085C15.0085 14.356 11.0725 14.533 11.9635 15.466C12.0235 15.622 12.6535 15.664 12.6535 15.664C12.6745 15.646 12.0625 17.947 12.8515 18.115C13.2265 18.196 12.9055 18.508 12.4675 18.814L12.4615 18.811Z" fill="#6D6D6D"/>
</g>
<path d="M14.4322 19.0597H11.6992L11.9632 18.1147H14.1652L14.2312 18.3577L14.3872 18.9337L14.4292 19.0597H14.4322Z" fill="url(#paint7_linear_22692_2211)"/>
<path d="M15.0633 25.7801H11.0703L11.7003 19.0601H14.4333L14.4453 19.1891L15.0633 25.7801Z" fill="#C27337"/>
<path d="M16.2087 26.1459C15.8457 26.1189 15.4617 26.0979 15.0627 26.0799C14.5677 26.0589 14.0517 26.0469 13.5177 26.0409C13.3737 26.0409 13.2267 26.0409 13.0797 26.0409C12.8247 26.0409 12.5727 26.0409 12.3267 26.0469C11.7777 26.0559 11.2497 26.0739 10.7487 26.0979C10.4697 26.1129 10.1937 26.1279 9.92969 26.1459L10.0257 25.7769H16.1157L16.1397 25.8759L16.2117 26.1459H16.2087Z" fill="url(#paint8_linear_22692_2211)"/>
<path d="M20.052 26.9858H6.08398V28.2458H20.052V26.9858Z" fill="url(#paint9_linear_22692_2211)"/>
<path d="M20.052 26.9856H6.08398C6.18298 26.6196 7.72198 26.3016 9.92698 26.1456C10.659 26.0946 11.466 26.0586 12.315 26.0436C12.564 26.0406 12.819 26.0376 13.077 26.0376C14.202 26.0376 15.267 26.0736 16.212 26.1426C17.316 26.2206 18.249 26.3376 18.924 26.4816C19.152 26.5296 19.35 26.5806 19.515 26.6346C19.833 26.7426 20.025 26.8596 20.055 26.9796L20.052 26.9856Z" fill="#C27337"/>
<g style="mix-blend-mode:soft-light" opacity="0.7">
<path d="M15.3209 15.355C15.3209 15.355 15.2729 15.394 15.1979 15.46C14.3669 15.472 13.2029 15.409 12.7949 15.403C13.0319 15.394 13.2599 15.37 13.4729 15.337C14.2079 15.22 14.7959 14.986 15.1589 14.854L15.2729 15.214L15.3119 15.337L15.3179 15.355H15.3209Z" fill="#D9D9D9"/>
</g>
<g style="mix-blend-mode:soft-light" opacity="0.7">
<path d="M14.445 19.1887C13.953 19.1557 12.582 19.0567 12.582 19.0567L14.388 18.9307L14.43 19.0567L14.442 19.1887H14.445Z" fill="#D9D9D9"/>
</g>
<g style="mix-blend-mode:soft-light" opacity="0.7">
<path d="M16.138 25.8758L15.25 25.7798H16.114L16.138 25.8758Z" fill="#D9D9D9"/>
</g>
<g style="mix-blend-mode:soft-light" opacity="0.7">
<path d="M20.6005 0.0878906L20.4895 0.459891L9.35352 0.0878906H20.6005Z" fill="#D9D9D9"/>
</g>
<g style="mix-blend-mode:color-burn" opacity="0.3">
<path d="M12.8452 18.1147L12.6142 19.0597H11.6992L11.9662 18.1147H12.8452Z" fill="#6D6D6D"/>
</g>
<g style="mix-blend-mode:color-burn" opacity="0.2">
<path d="M12.6153 19.0601L12.2823 25.7801H12.2133H11.0703L11.7003 19.0601H12.6153Z" fill="#6D6D6D"/>
</g>
<g style="mix-blend-mode:color-burn" opacity="0.2">
<path d="M12.0772 1.13789H5.84625L5.53125 0.0878906H8.20725C7.91925 0.279891 7.08225 1.04489 12.0772 1.13789Z" fill="#6D6D6D"/>
</g>
<g style="mix-blend-mode:color-burn" opacity="0.2">
<path d="M6.74925 1.13789H5.84625L5.53125 0.0878906H6.28725L6.74925 1.13789Z" fill="#6D6D6D"/>
</g>
<path style="mix-blend-mode:soft-light" opacity="0.8" d="M10.9449 8.57186C10.9449 8.57186 9.52886 5.30186 9.80486 2.15186H8.50586C8.50586 2.15186 8.83886 6.44486 10.9479 8.57186H10.9449Z" fill="url(#paint10_linear_22692_2211)"/>
<g style="mix-blend-mode:color-burn" opacity="0.3">
<path d="M12.3202 26.0468C11.7712 26.0558 11.2432 26.0738 10.7422 26.0978L11.0692 25.7798H12.2812L12.3202 26.0468Z" fill="#6D6D6D"/>
</g>
<g style="mix-blend-mode:color-burn" opacity="0.2">
<path d="M10.7439 26.0979C10.7439 26.0979 8.71289 26.6529 8.71289 26.9859H11.2149C11.2149 26.9859 11.6379 26.1489 12.3249 26.0469L10.7469 26.0979H10.7439Z" fill="#6D6D6D"/>
</g>
<g style="mix-blend-mode:color-burn" opacity="0.3">
<path d="M11.2089 26.9858H8.71289V28.2458H11.2089V26.9858Z" fill="#6D6D6D"/>
</g>
<path style="mix-blend-mode:soft-light" opacity="0.8" d="M15.4551 10.1859C15.4551 10.1859 15.4641 10.1469 15.4671 10.0839C15.5241 9.15993 15.4551 2.14893 15.4551 2.14893H19.1691C19.1691 2.14893 19.2351 9.59193 15.4551 10.1829V10.1859Z" fill="url(#paint11_linear_22692_2211)"/>
<g style="mix-blend-mode:soft-light" opacity="0.7">
<path d="M15.3265 10.3027C15.3835 9.37867 15.3145 2.36768 15.3145 2.36768H16.7905C16.7845 3.99968 16.6465 8.35568 15.3265 10.3027Z" fill="#D9D9D9"/>
</g>
<g style="mix-blend-mode:soft-light" opacity="0.7">
<path d="M15.8674 0.0878906H13.0684V1.13789H15.8674V0.0878906Z" fill="#D9D9D9"/>
</g>
<g style="mix-blend-mode:soft-light" opacity="0.7">
<path d="M17.2838 0.0878906H16.5488V1.13789H17.2838V0.0878906Z" fill="#D9D9D9"/>
</g>
<g style="mix-blend-mode:soft-light" opacity="0.7">
<path d="M23.7696 1.00586H22.8516V1.79486H23.7696V1.00586Z" fill="#D9D9D9"/>
</g>
<g style="mix-blend-mode:soft-light" opacity="0.7">
<path d="M23.7696 5.90479V7.31779C23.4876 7.69279 23.1786 8.04679 22.8516 8.37979V7.20979C23.1876 6.80479 23.4966 6.36979 23.7696 5.90779V5.90479Z" fill="#D9D9D9"/>
</g>
<g style="mix-blend-mode:soft-light" opacity="0.7">
<path d="M24.7146 1.00586H24.2676V1.79486H24.7146V1.00586Z" fill="#D9D9D9"/>
</g>
<g style="mix-blend-mode:soft-light" opacity="0.7">
<path d="M24.7146 3.80762V5.82662C24.5736 6.09062 24.4266 6.34862 24.2676 6.59762V4.95662C24.4386 4.58762 24.5886 4.20062 24.7146 3.80762Z" fill="#D9D9D9"/>
</g>
<g style="mix-blend-mode:soft-light" opacity="0.7">
<path d="M2.79058 1.00586H1.76758V1.79486H2.79058V1.00586Z" fill="#D9D9D9"/>
</g>
<g style="mix-blend-mode:soft-light" opacity="0.7">
<path d="M2.79058 6.42691V7.73491C2.41258 7.28191 2.06758 6.79591 1.76758 6.27991V4.50391C2.04358 5.18791 2.38858 5.83291 2.79058 6.42991V6.42691Z" fill="#D9D9D9"/>
</g>
<g style="mix-blend-mode:soft-light" opacity="0.7">
<path d="M3.82745 1.00586H3.31445V1.79486H3.82745V1.00586Z" fill="#D9D9D9"/>
</g>
<g style="mix-blend-mode:soft-light" opacity="0.7">
<path d="M3.82745 7.71084V8.80884C3.65045 8.64984 3.47945 8.48484 3.31445 8.31684V7.13184C3.47645 7.33284 3.64745 7.52784 3.82745 7.71384V7.71084Z" fill="#D9D9D9"/>
</g>
<g style="mix-blend-mode:soft-light" opacity="0.7">
<path d="M18.8033 14.0738C18.7253 14.0888 18.6503 14.0978 18.5723 14.0978C18.4553 14.0978 18.3413 14.0798 18.2273 14.0408C18.1463 13.6568 18.1193 13.2458 18.1133 12.9038C18.1613 12.9908 18.2153 13.0718 18.2723 13.1378L18.8033 14.0708V14.0738Z" fill="#D9D9D9"/>
</g>
<g style="mix-blend-mode:soft-light" opacity="0.7">
<path d="M14.7186 25.7799H13.5156L13.8066 20.5269L14.7186 25.7799Z" fill="#D9D9D9"/>
</g>
<g style="mix-blend-mode:soft-light" opacity="0.7">
<path d="M13.1732 25.7799H12.9902V20.5269L13.1732 25.7799Z" fill="#D9D9D9"/>
</g>
<g style="mix-blend-mode:soft-light" opacity="0.3">
<path d="M15.0626 26.0828C14.5676 26.0618 14.0516 26.0498 13.5176 26.0438V25.7798H14.7206L15.0656 26.0828H15.0626Z" fill="#D9D9D9"/>
</g>
<g style="mix-blend-mode:soft-light" opacity="0.3">
<path d="M13.1725 25.7798L13.2775 26.0408H12.9355L12.9895 25.7798H13.1725Z" fill="#D9D9D9"/>
</g>
<g style="mix-blend-mode:soft-light" opacity="0.4">
<path d="M15.0636 26.0829C15.0636 26.0829 16.5786 26.4069 17.0076 26.9889H14.5566C14.5566 26.9889 14.2146 26.3109 13.5156 26.0439L15.0636 26.0829Z" fill="#D9D9D9"/>
</g>
<g style="mix-blend-mode:soft-light" opacity="0.3">
<path d="M13.2775 26.0405C13.2775 26.0405 13.8985 26.3615 13.9345 27.0005C13.9345 26.9855 13.3825 26.9855 13.3825 26.9855C13.3825 26.9855 13.3945 26.4785 12.9355 26.0405H13.2775Z" fill="#D9D9D9"/>
</g>
<g style="mix-blend-mode:soft-light" opacity="0.3">
<path d="M13.9348 26.9858H13.3828V28.2458H13.9348V26.9858Z" fill="#D9D9D9"/>
</g>
<g style="mix-blend-mode:soft-light" opacity="0.3">
<path d="M17.0067 26.9858H14.5527V28.2458H17.0067V26.9858Z" fill="#D9D9D9"/>
</g>
<g style="mix-blend-mode:soft-light" opacity="0.3">
<path d="M20.0527 26.9856V27.7596C19.9357 27.2826 18.3607 26.9856 18.2227 26.9856C18.8917 26.9346 19.2877 26.7756 19.5097 26.6406C19.8277 26.7486 20.0197 26.8656 20.0497 26.9856H20.0527Z" fill="#D9D9D9"/>
</g>
<g style="mix-blend-mode:color-burn" opacity="0.2">
<path d="M20.052 28.2458H6.08398V26.9858H9.81598C9.81598 26.9858 6.19198 28.2458 20.052 28.2458Z" fill="#6D6D6D"/>
</g>
<g style="mix-blend-mode:color-burn" opacity="0.2">
<path d="M20.052 26.9859H6.08398C6.18298 26.6199 7.72198 26.3019 9.92698 26.1459C10.659 26.0949 11.466 26.0589 12.315 26.0439C12.267 26.2839 12.774 26.9739 20.052 26.9829V26.9859Z" fill="#6D6D6D"/>
</g>
<g style="mix-blend-mode:color-burn" opacity="0.2">
<path d="M13.2725 16.1557C13.6475 16.3477 14.4095 17.1817 13.6655 18.0337C13.5515 18.0667 13.4225 18.0967 13.2725 18.1147C13.3655 18.1147 13.7855 18.1147 14.0915 18.2707C14.1425 18.2947 14.1935 18.3247 14.2355 18.3577L14.1695 18.1147C14.1785 18.0967 14.1845 18.0757 14.1935 18.0577C14.2055 18.0307 14.2145 18.0007 14.2265 17.9737C14.2415 17.9407 14.2535 17.9077 14.2655 17.8717C14.2925 17.7967 14.3195 17.7217 14.3405 17.6407C14.4515 17.2597 14.5145 16.8247 14.5145 16.3627C14.5145 16.2457 14.6015 16.0957 14.7185 15.9487C14.3345 16.0627 13.8215 16.1677 13.2695 16.1587L13.2725 16.1557Z" fill="#6D6D6D"/>
</g>
</g>
<defs>
<linearGradient id="paint0_linear_22692_2211" x1="8.196" y1="7.14386" x2="-3.819" y2="8.46086" gradientUnits="userSpaceOnUse">
<stop stop-color="#AA4331"/>
<stop offset="1" stop-color="#C27137"/>
</linearGradient>
<linearGradient id="paint1_linear_22692_2211" x1="6.27603" y1="7.97786" x2="-1.16997" y2="-3.08914" gradientUnits="userSpaceOnUse">
<stop offset="0.01" stop-color="#C15F32"/>
<stop offset="1" stop-color="#C28A37"/>
</linearGradient>
<linearGradient id="paint2_linear_22692_2211" x1="16.7904" y1="7.621" x2="25.7064" y2="7.621" gradientUnits="userSpaceOnUse">
<stop stop-color="#AA4331"/>
<stop offset="1" stop-color="#C27137"/>
</linearGradient>
<linearGradient id="paint3_linear_22692_2211" x1="17.1031" y1="7.55193" x2="26.0191" y2="7.55193" gradientUnits="userSpaceOnUse">
<stop offset="0.01" stop-color="#C15F32"/>
<stop offset="1" stop-color="#C28A37"/>
</linearGradient>
<linearGradient id="paint4_linear_22692_2211" x1="6.37109" y1="7.68996" x2="19.7631" y2="7.68996" gradientUnits="userSpaceOnUse">
<stop stop-color="#C46E45"/>
<stop offset="0.44" stop-color="#C27337"/>
<stop offset="1" stop-color="#C28A37"/>
</linearGradient>
<linearGradient id="paint5_linear_22692_2211" x1="5.53125" y1="0.612891" x2="20.6002" y2="0.612891" gradientUnits="userSpaceOnUse">
<stop stop-color="#C46E45"/>
<stop offset="0.44" stop-color="#C27337"/>
<stop offset="1" stop-color="#C28A37"/>
</linearGradient>
<linearGradient id="paint6_linear_22692_2211" x1="10.8184" y1="14.845" x2="15.3154" y2="14.845" gradientUnits="userSpaceOnUse">
<stop stop-color="#C25439"/>
<stop offset="0.44" stop-color="#C27337"/>
<stop offset="1" stop-color="#C28A37"/>
</linearGradient>
<linearGradient id="paint7_linear_22692_2211" x1="11.8072" y1="18.6037" x2="15.8512" y2="18.5527" gradientUnits="userSpaceOnUse">
<stop stop-color="#C3593F"/>
<stop offset="0.44" stop-color="#C27337"/>
<stop offset="1" stop-color="#C28A37"/>
</linearGradient>
<linearGradient id="paint8_linear_22692_2211" x1="9.92369" y1="25.9629" x2="16.2087" y2="25.9629" gradientUnits="userSpaceOnUse">
<stop stop-color="#C26337"/>
<stop offset="0.44" stop-color="#C27337"/>
<stop offset="1" stop-color="#C28A37"/>
</linearGradient>
<linearGradient id="paint9_linear_22692_2211" x1="6.08398" y1="27.6158" x2="20.052" y2="27.6158" gradientUnits="userSpaceOnUse">
<stop stop-color="#C3593F"/>
<stop offset="0.44" stop-color="#C27337"/>
<stop offset="1" stop-color="#C28A37"/>
</linearGradient>
<linearGradient id="paint10_linear_22692_2211" x1="8.50586" y1="5.36186" x2="10.9449" y2="5.36186" gradientUnits="userSpaceOnUse">
<stop stop-color="#D9D9D9"/>
<stop offset="1" stop-color="#D9D9D9"/>
</linearGradient>
<linearGradient id="paint11_linear_22692_2211" x1="15.4551" y1="6.16893" x2="19.1721" y2="6.16893" gradientUnits="userSpaceOnUse">
<stop stop-color="#D9D9D9"/>
<stop offset="1" stop-color="#D9D9D9"/>
</linearGradient>
<clipPath id="clip0_22692_2211">
<rect width="26.019" height="28.158" fill="white" transform="translate(0 0.0878906)"/>
</clipPath>
</defs>
</svg>
